<?xml version="1.0" encoding="UTF-8"?>
<svg id="_レイヤー_2" data-name="レイヤー 2" xmlns="http://www.w3.org/2000/svg" viewBox="0 0 162.5838957 171.8281317">
  <defs>
    <style>
      .cls-1 {
        fill: #fff;
        stroke: #fff;
        stroke-linecap: round;
        stroke-linejoin: round;
        stroke-width: 4px;
      }

      .cls-2, .cls-3 {
        stroke-width: 0px;
      }

      .cls-3 {
        fill: #ffdc00;
      }
    </style>
  </defs>
  <g id="buildhouse">
    <g>
      <circle class="cls-3" cx="82.8160984" cy="100.394741" r="71.4333907"/>
      <g>
        <path class="cls-1" d="m6.0894322,45.2589546c-.3540039.4560547-.6923828.9238281-1.0151367,1.4042969.6865234.6083984,1.3935547,1.1582031,2.0922852,1.7509766.3227539-.4804688.6171875-.9570312.9711914-1.4130859.1953125-.2509766.5463867-.28125.7978516-.0859375.2353516.1835938.28125.5458984.0981445.7822266-.3540039.4560547-.6611328.9482422-.9833984,1.4287109.8520508.6865234,1.6884766,1.3613281,2.5166016,2.0800781.1928711-.6054688.3583984-1.2080078.4765625-1.8466797.0297852-.1035156.0473633-.1904297.1083984-.2695312.1831055-.2353516.5581055-.296875.8095703-.1015625.1572266.1220703.237793.3105469.21875.4970703-.0537109.5888672-1.5898438,5.5185547-1.8828125,5.8955078-.1831055.2363281-.5463867.28125-.7822266.0986328-.2041016-.1591797-.2636719-.40625-.1801758-.6435547.2807617-.8154297.5888672-1.6347656.8535156-2.4619141-.878418-.7832031-1.8212891-1.515625-2.7397461-2.2792969-.2949219.4765625-.5336914.9462891-.7685547,1.4433594-.0244141.0322266-.0576172.1074219-.0820312.1386719-.1953125.2509766-.5620117.2685547-.8134766.0732422-.2041016-.1582031-.2480469-.3935547-.1645508-.6318359.1845703-.5615234.6538086-1.2304688.9570312-1.7509766-.7104492-.5771484-1.4492188-1.1503906-2.1357422-1.7597656-.2612305.4023438-1.2363281,1.7861328-1.3701172,2.1865234-.0087891.0439453-.0175781.0869141-.0541992.1347656-.1831055.2353516-.5585938.296875-.8095703.1015625-.2045898-.1591797-.2519531-.4228516-.168457-.6601562.1586914-.4306641.4726562-.8671875.722168-1.2529297.7651367-1.2451172,1.5898438-2.4697266,2.4931641-3.6328125.2441406-.3144531.5566406-.6513672.980957-.3212891.4555664.3535156.0981445.78125-.1459961,1.0957031Zm15.0307617-3.2929688c-.0449219.9980469-.628418,2.5605469-1.2265625,3.3310547-1.3427734,1.7285156-3.1635742,1.3476562-4.7646484.2304688.1352539,1.1884766.3139648,2.3857422.5048828,3.5664062.0717773.4589844.2241211,1.1064453.2802734,1.5537109.0244141.1953125.0107422.3105469-.1113281.4677734-.1953125.2509766-.5302734.2939453-.7817383.0986328-.0942383-.0732422-.1645508-.1787109-.1943359-.3017578-.2133789-.7958984-.3222656-1.6621094-.4394531-2.4833984-.2700195-1.6962891-.4960938-3.3847656-.6264648-5.0986328-.5717773.8662109-1.15625,1.7480469-1.621582,2.671875.0019531.1279297-.027832.2304688-.1010742.3251953-.1953125.2509766-.5024414.2900391-.7626953.1376953-.3979492-.2333984-.8730469-.6279297-1.234375-.9082031-.8417969-.6035156-1.6591797-1.2382812-2.4604492-1.8603516-.9428711-.7324219-1.8740234-1.4804688-2.7924805-2.2451172-.4086914-.3173828-.8486328-.6591797-1.2207031-1.0234375-.2270508-.2265625-.237793-.5371094-.0424805-.7890625.2075195-.2666016.5654297-.2412109.8012695-.0576172.0942383.0732422.1918945.1738281.2861328.2470703.5878906-1.0800781,1.25-2.1279297,2.0068359-3.1025391,1.2695312-1.6347656,1.2246094-1.3164062,2.7177734-.1572266,1.2416992.9648438,4.5297852,3.5439453,5.3422852,4.7041016.1044922.15625.1118164.2128906.1206055.3955078.0390625.7607422.0776367,1.5224609.1445312,2.2792969.1606445.1503906.3212891.2998047.4941406.4345703,1.1162109.8671875,2.5249023,1.5830078,3.574707.2314453.6347656-.8173828.8071289-1.8173828.9824219-2.7900391.0297852-.1025391.0473633-.1904297.1083984-.2685547.1953125-.2509766.5581055-.296875.7939453-.1142578.1728516.1347656.2373047.3105469.222168.5253906Zm-12.6240234-4.6396484c-.1884766-.1464844-.3896484-.2773438-.5625-.4111328-.1621094.1767578-.3085938.3652344-.4428711.5380859-.7568359.9736328-1.4472656,2.0253906-1.9912109,3.1152344.4594727.3818359.902832.7509766,1.3745117,1.1171875.6904297-1.2783203,1.5517578-2.5488281,2.5058594-3.6474609-.2358398-.1835938-.4594727-.3818359-.6953125-.5654297l-.1884766-.1464844Zm1.2875977,2.0087891c-.7324219.9423828-1.4785156,2.0009766-2.0102539,3.0742188l1.2416992.9648438c.7338867-1.2695312,1.5742188-2.4814453,2.3398438-3.7265625-.3652344-.3085938-.7143555-.6054688-1.0917969-.8984375-.1743164.1923828-.3208008.3808594-.4794922.5859375Zm2.2177734,1.3945312c-.7148438,1.0820312-1.4262695,2.1933594-2.0786133,3.3242188.4716797.3662109.9394531.7050781,1.4111328,1.0712891.6728516-1.1914062,1.4208984-2.3486328,2.1879883-3.4667969-.4101562-.4443359-.8730469-.8544922-1.3081055-1.2675781l-.2124023.3388672Z"/>
        <path class="cls-1" d="m18.0469518,28.3068061c-.3510742,1.109375-.4204102,2.9414062-.4511719,4.0976562l.0087891.7636719c-.0039062.1835938-.0922852.3583984-.230957.4726562-.2460938.2011719-.5976562.1806641-.8120117-.0810547-.0756836-.0927734-.1201172-.2099609-.121582-.3378906-.0717773-.8408203.1567383-5.1162109.6953125-5.5576172.246582-.2021484.6230469-.1503906.824707.0966797.1259766.1533203.1499023.3398438.0869141.5458984Zm12.0258789-5.3193359c-.2255859.6982422-.7783203,1.5625-1.3476562,2.0292969-1.3549805,1.1083984-2.4165039.1259766-3.3115234-.9667969-.5292969-.6464844-.9814453-1.3564453-1.4033203-2.0908203l-.2460938.2011719c-1.0288086.8164062-2.0224609,1.7070312-2.9501953,2.6464844.5727539.9199219,1.1147461,1.8652344,1.644043,2.7939453.2729492.5224609.6274414,1.0810547.8266602,1.6376953.0893555.2353516.0336914.5126953-.1665039.6767578-.230957.1884766-.6230469.1494141-.824707-.0966797-.0253906-.0302734-.0629883-.0771484-.0854492-.1357422-.2646484-.6064453-.6010742-1.2050781-.9243164-1.7890625-.659668-1.1826172-1.3808594-2.3144531-2.0869141-3.4599609-.1835938-.2871094-.125-.5917969.1367188-.8066406.3081055-.2519531.6552734-.0478516.8569336.1992188.8637695-.8613281,1.7651367-1.6767578,2.7041016-2.4453125.4155273-.3408203,1.2666016-1.2167969,1.7709961-.6015625l.0751953.0927734c.4638672.8808594.9482422,1.6923828,1.5786133,2.4619141.1889648.2314453.8852539,1.0498047,1.1987305,1.0244141.1708984-.0107422.3500977-.1064453.4882812-.2197266.6162109-.5039062.9238281-1.6044922,1.1547852-1.7939453.2617188-.2138672.6254883-.1777344.8271484.0683594.1386719.1699219.1474609.3681641.0844727.5742188Zm-8.8911133,6.0703125l-.0361328.6464844-.0698242,1.265625-.0610352,1.4638672c.3291016.2451172.6035156.6123047.8554688.9199219,1.0209961,1.2470703,1.949707,2.5693359,2.8652344,3.8769531.4174805.6357422,1.0800781,1.5078125,1.4233398,2.1777344.1650391.328125.0683594.5869141-.1933594.8007812-.215332.1767578-.5834961.0410156-.7348633-.1435547l-.0629883-.0771484c-.6176758-1.0371094-1.3125-2.0117188-2.0068359-2.9853516-.7045898-1.0175781-1.4370117-2.0380859-2.2182617-2.9921875-.0419922.7021484-.0839844,1.4052734-.1538086,2.1054688-.0405273.2646484-.0556641.5595703-.1088867.8085938-.0292969.1533203-.0810547.2470703-.2041016.3476562-.2617188.2138672-.5976562.1806641-.7993164-.0654297-.1259766-.1542969-.1401367-.296875-.1235352-.4648438.2080078-1.9443359.2885742-3.8876953.3696289-5.8310547.0205078-.6347656.0317383-1.3115234.1083984-1.9404297.0170898-.1679688.0712891-.2900391.2099609-.4033203.246582-.2011719.6103516-.1650391.8120117.0810547.1132812.1386719.1303711.2529297.1289062.4091797Zm14.8022461,2.5644531c-.6464844.5292969-5.0126953,1.0693359-5.984375,1.1708984-.1855469,1.4375-.5463867,3.3525391-1.3623047,4.5859375-.0336914.0537109-.0644531.0791016-.1103516.1162109-.246582.2021484-.5952148.1533203-.796875-.0927734-.1762695-.2158203-.1513672-.4677734-.0166016-.6806641.6796875-1.1484375.9414062-2.4941406,1.1132812-3.7910156-.6860352.0722656-1.3691406.1171875-2.0371094.1494141-.2421875.0185547-.4995117.0498047-.7392578.0400391-.1831055-.0039062-.3330078-.0615234-.4589844-.2158203-.2016602-.2460938-.152832-.5947266.0932617-.796875.1079102-.0878906.2099609-.1201172.3530273-.1337891.3134766-.0253906.6396484-.0351562.9658203-.0449219.6552734-.0478516,1.2978516-.1113281,1.9555664-.1875.121582-1.359375.1464844-2.7421875-.0175781-4.0732422-.9086914.7431641-1.7792969,1.5332031-2.637207,2.3388672-.5288086.484375-1.0888672.9941406-1.5419922,1.5703125-.0185547.0410156-.0644531.0791016-.0952148.1035156-.246582.2021484-.6230469.1503906-.824707-.0957031-.1762695-.2158203-.1484375-.4960938.0009766-.7207031.2172852-.3320312.5585938-.6376953.8383789-.8925781,1.0693359-1.0810547,2.2045898-2.1132812,3.359375-3.0585938.3076172-.2519531.6645508-.5693359,1.0078125-.7480469.253418-.1298828.5639648-.1269531.7529297.1035156.0629883.0771484.0952148.1796875.1147461.2666016.3588867,1.5058594.3383789,3.5537109.2128906,5.0966797,1.5610352-.1972656,3.8178711-.4248047,5.2719727-.9726562.2353516-.0898438.4873047-.0644531.6635742.1513672.2016602.2460938.1655273.6103516-.0810547.8115234Z"/>
        <path class="cls-1" d="m46.4585729,12.9474311c.1035156.9257812-1.2109375,5.4404297-1.5522461,6.453125-.2338867.6933594-.5029297,1.4042969-.8168945,2.0703125.4350586.2509766.8793945.4746094,1.3320312.7167969.3642578.1962891.7636719.3759766,1.1367188.5908203.1245117.0712891.1953125.125.2573242.25.1499023.3027344.0332031.6494141-.2700195.7998047-.1958008.0966797-.355957.0869141-.5512695.0068359-.3730469-.1708984-.7548828-.4033203-1.1191406-.5996094l-3.2412109-1.7021484c-.3994141-.2236328-1.1098633-.5371094-1.4736328-.8232422-.0800781-.0712891-.1508789-.125-.1948242-.2138672-.1416016-.2851562-.015625-.6582031.2871094-.8085938.2319336-.1152344.3916016-.0615234.6049805.0556641.7099609.4023438,1.4384766.7958984,2.184082,1.1816406.9140625-1.9628906,1.7436523-5.0830078,2.1420898-7.234375-1.4599609.3242188-2.9926758,1.0839844-4.3291016,1.7470703-1.3725586.6796875-3.8232422,1.9609375-4.8945312,3.0253906-.0444336.0439453-.1069336.0976562-.1606445.1240234-.3027344.1503906-.6582031.015625-.8085938-.2880859-.1147461-.2314453-.0693359-.453125.1000977-.6484375.7954102-.9492188,4.128418-2.7353516,5.2866211-3.3095703,1.0874023-.5380859,4.3129883-2.0488281,5.5131836-1.9111328.2314453.0185547.4091797.1083984.5151367.3222656.0351562.0712891.0439453.1337891.0527344.1953125Z"/>
        <path class="cls-1" d="m67.1909947,7.0509468c-.1079102.9257812-2.4067383,5.0302734-2.9682617,5.9404297-.3837891.6230469-.8066406,1.2548828-1.2626953,1.8330078.3676758.3427734.75.6611328,1.1367188.9990234.3105469.2734375.659668.5390625.9746094.8320312.1049805.0976562.1621094.1660156.1943359.3017578.078125.3291016-.1137695.640625-.4428711.71875-.2133789.0507812-.3671875.0048828-.5395508-.1171875-.3251953-.2509766-.6445312-.5634766-.9550781-.8369141l-2.7758789-2.3896484c-.3388672-.3085938-.9604492-.7744141-1.2509766-1.1347656-.0615234-.0878906-.1186523-.15625-.1416016-.2529297-.0732422-.3095703.1333008-.6455078.4624023-.7236328.2519531-.0595703.3955078.0292969.5771484.1904297.6015625.5527344,1.222168,1.1015625,1.862793,1.6445312,1.3334961-1.7070312,2.8447266-4.5605469,3.71875-6.5673828-1.4960938-.0136719-3.1616211.3818359-4.6137695.7255859-1.4907227.3535156-4.168457,1.0507812-5.4526367,1.8457031-.0537109.0332031-.1264648.0712891-.1845703.0849609-.3291016.078125-.6450195-.1337891-.7231445-.4628906-.0595703-.2519531.034668-.4580078.2441406-.6103516.9887695-.7451172,4.6401367-1.734375,5.8989258-2.0332031,1.1811523-.2792969,4.6655273-1.0244141,5.8046875-.6201172.2211914.0703125.3740234.1982422.4291992.4306641.0180664.0771484.0126953.1396484.0073242.2021484Z"/>
        <path class="cls-1" d="m78.5581822,6.4278999c-.9633789,1.9658203-1.5336914,4.8808594-1.4985352,7.0693359.0068359.4179688.0332031.8154297.1191406,1.2119141.1782227-.0625.3349609-.2041016.5341797-.2070312.3183594-.0058594.6010742.2685547.6069336.6064453.0029297.1992188-.09375.3603516-.2509766.4824219-.2358398.1826172-.9677734.4726562-1.246582.4775391-.2583008.0039062-.4594727-.1318359-.5625-.3496094-.2880859-.5722656-.3642578-1.5859375-.3745117-2.2226562-.0327148-2.0498047.5825195-5.8603516,1.6083984-7.6484375.1166992-.1806641.2939453-.3037109.5126953-.3066406.3383789-.0058594.6210938.2685547.6264648.5869141.0019531.1191406-.0366211.1992188-.074707.2998047Zm9.2563477,7.5332031c-.8754883.0136719-3.8173828-2.2470703-3.8325195-3.1630859-.0048828-.3183594.2495117-.5810547.5878906-.5859375.2387695-.0039062.4199219.1123047.5424805.3095703.5317383.8867188,1.921875,1.9394531,2.8828125,2.2822266.2402344.0957031.402832.2919922.4067383.5507812.0053711.3378906-.269043.6015625-.5874023.6064453Zm.2124023-6.5917969c-.3383789.0058594-.6015625-.2685547-.6064453-.5869141-.0014648-.0996094.0170898-.1796875.0556641-.2597656-.300293-.0947266-.7783203-.1064453-1.0966797-.1015625-.4775391.0078125-.9541016.0546875-1.409668.2021484-.059082.0205078-.1186523.0410156-.1982422.0429688-.3183594.0048828-.6015625-.2695312-.6069336-.6074219-.0039062-.2587891.1713867-.4804688.4086914-.5634766.5146484-.1875,1.309082-.2802734,1.8466797-.2890625.8154297-.0126953,2.3105469.1220703,2.328125,1.2167969.0063477.3974609-.2636719.9394531-.7211914.9462891Z"/>
        <path class="cls-1" d="m100.960526,7.3605171c-.1005859.3642578-.2407227.7207031-.3413086,1.0859375-.0043945.0185547-.0131836.0576172.0019531.0810547-.0170898.078125-.0385742.1748047-.109375.2207031-.1787109.3476562-.2880859.7509766-.7739258.6445312-.2524414-.0566406-.4428711-.3017578-.40625-.5585938-1.0229492-.1650391-2.0458984-.3291016-3.0859375-.4160156-.4248047,1.7392578-.8256836,3.4638672-1.2119141,5.2119141-.184082.8349609-.3642578,1.6513672-.5292969,2.4902344-.0986328.4472656-.2207031.9091797-.2612305,1.3681641l-.0170898.078125c-.0644531.2910156-.3530273.4921875-.6445312.4277344-.2915039-.0634766-.4277344-.2773438-.4453125-.5664062-.0200195-.3710938.5869141-3.0283203.6938477-3.5136719.5488281-2.4863281,1.1411133-4.9833984,1.7871094-7.4482422.2338867-.9667969.4868164-1.9296875.7749023-2.8642578.1137695-.4228516.2314453-.8652344.3994141-1.2558594.0986328-.2636719.3510742-.3916016.6230469-.3310547.2329102.0507812.3779297.2255859.4321289.4414062.6777344.0683594,1.3618164.1982422,2.0415039.3486328.3691406.0810547,1.4135742.3320312,1.7182617.5214844.3198242.2138672.3110352.4355469.2382812.765625-.2441406,1.1074219-.546875,2.2021484-.8842773,3.2685547Zm-1.1362305-.9433594c-.9472656-.2294922-1.9511719-.390625-2.9477539-.4882812-.1269531.4814453-.2490234.9433594-.3564453,1.4287109,1.0595703.0917969,2.121582.2646484,3.1635742.4335938l.4125977-1.3144531-.2719727-.0595703Zm6.8549805,6.1367188c-.4858398-.1074219-.9907227-.21875-1.480957-.3066406l-.0727539.3310547c-.3598633,1.6308594-.7592773,3.2539062-1.1967773,4.8691406-.2490234.9433594-.5151367,1.9638672-.9155273,2.8535156-.1137695.2392578-.3510742.390625-.6230469.3310547-.2910156-.0644531-.487793-.3730469-.4238281-.6640625l.0214844-.0976562c.2709961-.6728516.487793-1.3789062.7006836-2.0654297-1.1264648-.0654297-2.2680664-.1542969-3.4052734-.2626953-.6582031-.0634766-1.3486328-.0732422-2.0087891-.2197266l-.0585938-.0126953c-.2714844-.0595703-.4770508-.3291016-.4169922-.6015625.0683594-.3105469.2905273-.4853516.6142578-.4755859.4057617.0087891.8330078.1025391,1.2495117.1542969.1176758-.6259766.2592773-1.2675781.3964844-1.8886719.2402344-1.0878906.4799805-2.1757812.7783203-3.2509766-.6064453-.1132812-1.2060547-.1640625-1.7973633-.2539062l-.0776367-.0166016c-.2915039-.0644531-.4731445-.3496094-.4086914-.640625.0639648-.2910156.2817383-.4472656.5668945-.4453125.3232422.0107422.6538086.0830078.9492188.1279297.7314453.1005859,1.4545898.2402344,2.1625977.3554688,1.8579102.3486328,3.7207031.6787109,5.565918,1.0859375.3496094.0771484.6303711.28125.5405273.6894531-.0644531.2910156-.3686523.46875-.659668.4042969Zm-6.9296875-8.6591797c-.71875-.1582031-1.4609375-.3017578-2.2011719-.3632812l-.3735352,1.3222656c1.0703125.1347656,2.1708984.3164062,3.215332.5673828.1137695-.4228516.2275391-.8457031.3222656-1.2734375-.3217773-.1113281-.6328125-.1796875-.9628906-.2529297Zm.2451172,11.4414062c-.0859375.3886719-.1479492.7617188-.2338867,1.1503906,1.0791016.0957031,2.1582031.1914062,3.2260742.2431641l.2358398-.8847656c-1.0722656-.2158203-2.1577148-.3740234-3.2280273-.5087891Zm3.449707-1.4179688c-1.0053711-.2421875-2.0175781-.3642578-3.0209961-.5244141l-.1889648.8544922c1.0854492.1582031,2.1708984.3164062,3.2436523.5332031.0708008-.2294922.1225586-.4619141.1738281-.6953125l.0258789-.1162109-.2333984-.0517578Zm.6816406-1.8867188c-1.0727539-.2167969-2.1303711-.4091797-3.2070312-.6064453l-.2407227.9042969c1.0898438.1386719,2.1904297.3212891,3.2548828.5761719l.1928711-.8740234Zm7.3764648-4.6259766c-.6474609,2.9335938-1.3378906,5.8769531-2.0825195,8.7890625-.2744141,1.0595703-.5493164,2.1191406-.862793,3.1708984-.1914062.5888672-.3671875,1.2021484-.6362305,1.7744141-.1137695.2392578-.3662109.3671875-.6186523.3115234-.5048828-.1113281-1.3989258-.6757812-1.762207-1.0615234-.1293945-.1503906-.1967773-.3085938-.1538086-.5019531.0644531-.2919922.3486328-.4736328.6401367-.4091797.1166992.0253906.1855469.0820312.2700195.1611328.2568359.2197266.5185547.4199219.831543.5712891.4536133-1.2246094.7797852-2.5175781,1.1166992-3.7666016.4526367-1.7744141.8818359-3.5332031,1.2910156-5.296875l-.5244141-.1162109c-1.0874023-.2392578-2.2036133-.4453125-3.2973633-.5644531-.0668945.0263672-.105957.0175781-.1835938,0-.2915039-.0644531-.4384766-.3203125-.4169922-.6015625.0209961-.4638672.1708984-.9599609.2739258-1.4257812.2099609-.9521484.8300781-3.6669922,1.2475586-4.4511719.109375-.2197266.3466797-.3710938.5991211-.3154297.2915039.0644531.5078125.3769531.4433594.6679688-.0087891.0390625-.0322266.0537109-.0410156.0927734-.3354492.78125-.543457,1.6318359-.762207,2.4394531,1.1674805.1552734,2.3457031.3544922,3.4790039.6660156l.0810547-.3691406.2231445-1.0097656c-.3452148-.0966797-.4770508-.1464844-.8266602-.2236328-.5244141-.1162109-1.2709961-.2402344-1.8041992-.3164062l.1552734.0341797c-.2954102-.0449219-.4921875-.3535156-.4238281-.6640625.0600586-.2724609.2973633-.4238281.5820312-.421875.5263672.0146484,1.1049805.1621094,1.6293945.2783203.4077148.0898438,1.2387695.2939453,1.5820312.4921875.2163086.1289062.3286133.3574219.2729492.6103516l-.1928711.8740234-.1289062.5820312Zm-2.1582031,1.0107422c-.8935547-.1972656-1.8149414-.359375-2.7255859-.4794922-.0556641.2529297-.1269531.4814453-.1826172.734375l-.0429688.1943359c-.0385742.1748047-.0620117.3730469-.1044922.5673828,1.1674805.1552734,2.3457031.3544922,3.4829102.6464844.1074219-.4853516.21875-.9902344.3457031-1.4716797-.2485352-.0751953-.5009766-.1308594-.7729492-.1914062Z"/>
        <path class="cls-1" d="m119.2793736,19.9737983c-.6289062.1630859-2.0639648.0302734-2.6386719-.2441406-.7724609-.3681641-.8666992-2.0654297-.9067383-2.7675781-.0498047-.7734375-.0498047-3.1318359.2666016-3.796875.137207-.2871094.5083008-.4189453.7958984-.28125.269043.1279297.3813477.4023438.3330078.6875-.0639648.3662109-.128418.7324219-.1748047,1.1064453-.0644531.8291016-.0893555,3.2861328.2714844,4.0087891.5019531.1953125,1.284668.171875,1.8173828.1171875.1420898-.0205078.2490234-.0136719.375.0458984.3051758.1455078.4189453.5087891.2817383.7958984-.0854492.1796875-.2260742.2890625-.4208984.328125Zm9.1054688,2.4443359c-.2875977-.1367188-.4106445-.5263672-.2734375-.8134766.0424805-.0898438.0947266-.1533203.1650391-.2080078.3242188-.2636719.5493164-.5976562.7290039-.9746094.1884766-.3945312.4335938-1.09375.3007812-1.5097656-.0561523-.1591797-.050293-.3105469.0268555-.4716797.1367188-.2871094.4995117-.4013672.7871094-.2646484.8081055.3857422.2368164,2.1855469-.0371094,2.7597656-.230957.4853516-1.0161133,1.8076172-1.6982422,1.4824219Z"/>
        <path class="cls-1" d="m143.4546666,26.5099311c-.9648438-.3837891-1.9311523-1.0234375-2.7827148-1.6474609-2.2514648.9833984-7.2114258,3.6533203-8.6948242,5.5253906-.2099609.2646484-.2895508.5576172-.425293.7285156-.1977539.25-.6049805.2822266-.8544922.0849609-.5146484-.4082031.0351562-1.1660156.3320312-1.5400391,1.5942383-2.0117188,6.1201172-4.5185547,8.5981445-5.6269531-.4433594-.4013672-.9423828-.796875-1.3481445-1.2460938-.2124023-.2441406-.2324219-.5390625-.034668-.7890625.1977539-.2490234.5703125-.3349609.8227539-.109375l.0625.0498047c.5708008.5283203,1.1298828,1.0732422,1.737793,1.5546875.3261719-.1220703.6889648-.2919922,1.0209961-.3583984.1801758-.0351562.3540039.0009766.5102539.125.2495117.1972656.3071289.5732422.109375.8232422-.1235352.1552734-.2973633.2470703-.4804688.2539062.6015625.4257812,1.2338867.7490234,1.894043,1.0693359.059082.0214844.090332.0458984.137207.0830078.2651367.2109375.3071289.5742188.097168.8388672-.1728516.21875-.4492188.2783203-.7016602.1806641Zm-2.621582,11.8613281c-.7485352-.59375-2.2265625-2.3486328-2.5131836-3.2363281-.0664062-.2050781-.0454102-.3916016.078125-.546875.2099609-.265625.5981445-.3388672.8632812-.1289062.109375.0869141.1469727.1679688.1879883.2763672.4082031.9580078,1.3950195,2.0195312,2.1567383,2.7246094.2680664.2382812.2915039.5615234.0688477.8417969-.2099609.265625-.5922852.2666016-.8417969.0693359Zm4.3452148-5.2900391c-.0625-.0498047-.1123047-.1152344-.1621094-.1796875-.1376953-.2109375-.315918-.4023438-.5185547-.5634766-.7016602-.5566406-1.6391602-.9433594-2.5009766-1.1699219-.0869141-.0175781-.1616211-.0517578-.2397461-.1132812-.2651367-.2099609-.3227539-.5859375-.112793-.8515625.1484375-.1865234.3813477-.2558594.5991211-.2109375.9267578.1767578,2.2348633.8320312,2.9677734,1.4130859.4057617.3212891,1.2231445,1.0205078.777832,1.5820312-.1977539.2490234-.5610352.2910156-.8105469.09375Z"/>
        <path class="cls-1" d="m148.4507604,49.3331733c-.5356445-.6679688.9604492-1.7910156,1.8139648-2.4765625.2485352-.1992188.6396484-.15625.8388672.0927734.6352539.7910156-1.1630859,1.4433594-1.6835938,2.3203125-.0341797.0527344-.0839844.1181641-.1459961.1679688-.2636719.2109375-.6118164.1591797-.8232422-.1044922Zm11.8535156-8.8476562c-2.2568359,1.6064453-4.6713867,3.3652344-6.8442383,5.1083984-.2324219.1865234-.6396484.15625-.8388672-.0917969-.3735352-.4658203.0332031-.8173828.3745117-1.0917969,1.4277344-1.1455078,2.8896484-2.2158203,4.3544922-3.3154297.6489258-.4941406,1.6357422-1.2353516,2.315918-1.6279297.2573242-.1552734.5776367-.1064453.7768555.1416016.2241211.2792969.171875.6279297-.0922852.8388672l-.0463867.0380859Z"/>
      </g>
      <g>
        <path class="cls-2" d="m6.0894322,45.2589546c-.3540039.4560547-.6923828.9238281-1.0151367,1.4042969.6865234.6083984,1.3935547,1.1582031,2.0922852,1.7509766.3227539-.4804688.6171875-.9570312.9711914-1.4130859.1953125-.2509766.5463867-.28125.7978516-.0859375.2353516.1835938.28125.5458984.0981445.7822266-.3540039.4560547-.6611328.9482422-.9833984,1.4287109.8520508.6865234,1.6884766,1.3613281,2.5166016,2.0800781.1928711-.6054688.3583984-1.2080078.4765625-1.8466797.0297852-.1035156.0473633-.1904297.1083984-.2695312.1831055-.2353516.5581055-.296875.8095703-.1015625.1572266.1220703.237793.3105469.21875.4970703-.0537109.5888672-1.5898438,5.5185547-1.8828125,5.8955078-.1831055.2363281-.5463867.28125-.7822266.0986328-.2041016-.1591797-.2636719-.40625-.1801758-.6435547.2807617-.8154297.5888672-1.6347656.8535156-2.4619141-.878418-.7832031-1.8212891-1.515625-2.7397461-2.2792969-.2949219.4765625-.5336914.9462891-.7685547,1.4433594-.0244141.0322266-.0576172.1074219-.0820312.1386719-.1953125.2509766-.5620117.2685547-.8134766.0732422-.2041016-.1582031-.2480469-.3935547-.1645508-.6318359.1845703-.5615234.6538086-1.2304688.9570312-1.7509766-.7104492-.5771484-1.4492188-1.1503906-2.1357422-1.7597656-.2612305.4023438-1.2363281,1.7861328-1.3701172,2.1865234-.0087891.0439453-.0175781.0869141-.0541992.1347656-.1831055.2353516-.5585938.296875-.8095703.1015625-.2045898-.1591797-.2519531-.4228516-.168457-.6601562.1586914-.4306641.4726562-.8671875.722168-1.2529297.7651367-1.2451172,1.5898438-2.4697266,2.4931641-3.6328125.2441406-.3144531.5566406-.6513672.980957-.3212891.4555664.3535156.0981445.78125-.1459961,1.0957031Zm15.0307617-3.2929688c-.0449219.9980469-.628418,2.5605469-1.2265625,3.3310547-1.3427734,1.7285156-3.1635742,1.3476562-4.7646484.2304688.1352539,1.1884766.3139648,2.3857422.5048828,3.5664062.0717773.4589844.2241211,1.1064453.2802734,1.5537109.0244141.1953125.0107422.3105469-.1113281.4677734-.1953125.2509766-.5302734.2939453-.7817383.0986328-.0942383-.0732422-.1645508-.1787109-.1943359-.3017578-.2133789-.7958984-.3222656-1.6621094-.4394531-2.4833984-.2700195-1.6962891-.4960938-3.3847656-.6264648-5.0986328-.5717773.8662109-1.15625,1.7480469-1.621582,2.671875.0019531.1279297-.027832.2304688-.1010742.3251953-.1953125.2509766-.5024414.2900391-.7626953.1376953-.3979492-.2333984-.8730469-.6279297-1.234375-.9082031-.8417969-.6035156-1.6591797-1.2382812-2.4604492-1.8603516-.9428711-.7324219-1.8740234-1.4804688-2.7924805-2.2451172-.4086914-.3173828-.8486328-.6591797-1.2207031-1.0234375-.2270508-.2265625-.237793-.5371094-.0424805-.7890625.2075195-.2666016.5654297-.2412109.8012695-.0576172.0942383.0732422.1918945.1738281.2861328.2470703.5878906-1.0800781,1.25-2.1279297,2.0068359-3.1025391,1.2695312-1.6347656,1.2246094-1.3164062,2.7177734-.1572266,1.2416992.9648438,4.5297852,3.5439453,5.3422852,4.7041016.1044922.15625.1118164.2128906.1206055.3955078.0390625.7607422.0776367,1.5224609.1445312,2.2792969.1606445.1503906.3212891.2998047.4941406.4345703,1.1162109.8671875,2.5249023,1.5830078,3.574707.2314453.6347656-.8173828.8071289-1.8173828.9824219-2.7900391.0297852-.1025391.0473633-.1904297.1083984-.2685547.1953125-.2509766.5581055-.296875.7939453-.1142578.1728516.1347656.2373047.3105469.222168.5253906Zm-12.6240234-4.6396484c-.1884766-.1464844-.3896484-.2773438-.5625-.4111328-.1621094.1767578-.3085938.3652344-.4428711.5380859-.7568359.9736328-1.4472656,2.0253906-1.9912109,3.1152344.4594727.3818359.902832.7509766,1.3745117,1.1171875.6904297-1.2783203,1.5517578-2.5488281,2.5058594-3.6474609-.2358398-.1835938-.4594727-.3818359-.6953125-.5654297l-.1884766-.1464844Zm1.2875977,2.0087891c-.7324219.9423828-1.4785156,2.0009766-2.0102539,3.0742188l1.2416992.9648438c.7338867-1.2695312,1.5742188-2.4814453,2.3398438-3.7265625-.3652344-.3085938-.7143555-.6054688-1.0917969-.8984375-.1743164.1923828-.3208008.3808594-.4794922.5859375Zm2.2177734,1.3945312c-.7148438,1.0820312-1.4262695,2.1933594-2.0786133,3.3242188.4716797.3662109.9394531.7050781,1.4111328,1.0712891.6728516-1.1914062,1.4208984-2.3486328,2.1879883-3.4667969-.4101562-.4443359-.8730469-.8544922-1.3081055-1.2675781l-.2124023.3388672Z"/>
        <path class="cls-2" d="m18.0469518,28.3068061c-.3510742,1.109375-.4204102,2.9414062-.4511719,4.0976562l.0087891.7636719c-.0039062.1835938-.0922852.3583984-.230957.4726562-.2460938.2011719-.5976562.1806641-.8120117-.0810547-.0756836-.0927734-.1201172-.2099609-.121582-.3378906-.0717773-.8408203.1567383-5.1162109.6953125-5.5576172.246582-.2021484.6230469-.1503906.824707.0966797.1259766.1533203.1499023.3398438.0869141.5458984Zm12.0258789-5.3193359c-.2255859.6982422-.7783203,1.5625-1.3476562,2.0292969-1.3549805,1.1083984-2.4165039.1259766-3.3115234-.9667969-.5292969-.6464844-.9814453-1.3564453-1.4033203-2.0908203l-.2460938.2011719c-1.0288086.8164062-2.0224609,1.7070312-2.9501953,2.6464844.5727539.9199219,1.1147461,1.8652344,1.644043,2.7939453.2729492.5224609.6274414,1.0810547.8266602,1.6376953.0893555.2353516.0336914.5126953-.1665039.6767578-.230957.1884766-.6230469.1494141-.824707-.0966797-.0253906-.0302734-.0629883-.0771484-.0854492-.1357422-.2646484-.6064453-.6010742-1.2050781-.9243164-1.7890625-.659668-1.1826172-1.3808594-2.3144531-2.0869141-3.4599609-.1835938-.2871094-.125-.5917969.1367188-.8066406.3081055-.2519531.6552734-.0478516.8569336.1992188.8637695-.8613281,1.7651367-1.6767578,2.7041016-2.4453125.4155273-.3408203,1.2666016-1.2167969,1.7709961-.6015625l.0751953.0927734c.4638672.8808594.9482422,1.6923828,1.5786133,2.4619141.1889648.2314453.8852539,1.0498047,1.1987305,1.0244141.1708984-.0107422.3500977-.1064453.4882812-.2197266.6162109-.5039062.9238281-1.6044922,1.1547852-1.7939453.2617188-.2138672.6254883-.1777344.8271484.0683594.1386719.1699219.1474609.3681641.0844727.5742188Zm-8.8911133,6.0703125l-.0361328.6464844-.0698242,1.265625-.0610352,1.4638672c.3291016.2451172.6035156.6123047.8554688.9199219,1.0209961,1.2470703,1.949707,2.5693359,2.8652344,3.8769531.4174805.6357422,1.0800781,1.5078125,1.4233398,2.1777344.1650391.328125.0683594.5869141-.1933594.8007812-.215332.1767578-.5834961.0410156-.7348633-.1435547l-.0629883-.0771484c-.6176758-1.0371094-1.3125-2.0117188-2.0068359-2.9853516-.7045898-1.0175781-1.4370117-2.0380859-2.2182617-2.9921875-.0419922.7021484-.0839844,1.4052734-.1538086,2.1054688-.0405273.2646484-.0556641.5595703-.1088867.8085938-.0292969.1533203-.0810547.2470703-.2041016.3476562-.2617188.2138672-.5976562.1806641-.7993164-.0654297-.1259766-.1542969-.1401367-.296875-.1235352-.4648438.2080078-1.9443359.2885742-3.8876953.3696289-5.8310547.0205078-.6347656.0317383-1.3115234.1083984-1.9404297.0170898-.1679688.0712891-.2900391.2099609-.4033203.246582-.2011719.6103516-.1650391.8120117.0810547.1132812.1386719.1303711.2529297.1289062.4091797Zm14.8022461,2.5644531c-.6464844.5292969-5.0126953,1.0693359-5.984375,1.1708984-.1855469,1.4375-.5463867,3.3525391-1.3623047,4.5859375-.0336914.0537109-.0644531.0791016-.1103516.1162109-.246582.2021484-.5952148.1533203-.796875-.0927734-.1762695-.2158203-.1513672-.4677734-.0166016-.6806641.6796875-1.1484375.9414062-2.4941406,1.1132812-3.7910156-.6860352.0722656-1.3691406.1171875-2.0371094.1494141-.2421875.0185547-.4995117.0498047-.7392578.0400391-.1831055-.0039062-.3330078-.0615234-.4589844-.2158203-.2016602-.2460938-.152832-.5947266.0932617-.796875.1079102-.0878906.2099609-.1201172.3530273-.1337891.3134766-.0253906.6396484-.0351562.9658203-.0449219.6552734-.0478516,1.2978516-.1113281,1.9555664-.1875.121582-1.359375.1464844-2.7421875-.0175781-4.0732422-.9086914.7431641-1.7792969,1.5332031-2.637207,2.3388672-.5288086.484375-1.0888672.9941406-1.5419922,1.5703125-.0185547.0410156-.0644531.0791016-.0952148.1035156-.246582.2021484-.6230469.1503906-.824707-.0957031-.1762695-.2158203-.1484375-.4960938.0009766-.7207031.2172852-.3320312.5585938-.6376953.8383789-.8925781,1.0693359-1.0810547,2.2045898-2.1132812,3.359375-3.0585938.3076172-.2519531.6645508-.5693359,1.0078125-.7480469.253418-.1298828.5639648-.1269531.7529297.1035156.0629883.0771484.0952148.1796875.1147461.2666016.3588867,1.5058594.3383789,3.5537109.2128906,5.0966797,1.5610352-.1972656,3.8178711-.4248047,5.2719727-.9726562.2353516-.0898438.4873047-.0644531.6635742.1513672.2016602.2460938.1655273.6103516-.0810547.8115234Z"/>
        <path class="cls-2" d="m46.4585729,12.9474311c.1035156.9257812-1.2109375,5.4404297-1.5522461,6.453125-.2338867.6933594-.5029297,1.4042969-.8168945,2.0703125.4350586.2509766.8793945.4746094,1.3320312.7167969.3642578.1962891.7636719.3759766,1.1367188.5908203.1245117.0712891.1953125.125.2573242.25.1499023.3027344.0332031.6494141-.2700195.7998047-.1958008.0966797-.355957.0869141-.5512695.0068359-.3730469-.1708984-.7548828-.4033203-1.1191406-.5996094l-3.2412109-1.7021484c-.3994141-.2236328-1.1098633-.5371094-1.4736328-.8232422-.0800781-.0712891-.1508789-.125-.1948242-.2138672-.1416016-.2851562-.015625-.6582031.2871094-.8085938.2319336-.1152344.3916016-.0615234.6049805.0556641.7099609.4023438,1.4384766.7958984,2.184082,1.1816406.9140625-1.9628906,1.7436523-5.0830078,2.1420898-7.234375-1.4599609.3242188-2.9926758,1.0839844-4.3291016,1.7470703-1.3725586.6796875-3.8232422,1.9609375-4.8945312,3.0253906-.0444336.0439453-.1069336.0976562-.1606445.1240234-.3027344.1503906-.6582031.015625-.8085938-.2880859-.1147461-.2314453-.0693359-.453125.1000977-.6484375.7954102-.9492188,4.128418-2.7353516,5.2866211-3.3095703,1.0874023-.5380859,4.3129883-2.0488281,5.5131836-1.9111328.2314453.0185547.4091797.1083984.5151367.3222656.0351562.0712891.0439453.1337891.0527344.1953125Z"/>
        <path class="cls-2" d="m67.1909947,7.0509468c-.1079102.9257812-2.4067383,5.0302734-2.9682617,5.9404297-.3837891.6230469-.8066406,1.2548828-1.2626953,1.8330078.3676758.3427734.75.6611328,1.1367188.9990234.3105469.2734375.659668.5390625.9746094.8320312.1049805.0976562.1621094.1660156.1943359.3017578.078125.3291016-.1137695.640625-.4428711.71875-.2133789.0507812-.3671875.0048828-.5395508-.1171875-.3251953-.2509766-.6445312-.5634766-.9550781-.8369141l-2.7758789-2.3896484c-.3388672-.3085938-.9604492-.7744141-1.2509766-1.1347656-.0615234-.0878906-.1186523-.15625-.1416016-.2529297-.0732422-.3095703.1333008-.6455078.4624023-.7236328.2519531-.0595703.3955078.0292969.5771484.1904297.6015625.5527344,1.222168,1.1015625,1.862793,1.6445312,1.3334961-1.7070312,2.8447266-4.5605469,3.71875-6.5673828-1.4960938-.0136719-3.1616211.3818359-4.6137695.7255859-1.4907227.3535156-4.168457,1.0507812-5.4526367,1.8457031-.0537109.0332031-.1264648.0712891-.1845703.0849609-.3291016.078125-.6450195-.1337891-.7231445-.4628906-.0595703-.2519531.034668-.4580078.2441406-.6103516.9887695-.7451172,4.6401367-1.734375,5.8989258-2.0332031,1.1811523-.2792969,4.6655273-1.0244141,5.8046875-.6201172.2211914.0703125.3740234.1982422.4291992.4306641.0180664.0771484.0126953.1396484.0073242.2021484Z"/>
        <path class="cls-2" d="m78.5581822,6.4278999c-.9633789,1.9658203-1.5336914,4.8808594-1.4985352,7.0693359.0068359.4179688.0332031.8154297.1191406,1.2119141.1782227-.0625.3349609-.2041016.5341797-.2070312.3183594-.0058594.6010742.2685547.6069336.6064453.0029297.1992188-.09375.3603516-.2509766.4824219-.2358398.1826172-.9677734.4726562-1.246582.4775391-.2583008.0039062-.4594727-.1318359-.5625-.3496094-.2880859-.5722656-.3642578-1.5859375-.3745117-2.2226562-.0327148-2.0498047.5825195-5.8603516,1.6083984-7.6484375.1166992-.1806641.2939453-.3037109.5126953-.3066406.3383789-.0058594.6210938.2685547.6264648.5869141.0019531.1191406-.0366211.1992188-.074707.2998047Zm9.2563477,7.5332031c-.8754883.0136719-3.8173828-2.2470703-3.8325195-3.1630859-.0048828-.3183594.2495117-.5810547.5878906-.5859375.2387695-.0039062.4199219.1123047.5424805.3095703.5317383.8867188,1.921875,1.9394531,2.8828125,2.2822266.2402344.0957031.402832.2919922.4067383.5507812.0053711.3378906-.269043.6015625-.5874023.6064453Zm.2124023-6.5917969c-.3383789.0058594-.6015625-.2685547-.6064453-.5869141-.0014648-.0996094.0170898-.1796875.0556641-.2597656-.300293-.0947266-.7783203-.1064453-1.0966797-.1015625-.4775391.0078125-.9541016.0546875-1.409668.2021484-.059082.0205078-.1186523.0410156-.1982422.0429688-.3183594.0048828-.6015625-.2695312-.6069336-.6074219-.0039062-.2587891.1713867-.4804688.4086914-.5634766.5146484-.1875,1.309082-.2802734,1.8466797-.2890625.8154297-.0126953,2.3105469.1220703,2.328125,1.2167969.0063477.3974609-.2636719.9394531-.7211914.9462891Z"/>
        <path class="cls-2" d="m100.960526,7.3605171c-.1005859.3642578-.2407227.7207031-.3413086,1.0859375-.0043945.0185547-.0131836.0576172.0019531.0810547-.0170898.078125-.0385742.1748047-.109375.2207031-.1787109.3476562-.2880859.7509766-.7739258.6445312-.2524414-.0566406-.4428711-.3017578-.40625-.5585938-1.0229492-.1650391-2.0458984-.3291016-3.0859375-.4160156-.4248047,1.7392578-.8256836,3.4638672-1.2119141,5.2119141-.184082.8349609-.3642578,1.6513672-.5292969,2.4902344-.0986328.4472656-.2207031.9091797-.2612305,1.3681641l-.0170898.078125c-.0644531.2910156-.3530273.4921875-.6445312.4277344-.2915039-.0634766-.4277344-.2773438-.4453125-.5664062-.0200195-.3710938.5869141-3.0283203.6938477-3.5136719.5488281-2.4863281,1.1411133-4.9833984,1.7871094-7.4482422.2338867-.9667969.4868164-1.9296875.7749023-2.8642578.1137695-.4228516.2314453-.8652344.3994141-1.2558594.0986328-.2636719.3510742-.3916016.6230469-.3310547.2329102.0507812.3779297.2255859.4321289.4414062.6777344.0683594,1.3618164.1982422,2.0415039.3486328.3691406.0810547,1.4135742.3320312,1.7182617.5214844.3198242.2138672.3110352.4355469.2382812.765625-.2441406,1.1074219-.546875,2.2021484-.8842773,3.2685547Zm-1.1362305-.9433594c-.9472656-.2294922-1.9511719-.390625-2.9477539-.4882812-.1269531.4814453-.2490234.9433594-.3564453,1.4287109,1.0595703.0917969,2.121582.2646484,3.1635742.4335938l.4125977-1.3144531-.2719727-.0595703Zm6.8549805,6.1367188c-.4858398-.1074219-.9907227-.21875-1.480957-.3066406l-.0727539.3310547c-.3598633,1.6308594-.7592773,3.2539062-1.1967773,4.8691406-.2490234.9433594-.5151367,1.9638672-.9155273,2.8535156-.1137695.2392578-.3510742.390625-.6230469.3310547-.2910156-.0644531-.487793-.3730469-.4238281-.6640625l.0214844-.0976562c.2709961-.6728516.487793-1.3789062.7006836-2.0654297-1.1264648-.0654297-2.2680664-.1542969-3.4052734-.2626953-.6582031-.0634766-1.3486328-.0732422-2.0087891-.2197266l-.0585938-.0126953c-.2714844-.0595703-.4770508-.3291016-.4169922-.6015625.0683594-.3105469.2905273-.4853516.6142578-.4755859.4057617.0087891.8330078.1025391,1.2495117.1542969.1176758-.6259766.2592773-1.2675781.3964844-1.8886719.2402344-1.0878906.4799805-2.1757812.7783203-3.2509766-.6064453-.1132812-1.2060547-.1640625-1.7973633-.2539062l-.0776367-.0166016c-.2915039-.0644531-.4731445-.3496094-.4086914-.640625.0639648-.2910156.2817383-.4472656.5668945-.4453125.3232422.0107422.6538086.0830078.9492188.1279297.7314453.1005859,1.4545898.2402344,2.1625977.3554688,1.8579102.3486328,3.7207031.6787109,5.565918,1.0859375.3496094.0771484.6303711.28125.5405273.6894531-.0644531.2910156-.3686523.46875-.659668.4042969Zm-6.9296875-8.6591797c-.71875-.1582031-1.4609375-.3017578-2.2011719-.3632812l-.3735352,1.3222656c1.0703125.1347656,2.1708984.3164062,3.215332.5673828.1137695-.4228516.2275391-.8457031.3222656-1.2734375-.3217773-.1113281-.6328125-.1796875-.9628906-.2529297Zm.2451172,11.4414062c-.0859375.3886719-.1479492.7617188-.2338867,1.1503906,1.0791016.0957031,2.1582031.1914062,3.2260742.2431641l.2358398-.8847656c-1.0722656-.2158203-2.1577148-.3740234-3.2280273-.5087891Zm3.449707-1.4179688c-1.0053711-.2421875-2.0175781-.3642578-3.0209961-.5244141l-.1889648.8544922c1.0854492.1582031,2.1708984.3164062,3.2436523.5332031.0708008-.2294922.1225586-.4619141.1738281-.6953125l.0258789-.1162109-.2333984-.0517578Zm.6816406-1.8867188c-1.0727539-.2167969-2.1303711-.4091797-3.2070312-.6064453l-.2407227.9042969c1.0898438.1386719,2.1904297.3212891,3.2548828.5761719l.1928711-.8740234Zm7.3764648-4.6259766c-.6474609,2.9335938-1.3378906,5.8769531-2.0825195,8.7890625-.2744141,1.0595703-.5493164,2.1191406-.862793,3.1708984-.1914062.5888672-.3671875,1.2021484-.6362305,1.7744141-.1137695.2392578-.3662109.3671875-.6186523.3115234-.5048828-.1113281-1.3989258-.6757812-1.762207-1.0615234-.1293945-.1503906-.1967773-.3085938-.1538086-.5019531.0644531-.2919922.3486328-.4736328.6401367-.4091797.1166992.0253906.1855469.0820312.2700195.1611328.2568359.2197266.5185547.4199219.831543.5712891.4536133-1.2246094.7797852-2.5175781,1.1166992-3.7666016.4526367-1.7744141.8818359-3.5332031,1.2910156-5.296875l-.5244141-.1162109c-1.0874023-.2392578-2.2036133-.4453125-3.2973633-.5644531-.0668945.0263672-.105957.0175781-.1835938,0-.2915039-.0644531-.4384766-.3203125-.4169922-.6015625.0209961-.4638672.1708984-.9599609.2739258-1.4257812.2099609-.9521484.8300781-3.6669922,1.2475586-4.4511719.109375-.2197266.3466797-.3710938.5991211-.3154297.2915039.0644531.5078125.3769531.4433594.6679688-.0087891.0390625-.0322266.0537109-.0410156.0927734-.3354492.78125-.543457,1.6318359-.762207,2.4394531,1.1674805.1552734,2.3457031.3544922,3.4790039.6660156l.0810547-.3691406.2231445-1.0097656c-.3452148-.0966797-.4770508-.1464844-.8266602-.2236328-.5244141-.1162109-1.2709961-.2402344-1.8041992-.3164062l.1552734.0341797c-.2954102-.0449219-.4921875-.3535156-.4238281-.6640625.0600586-.2724609.2973633-.4238281.5820312-.421875.5263672.0146484,1.1049805.1621094,1.6293945.2783203.4077148.0898438,1.2387695.2939453,1.5820312.4921875.2163086.1289062.3286133.3574219.2729492.6103516l-.1928711.8740234-.1289062.5820312Zm-2.1582031,1.0107422c-.8935547-.1972656-1.8149414-.359375-2.7255859-.4794922-.0556641.2529297-.1269531.4814453-.1826172.734375l-.0429688.1943359c-.0385742.1748047-.0620117.3730469-.1044922.5673828,1.1674805.1552734,2.3457031.3544922,3.4829102.6464844.1074219-.4853516.21875-.9902344.3457031-1.4716797-.2485352-.0751953-.5009766-.1308594-.7729492-.1914062Z"/>
        <path class="cls-2" d="m119.2793736,19.9737983c-.6289062.1630859-2.0639648.0302734-2.6386719-.2441406-.7724609-.3681641-.8666992-2.0654297-.9067383-2.7675781-.0498047-.7734375-.0498047-3.1318359.2666016-3.796875.137207-.2871094.5083008-.4189453.7958984-.28125.269043.1279297.3813477.4023438.3330078.6875-.0639648.3662109-.128418.7324219-.1748047,1.1064453-.0644531.8291016-.0893555,3.2861328.2714844,4.0087891.5019531.1953125,1.284668.171875,1.8173828.1171875.1420898-.0205078.2490234-.0136719.375.0458984.3051758.1455078.4189453.5087891.2817383.7958984-.0854492.1796875-.2260742.2890625-.4208984.328125Zm9.1054688,2.4443359c-.2875977-.1367188-.4106445-.5263672-.2734375-.8134766.0424805-.0898438.0947266-.1533203.1650391-.2080078.3242188-.2636719.5493164-.5976562.7290039-.9746094.1884766-.3945312.4335938-1.09375.3007812-1.5097656-.0561523-.1591797-.050293-.3105469.0268555-.4716797.1367188-.2871094.4995117-.4013672.7871094-.2646484.8081055.3857422.2368164,2.1855469-.0371094,2.7597656-.230957.4853516-1.0161133,1.8076172-1.6982422,1.4824219Z"/>
        <path class="cls-2" d="m143.4546666,26.5099311c-.9648438-.3837891-1.9311523-1.0234375-2.7827148-1.6474609-2.2514648.9833984-7.2114258,3.6533203-8.6948242,5.5253906-.2099609.2646484-.2895508.5576172-.425293.7285156-.1977539.25-.6049805.2822266-.8544922.0849609-.5146484-.4082031.0351562-1.1660156.3320312-1.5400391,1.5942383-2.0117188,6.1201172-4.5185547,8.5981445-5.6269531-.4433594-.4013672-.9423828-.796875-1.3481445-1.2460938-.2124023-.2441406-.2324219-.5390625-.034668-.7890625.1977539-.2490234.5703125-.3349609.8227539-.109375l.0625.0498047c.5708008.5283203,1.1298828,1.0732422,1.737793,1.5546875.3261719-.1220703.6889648-.2919922,1.0209961-.3583984.1801758-.0351562.3540039.0009766.5102539.125.2495117.1972656.3071289.5732422.109375.8232422-.1235352.1552734-.2973633.2470703-.4804688.2539062.6015625.4257812,1.2338867.7490234,1.894043,1.0693359.059082.0214844.090332.0458984.137207.0830078.2651367.2109375.3071289.5742188.097168.8388672-.1728516.21875-.4492188.2783203-.7016602.1806641Zm-2.621582,11.8613281c-.7485352-.59375-2.2265625-2.3486328-2.5131836-3.2363281-.0664062-.2050781-.0454102-.3916016.078125-.546875.2099609-.265625.5981445-.3388672.8632812-.1289062.109375.0869141.1469727.1679688.1879883.2763672.4082031.9580078,1.3950195,2.0195312,2.1567383,2.7246094.2680664.2382812.2915039.5615234.0688477.8417969-.2099609.265625-.5922852.2666016-.8417969.0693359Zm4.3452148-5.2900391c-.0625-.0498047-.1123047-.1152344-.1621094-.1796875-.1376953-.2109375-.315918-.4023438-.5185547-.5634766-.7016602-.5566406-1.6391602-.9433594-2.5009766-1.1699219-.0869141-.0175781-.1616211-.0517578-.2397461-.1132812-.2651367-.2099609-.3227539-.5859375-.112793-.8515625.1484375-.1865234.3813477-.2558594.5991211-.2109375.9267578.1767578,2.2348633.8320312,2.9677734,1.4130859.4057617.3212891,1.2231445,1.0205078.777832,1.5820312-.1977539.2490234-.5610352.2910156-.8105469.09375Z"/>
        <path class="cls-2" d="m148.4507604,49.3331733c-.5356445-.6679688.9604492-1.7910156,1.8139648-2.4765625.2485352-.1992188.6396484-.15625.8388672.0927734.6352539.7910156-1.1630859,1.4433594-1.6835938,2.3203125-.0341797.0527344-.0839844.1181641-.1459961.1679688-.2636719.2109375-.6118164.1591797-.8232422-.1044922Zm11.8535156-8.8476562c-2.2568359,1.6064453-4.6713867,3.3652344-6.8442383,5.1083984-.2324219.1865234-.6396484.15625-.8388672-.0917969-.3735352-.4658203.0332031-.8173828.3745117-1.0917969,1.4277344-1.1455078,2.8896484-2.2158203,4.3544922-3.3154297.6489258-.4941406,1.6357422-1.2353516,2.315918-1.6279297.2573242-.1552734.5776367-.1064453.7768555.1416016.2241211.2792969.171875.6279297-.0922852.8388672l-.0463867.0380859Z"/>
      </g>
      <g>
        <path class="cls-2" d="m46.5366979,59.0050483c-.7338867,1.1992188-1.5400391,2.2460938-2.4204102,3.1396484l-.2597656-.2001953c1.1064453-1.5996094,2.1064453-3.5732422,3-5.9199219.2529297-.6396484.4863281-1.3759766.7001953-2.2099609.2128906-.8330078.3398438-1.5166016.3798828-2.0498047,1.3466797.4267578,2.0200195.7333984,2.0200195.9199219,0,.0537109-.0600586.0996094-.1801758.1396484l-.3598633.1201172c-.4799805,1.4003906-1.09375,2.8203125-1.840332,4.2597656.4404297.3476562.6601562.59375.6601562.7402344,0,.0673828-.0600586.1337891-.1796875.2001953l-.2802734.1396484v6.7001953c.0263672,1.6533203.0800781,3.2197266.1601562,4.7001953-.1069336.1328125-.2700195.2568359-.4902344.3701172-.2197266.1132812-.4433594.1699219-.6699219.1699219-.1201172,0-.2270508-.0400391-.3198242-.1201172-.09375-.0800781-.1401367-.1738281-.1401367-.2802734.0532227-.7861328.1000977-1.5498047.1401367-2.2900391.0400391-.7392578.0664062-1.7099609.0800781-2.9091797v-5.6201172Zm12.8598633-3.1601562c.0400391-.0537109.1064453-.1435547.199707-.2705078.0932617-.1259766.1801758-.1894531.2602539-.1894531s.2431641.0927734.4897461.2802734c.246582.1865234.4731445.3867188.6801758.5996094.206543.2128906.3100586.3671875.3100586.4599609-.0668945.0800781-.1699219.1601562-.3100586.2402344s-.3032227.1396484-.4897461.1796875v1.9599609c.0395508,1.6533203.0864258,2.9267578.1396484,3.8203125-.0800781.1201172-.253418.2402344-.5200195.359375-.2666016.1201172-.4931641.1806641-.6796875.1806641h-.1801758v-.6601562h-3.5800781c-.0800781.7998047-.2133789,1.5166016-.3999023,2.1494141-.1870117.6337891-.4599609,1.2109375-.8198242,1.7304688,1.8398438,1.2001953,4.3061523,1.8535156,7.3999023,1.9599609v.2197266c-.2802734.0800781-.5170898.2333984-.7099609.4599609-.1933594.2265625-.3168945.5068359-.3701172.8408203-1.5332031-.2001953-2.8666992-.5234375-4-.9707031-1.1333008-.4462891-2.0932617-1.0498047-2.8798828-1.8095703-.5869141.6269531-1.340332,1.1728516-2.2602539,1.6396484s-2.0600586.8671875-3.4199219,1.2001953l-.1801758-.2998047c1.293457-.4541016,2.3569336-.9472656,3.1904297-1.4804688.8330078-.5332031,1.4897461-1.1328125,1.9697266-1.7998047-.5200195-.6269531-.9667969-1.3662109-1.3398438-2.2197266-.5200195.7333984-.9599609,1.3193359-1.3203125,1.7597656.0268555.0400391.0400391.0996094.0400391.1796875,0,.1337891-.046875.2333984-.1396484.3007812l-.8203125-1.1601562c.9599609-.6533203,1.6733398-1.1806641,2.1401367-1.5800781l.2402344-.7402344.6196289.3398438-.5600586.5800781c.4404297.7470703.9467773,1.3798828,1.5200195,1.9003906.4667969-.8671875.753418-1.9335938.8603516-3.2001953h-3.340332v.4199219c0,.0664062-.1132812.1533203-.3398438.2597656-.2270508.1074219-.4536133.1601562-.6801758.1601562-.0932617,0-.1699219-.0400391-.2299805-.1201172s-.0898438-.1728516-.0898438-.2802734c.0532227-.5859375.0932617-1.3398438.1201172-2.2597656v-1.3398438c0-1.6796875-.0869141-3.0400391-.2602539-4.0800781l1.5800781.7402344h3.2802734v-2.1201172h-1.6801758c-.9467773.0136719-1.9467773.1064453-3,.2802734l-.5200195-1.0205078c.7329102.0800781,1.6201172.1337891,2.6601562.1601562h7.1396484l.4204102-.5996094c.0395508-.0664062.1030273-.1572266.1899414-.2705078.0864258-.1132812.15625-.2001953.2099609-.2597656.0532227-.0595703.1064453-.0898438.159668-.0898438.0800781,0,.253418.1035156.5200195.3095703.2666016.2070312.5166016.4306641.75.6699219.2333984.2402344.3500977.4072266.3500977.5-.0131836.2138672-.1733398.3203125-.4799805.3203125h-5.4599609v2.1201172h3.3198242l.300293-.4599609Zm-4.8798828,3.3798828v-2.3398438h-3.3803711v2.3398438h3.3803711Zm-.0200195,2.9794922c.0131836-.1992188.0200195-.5126953.0200195-.9394531v-1.4804688h-3.3803711v2.4199219h3.3603516Zm1.2797852-.9794922c0,.4404297-.0068359.7666016-.0200195.9794922h3.5400391v-2.4199219h-3.5200195v1.4404297Zm3.5200195-2v-2.3398438h-3.5200195v2.3398438h3.5200195Z"/>
        <path class="cls-2" d="m68.9966588,60.9650093c-1.2402344,2.359375-2.9072266,4.3535156-5,5.9794922l-.2402344-.2792969c1.0131836-1.0136719,1.9331055-2.2236328,2.7602539-3.6308594.8261719-1.40625,1.5-2.8564453,2.0200195-4.3496094h-1.3803711c-.7998047.0136719-1.6269531.1064453-2.4799805.2802734l-.5-1.0205078c.7333984.0800781,1.6201172.1337891,2.6601562.1601562h2.1601562v-3.6396484c-1.5336914.3066406-3.0600586.5332031-4.5800781.6796875l-.0800781-.3603516c1.6665039-.3330078,3.3066406-.7998047,4.9199219-1.3994141,1.3466797-.5068359,2.4399414-1.0800781,3.2802734-1.7197266.9462891.9462891,1.4199219,1.5068359,1.4199219,1.6796875,0,.09375-.1000977.1269531-.300293.0996094l-.5-.0595703c-.7597656.2666016-1.7333984.5400391-2.9199219.8193359v3.9003906h1.9399414l.3999023-.5996094c.0400391-.0537109.1000977-.1367188.1801758-.25s.1499023-.2001953.2099609-.2607422c.0600586-.0595703.1166992-.0898438.1699219-.0898438.0800781,0,.25.1035156.5102539.3105469.2597656.2070312.5.4267578.7197266.6601562.2202148.2333984.3300781.3964844.3300781.4892578-.0532227.2138672-.2197266.3203125-.5.3203125h-3.9599609v1.4599609c1.253418.5595703,2.1699219,1.1738281,2.75,1.8398438.5800781.6669922.8701172,1.2597656.8701172,1.7802734,0,.2265625-.0498047.4072266-.1499023.5400391-.1000977.1337891-.2368164.2001953-.4101562.2001953-.1601562,0-.3266602-.0664062-.5-.2001953-.1469727-.5605469-.4633789-1.1796875-.9501953-1.8603516-.4868164-.6796875-1.0234375-1.3125-1.6098633-1.8994141v4.4394531c.0268555,1.6533203.0800781,3.2197266.1601562,4.7001953-.09375.1328125-.2470703.2568359-.4599609.3701172-.2133789.1132812-.4536133.1699219-.7202148.1699219-.1069336,0-.206543-.0400391-.2998047-.1201172-.09375-.0800781-.1401367-.1738281-.1401367-.2802734.0532227-.7861328.1000977-1.5498047.1401367-2.2900391.0400391-.7392578.0664062-1.7099609.0800781-2.9091797v-3.6601562Zm6.3198242-3.3398438c0-1.6806641-.0869141-3.046875-.2597656-4.1005859.7460938.2138672,1.2626953.3837891,1.5498047.5097656.2866211.1269531.4301758.2373047.4301758.3300781,0,.0673828-.0600586.1337891-.1801758.2001953l-.3398438.2197266v6.1601562c.0263672,1.6533203.0795898,3.2207031.159668,4.7001953-.0800781.1464844-.2333984.2773438-.4599609.3896484-.2265625.1142578-.453125.1699219-.6796875.1699219-.1069336,0-.1972656-.0390625-.2700195-.1191406-.0737305-.0800781-.1103516-.1738281-.1103516-.2802734.0800781-1.2666016.1333008-2.5263672.1601562-3.7802734v-4.3994141Zm4.1401367-1.3408203c0-1.6796875-.0869141-3.0458984-.2602539-4.0996094.7602539.2265625,1.2866211.4033203,1.5800781.5302734.2929688.1269531.4399414.2363281.4399414.3300781,0,.0664062-.0600586.1328125-.1796875.1992188l-.340332.2001953v14.7998047c0,.4140625-.0498047.7470703-.1499023,1-.1000977.2539062-.296875.4599609-.5898438.6201172-.293457.1601562-.7333984.2734375-1.3203125.3398438-.0932617-.4667969-.2333984-.7861328-.4199219-.9599609-.3334961-.2265625-.9199219-.40625-1.7597656-.5400391v-.2998047c1.4130859.1201172,2.246582.1806641,2.5.1806641.1865234,0,.3164062-.0371094.3896484-.1103516s.1103516-.1904297.1103516-.3496094v-11.8408203Z"/>
        <path class="cls-2" d="m86.5567174,56.2247749c-.7202148.0136719-1.4672852.1064453-2.2402344.2802734l-.5200195-1c.7329102.0800781,1.6201172.1328125,2.6601562.1601562h3.199707l.3603516-.5400391c.0400391-.0537109.0961914-.1308594.1699219-.2304688.0732422-.0996094.1362305-.1767578.1899414-.2294922.0532227-.0537109.1064453-.0800781.1601562-.0800781.0795898,0,.2426758.0927734.4897461.2792969.246582.1875.4731445.3867188.6801758.6005859.206543.2128906.3100586.3662109.3100586.4599609-.0537109.2001953-.2202148.2998047-.5.2998047h-4.9599609Zm2.5195312,1.4794922c.0400391-.0527344.0932617-.1259766.1601562-.2197266.0664062-.0927734.1230469-.1630859.1699219-.2099609s.0966797-.0703125.1503906-.0703125c.1328125,0,.3930664.1738281.7797852.5205078s.5800781.59375.5800781.7402344c-.0537109.2128906-.2202148.3193359-.5.3193359h-2.2602539c-.9467773.0136719-1.9467773.1074219-3,.2802734l-.5-1.0400391c.7333984.0800781,1.6201172.1337891,2.6601562.1601562h1.4399414l.3198242-.4804688Zm-.0395508,2.5400391c.0263672-.0400391.0727539-.1123047.1396484-.2197266.0668945-.1064453.1264648-.1826172.1801758-.2294922.0532227-.046875.1064453-.0703125.1601562-.0703125.1328125,0,.3930664.1796875.7797852.5400391s.5800781.6132812.5800781.7597656c-.0400391.2001953-.1933594.2998047-.4599609.2998047h-2.2602539c-.9467773.0136719-1.9467773.1074219-3,.2802734l-.5-1.0195312c.7333984.0800781,1.6201172.1328125,2.6601562.1591797h1.3798828l.340332-.5Zm.3398438,2.5605469c.0263672-.0400391.0698242-.1035156.1298828-.1904297.0600586-.0859375.1132812-.1494141.1601562-.1894531.0463867-.0400391.0966797-.0605469.1499023-.0605469.0800781,0,.2402344.0898438.4799805.2705078.2402344.1796875.4599609.3769531.6601562.5898438.199707.2138672.2998047.3671875.2998047.4599609-.0532227.0800781-.1533203.1572266-.2998047.2304688-.1469727.0732422-.3134766.1298828-.5.1699219v1.6191406c.0263672,1.3076172.0664062,2.3408203.1196289,3.1005859-.0664062.1064453-.2231445.2197266-.4697266.3398438-.2470703.1201172-.4702148.1796875-.6699219.1796875-.0800781,0-.1435547-.0400391-.1899414-.1201172-.046875-.0791016-.0703125-.1728516-.0703125-.2792969l.0800781-.3203125v-.3798828h-3.199707v.4599609c.0395508.4667969.0664062.7333984.0795898.7998047-.0400391.1201172-.1699219.2363281-.3896484.3505859-.2202148.1123047-.4501953.1699219-.6899414.1699219-.0800781,0-.1469727-.0400391-.2001953-.1201172-.0537109-.0800781-.0800781-.1738281-.0800781-.2802734.0532227-.546875.0932617-1.2265625.1201172-2.0400391v-1.2402344c0-1.5058594-.0800781-2.7597656-.2402344-3.7597656l1.5.6796875h2.9199219l.300293-.4394531Zm-.2802734-10.1396484c.0532227-.0673828.1069336-.140625.1601562-.2207031s.1098633-.1533203.1699219-.2197266.1166992-.0996094.1699219-.0996094c.0800781,0,.2402344.0927734.4799805.2792969.2402344.1875.4633789.3867188.6704102.6005859.206543.2128906.3100586.3662109.3100586.4599609-.0400391.2128906-.2070312.3193359-.5.3193359h-2.3203125c-.9467773.0136719-1.9467773.1074219-3,.2802734l-.5-1.0400391c.7333984.0800781,1.6201172.1337891,2.6601562.1601562h1.3398438l.3598633-.5195312Zm-3.0395508,11.1796875v3.8203125h3.199707v-3.8203125h-3.199707Zm15.8999023,5.0595703l-.0400391.2207031c-.2802734.0400391-.5268555.15625-.7402344.3496094s-.3666992.4501953-.4599609.7695312c-1.9731445-.7333984-3.5800781-1.7529297-4.8198242-3.0595703-1.5737305,1.3466797-3.5400391,2.3662109-5.8999023,3.0595703l-.1601562-.2998047c2.1865234-.8535156,3.9931641-2.0195312,5.4199219-3.5-1.0400391-1.3330078-1.8066406-3.0058594-2.2998047-5.0195312h-.5c-.2270508.0136719-.4667969.1064453-.7202148.2792969l-.5400391-1c.7333984.0800781,1.6201172.1337891,2.6601562.1601562h4.3798828l.3598633-.3994141c.0400391-.0400391.1166992-.1201172.2299805-.2402344s.2104492-.1796875.2900391-.1796875c.1201172,0,.3735352.1796875.7602539.5400391.3867188.359375.5800781.6132812.5800781.7597656-.0800781.09375-.1772461.15625-.2900391.1894531-.1137695.0341797-.2768555.0634766-.4902344.0908203-.7333984,1.90625-1.7197266,3.4931641-2.9599609,4.7597656,1.3999023,1.1464844,3.1464844,1.9863281,5.2402344,2.5195312Zm-4.6801758-16.4199219c.0263672-.0400391.0698242-.1025391.1298828-.1894531s.1132812-.1503906.1601562-.1904297c.0463867-.0400391.0966797-.0595703.1499023-.0595703.1201172,0,.3598633.1865234.7202148.5595703.3598633.3730469.5400391.6337891.5400391.7802734-.1469727.1601562-.3603516.2597656-.6401367.2998047v4.1396484c0,.1074219.0229492.1767578.0698242.2099609.046875.0341797.1567383.0507812.3300781.0507812h.8398438c.4267578,0,.6733398-.0068359.7402344-.0205078.0800781-.0126953.1367188-.0302734.1699219-.0498047.0332031-.0205078.0703125-.0703125.1098633-.1503906.0532227-.1464844.1669922-.6796875.340332-1.5996094l.159668-.7998047h.2402344l.0600586,2.4394531c.1601562.0800781.2666016.1601562.3198242.2402344s.0800781.1796875.0800781.2998047c0,.2802734-.1669922.4833984-.5.6103516-.3334961.1269531-.9267578.1894531-1.7797852.1894531h-1.1201172c-.5068359,0-.84375-.0830078-1.0102539-.25-.1665039-.1660156-.25-.4697266-.25-.9091797v-4.5800781h-2.9199219v1.1201172c0,1.1328125-.1967773,2.1894531-.5898438,3.1699219-.3935547.9794922-1.2036133,1.8095703-2.4301758,2.4892578l-.199707-.2597656c.8129883-.7460938,1.3564453-1.5595703,1.6298828-2.4394531.2729492-.8808594.4101562-1.8671875.4101562-2.9599609v-1.1806641c0-.4794922-.0200195-.90625-.0600586-1.2792969l1.5.7597656h2.5l.2998047-.4404297Zm-3.8999023,8.9404297c.5200195,1.6533203,1.3730469,3.0732422,2.5600586,4.2597656,1.0263672-1.2666016,1.7998047-2.6865234,2.3198242-4.2597656h-4.8798828Z"/>
        <path class="cls-2" d="m106.2163854,59.2443061c-.6796875,1.1738281-1.3535156,2.1669922-2.0200195,2.9804688l-.2597656-.1796875c.9331055-1.6269531,1.7729492-3.6132812,2.5200195-5.9599609.2128906-.640625.40625-1.3837891.5800781-2.2304688.1728516-.8466797.2661133-1.5429688.2797852-2.0898438,1.3598633.4130859,2.0400391.7070312,2.0400391.8798828,0,.0673828-.0600586.1201172-.1801758.1601562l-.3598633.1396484c-.4135742,1.4003906-.9467773,2.8271484-1.6000977,4.2802734.4399414.3466797.6601562.59375.6601562.7402344,0,.0927734-.0600586.1601562-.1801758.2001953l-.2998047.1191406v6.7207031c.0263672,1.6533203.0800781,3.2197266.1601562,4.6992188-.1069336.1201172-.2670898.2373047-.4804688.3505859s-.4267578.1699219-.6396484.1699219c-.1069336,0-.2070312-.0400391-.300293-.1201172s-.1396484-.1738281-.1396484-.2802734c.0527344-.7861328.0996094-1.5498047.1396484-2.2900391.0400391-.7392578.0668945-1.7099609.0800781-2.9091797v-5.3808594Zm4.2402344,1.7001953c0,1.2138672-.043457,2.3271484-.1303711,3.3398438-.0864258,1.0136719-.2929688,2.0507812-.6196289,3.1103516-.3271484,1.0595703-.8168945,2.0029297-1.4702148,2.8300781l-.2998047-.2197266c.5864258-1.2275391.9628906-2.5566406,1.1298828-3.9902344.1665039-1.4335938.25-3.1230469.25-5.0703125v-2.1601562c0-.9199219-.046875-1.6660156-.1401367-2.2392578l1.5.7597656h8.5l.3803711-.5800781c.0527344-.0664062.1098633-.1464844.1699219-.2402344.0600586-.0927734.1230469-.1728516.1899414-.2402344.0664062-.0664062.1264648-.0996094.1796875-.0996094.0800781,0,.253418.0996094.5200195.2998047s.5131836.4140625.7402344.640625c.2265625.2265625.3398438.3867188.3398438.4794922-.0400391.2138672-.206543.3203125-.5.3203125h-10.7397461v3.0595703Zm9.2597656-7.1396484c.0532227-.0664062.1064453-.1396484.1601562-.2197266.0532227-.0800781.1098633-.1533203.1699219-.2207031.0600586-.0664062.1166992-.0996094.1699219-.0996094.0800781,0,.2402344.0898438.4799805.2695312.2402344.1806641.4633789.3769531.6699219.5908203.206543.2128906.3100586.3662109.3100586.4599609-.0400391.2128906-.199707.3193359-.4799805.3193359h-3.4399414v.4599609c.0400391.4941406.0664062.7675781.0800781.8203125-.0532227.1064453-.1699219.2070312-.3500977.2998047-.1796875.09375-.4169922.140625-.7099609.140625-.0932617,0-.1635742-.0400391-.2099609-.1201172-.046875-.0800781-.0698242-.1738281-.0698242-.2802734,0-.0263672.0263672-.2734375.0795898-.7402344v-.5800781h-2.8999023v.5c.0400391.5205078.0668945.8076172.0800781.8603516-.0400391.1201172-.1567383.2197266-.3500977.2998047s-.4233398.1201172-.6899414.1201172c-.0932617,0-.1635742-.0400391-.2099609-.1201172-.046875-.0800781-.0698242-.1728516-.0698242-.2802734,0-.0263672.0263672-.2861328.0800781-.7792969v-.6005859h-1.1000977c-.6401367.0136719-1.293457.1074219-1.9599609.2802734l-.4799805-1c.6665039.0800781,1.4663086.1337891,2.3999023.1601562h1.1401367c0-1.0800781-.0537109-1.9335938-.1601562-2.5605469.6801758.2001953,1.1533203.3642578,1.4199219.4902344.2666016.1269531.3999023.2373047.3999023.3300781,0,.0673828-.0600586.1337891-.1796875.2001953l-.3203125.2197266v1.3203125h2.8999023c0-1.0800781-.0532227-1.9335938-.159668-2.5605469,1.2128906.3603516,1.8198242.6337891,1.8198242.8203125,0,.0673828-.0532227.1337891-.1601562.2001953l-.3198242.2197266v1.3203125h1.6000977l.3598633-.5400391Zm-7.0400391,13.4199219l.0200195.7998047c.0131836.6005859.0400391,1.1533203.0800781,1.6601562-.0532227.1201172-.1835938.2363281-.3901367.3496094s-.4233398.1699219-.6499023.1699219c-.0932617,0-.1767578-.0390625-.25-.1191406s-.1098633-.1738281-.1098633-.2802734c.0932617-1.3466797.152832-2.8271484.1801758-4.4404297v-2.4199219c0-1.6796875-.0869141-3.0458984-.2602539-4.0996094l1.4799805.7001953h6.3198242l.2602539-.3798828c.0263672-.0400391.0664062-.0966797.1201172-.1708984.0527344-.0722656.0996094-.1298828.1396484-.1699219s.0869141-.0595703.1401367-.0595703c.0800781,0,.246582.0830078.5.25s.4868164.3466797.7001953.5400391c.2128906.1933594.3198242.3369141.3198242.4296875-.1333008.1738281-.4067383.3134766-.8198242.4199219v8.0400391c0,.3730469-.0371094.6738281-.1103516.9003906s-.2299805.4160156-.4697266.5703125c-.2402344.1523438-.6000977.2558594-1.0800781.3095703-.0268555-.2265625-.0634766-.4169922-.1098633-.5703125-.046875-.1533203-.1171875-.2695312-.2099609-.3496094-.1738281-.2138672-.546875-.3603516-1.1201172-.4404297v-.3398438c.8398438.0800781,1.3598633.1201172,1.5600586.1201172.1328125,0,.2265625-.0302734.2797852-.0898438.0532227-.0605469.0800781-.15625.0800781-.2900391v-2.3398438h-2.7597656v1.2197266l.0200195.7597656c.0126953.546875.0395508,1.0732422.0795898,1.5800781-.0668945.1201172-.1933594.2333984-.3798828.3398438-.1870117.1064453-.4135742.1601562-.6796875.1601562-.0800781,0-.1469727-.0400391-.2001953-.1201172-.0537109-.0800781-.0800781-.1728516-.0800781-.2792969.0532227-.6142578.0932617-1.3808594.1201172-2.3007812v-1.359375h-2.7202148v1.2998047Zm2.7202148-4.7998047v-2.2802734h-2.7202148v2.2802734h2.7202148Zm-2.7202148.5595703v2.3603516h2.7202148v-2.3603516h-2.7202148Zm3.840332-.5595703h2.7597656v-2.2802734h-2.7597656v2.2802734Zm0,.5595703v2.3603516h2.7597656v-2.3603516h-2.7597656Z"/>
      </g>
      <g>
        <path class="cls-2" d="m48.1089635,109.7862983c.0800781-.0996094.1601562-.2099609.2402344-.3300781.0795898-.1201172.1650391-.2294922.2548828-.3300781.0898438-.0996094.1748047-.1494141.2548828-.1494141.1801758,0,.5649414.2744141,1.1552734.8242188.5893555.5507812.8847656.9355469.8847656,1.1552734-.0200195.2998047-.2602539.4501953-.7197266.4501953h-5.9399414c.7392578.4404297,1.284668.9150391,1.6347656,1.4248047.3496094.5097656.5249023.9951172.5249023,1.4550781,0,.3603516-.0898438.6601562-.2700195.9003906-.1796875.2392578-.4101562.359375-.6899414.359375-.2602539,0-.5200195-.1201172-.7797852-.359375.0195312-.6201172-.1103516-1.2705078-.3901367-1.9501953-.2802734-.6796875-.6298828-1.2900391-1.0498047-1.8300781h-.9902344c-1.4804688,2.3798828-3.1000977,4.2294922-4.8598633,5.5498047l-.3901367-.3603516c.8598633-.9794922,1.699707-2.1689453,2.5200195-3.5693359.4995117-.9003906.9697266-1.9501953,1.4101562-3.1503906.4394531-1.2001953.7197266-2.2099609.8398438-3.0302734,1.7998047.7402344,2.7001953,1.2304688,2.7001953,1.4707031,0,.0595703-.090332.1298828-.2700195.2099609l-.5102539.1494141c-.2602539.5605469-.5800781,1.1904297-.9599609,1.890625h4.8598633l.5400391-.7802734Zm10.590332,5.6699219c.0395508-.0595703.1049805-.1542969.1948242-.2851562.0898438-.1298828.1699219-.2246094.2402344-.2851562.0698242-.0595703.1445312-.0898438.2246094-.0898438.1201172,0,.3549805.1308594.7050781.390625.3496094.2597656.6699219.5449219.9599609.8544922.2900391.3105469.4350586.5351562.4350586.6748047-.2397461.2802734-.6000977.4609375-1.0800781.5400391v1.7402344l.0302734,1.0498047c.0195312.8007812.0600586,1.5507812.1201172,2.25-.1005859.1806641-.3354492.3603516-.7050781.5400391-.3706055.1806641-.7050781.2705078-1.0053711.2705078-.1401367,0-.2451172-.0605469-.3149414-.1806641-.0703125-.1201172-.1049805-.2597656-.1049805-.4199219.0200195-.0195312.0600586-.1894531.1201172-.5097656v-.5703125h-7.0498047v3.4804688h8.2197266l.4799805-.5703125c.0600586-.0791016.1601562-.1943359.300293-.3447266.1396484-.1503906.2700195-.2246094.3896484-.2246094.199707,0,.5849609.25,1.1552734.75.5698242.5.8549805.859375.8549805,1.0791016-.1801758.2402344-.5600586.3710938-1.1401367.390625-.2998047,3.7402344-1.0200195,6.0498047-2.1601562,6.9296875-.7001953.5195312-1.5898438.7802734-2.6699219.7802734,0-.6201172-.1401367-1.0703125-.4199219-1.3505859-.3598633-.2792969-1.1098633-.5097656-2.25-.6894531l.0302734-.5400391c1.699707.1601562,2.7895508.2402344,3.2700195.2402344.2397461,0,.4243164-.015625.5546875-.0449219.1298828-.0302734.2651367-.0947266.4052734-.1953125.2998047-.2197266.574707-.7949219.824707-1.7246094.25-.9306641.4448242-2.125.5849609-3.5859375h-8.4296875v2.7607422c.0600586,2.3203125.1298828,4.0898438.2099609,5.3095703-.1201172.1796875-.340332.3496094-.6601562.5097656-.3203125.1601562-.7001953.2402344-1.1401367.2402344-.1401367,0-.2597656-.0595703-.3598633-.1796875s-.1499023-.2607422-.1499023-.4199219c.0795898-1.1005859.1499023-2.5800781.2099609-4.4404297v-2.5195312c-1.4599609,1.5800781-3.215332,3-5.2651367,4.2597656-2.050293,1.2597656-4.3046875,2.3193359-6.7651367,3.1796875l-.2397461-.4794922c2.1396484-1.0009766,4.1401367-2.2207031,6-3.6601562,1.8598633-1.4404297,3.409668-2.9599609,4.6499023-4.5605469h-6.1499023l-.2700195,1.0507812-.2700195.9599609c-.2802734.1396484-.550293.2099609-.8100586.2099609-.2397461,0-.6201172-.0800781-1.1401367-.2402344l.6904297-2.4599609c.2797852-1.0205078.5195312-2.0800781.7197266-3.1796875.199707-1.0996094.3198242-2.0498047.3598633-2.8505859l2.4301758,1.2597656h6.0600586v-3.5996094h-4.7998047c-1.4204102.0205078-2.9204102.1601562-4.5.4199219l-.7802734-1.5302734c1.0996094.1201172,2.4301758.2001953,3.9902344.2402344h14.7597656l.4501953-.6298828Zm-15.840332,5.9697266l-.3295898,1.4404297-.4804688,2.0400391h7.5302734v-3.4804688h-6.7202148Zm13.0200195-10.0195312c.7202148.4003906,1.25.8447266,1.590332,1.3349609.3398438.4902344.5097656.9550781.5097656,1.3945312,0,.3203125-.0898438.5957031-.2700195.8251953-.1796875.2304688-.4101562.3447266-.6899414.3447266-.2602539,0-.5-.0996094-.7202148-.2998047-.0400391-.5791016-.2246094-1.2001953-.5546875-1.859375-.3300781-.6601562-.7250977-1.2402344-1.1850586-1.7402344h-1.5600586c-1.1000977,1.6796875-2.2900391,3.0400391-3.5698242,4.0800781l-.3901367-.2998047c.5200195-.6796875.9902344-1.4296875,1.4101562-2.25.4995117-.8603516.9599609-1.8847656,1.3798828-3.0751953.4199219-1.1894531.6796875-2.2050781.7797852-3.0449219,1.0200195.4003906,1.7348633.7148438,2.1450195.9443359.409668.2304688.6152344.4052734.6152344.5253906,0,.0800781-.1005859.1503906-.300293.2099609l-.5395508.1503906c-.2001953.4394531-.5400391,1.0800781-1.0200195,1.9199219h6.5395508l.5703125-.8398438c.0795898-.1005859.1650391-.2207031.2548828-.3603516s.1845703-.2597656.2851562-.3603516c.0996094-.0996094.1899414-.1494141.2700195-.1494141.1196289,0,.3696289.1445312.75.4345703.3793945.2900391.7348633.6054688,1.0649414.9453125s.4951172.5800781.4951172.7197266c-.0600586.2998047-.300293.4501953-.7202148.4501953h-7.1401367Zm2.6401367,5.5498047h-7.0498047v3.5996094h7.0498047v-3.5996094Z"/>
        <path class="cls-2" d="m102.2364049,117.796064c-1.0800781,1.7402344-2.2905273,3.2998047-3.6298828,4.6806641l-.3901367-.3007812c1.659668-2.3994141,3.159668-5.359375,4.5-8.8798828.3793945-.9599609.7299805-2.0644531,1.0498047-3.3144531s.5102539-2.2753906.5703125-3.0751953c2.0195312.640625,3.0297852,1.0996094,3.0297852,1.3798828,0,.0800781-.0898438.1503906-.2700195.2099609l-.5400391.1796875c-.7402344,2.1201172-1.6499023,4.2509766-2.7299805,6.390625.6401367.5.9599609.8701172.9599609,1.109375,0,.1005859-.0898438.2001953-.2700195.3007812l-.4199219.2099609v10.0498047c.0400391,2.4794922.1201172,4.8300781.2402344,7.0498047-.1401367.1796875-.3803711.3603516-.7202148.5400391-.340332.1796875-.6801758.2695312-1.0200195.2695312-.1801758,0-.340332-.0595703-.4799805-.1796875-.1401367-.1201172-.2099609-.2597656-.2099609-.4199219.0795898-1.1806641.1499023-2.3251953.2099609-3.4345703.0600586-1.1103516.1000977-2.5654297.1201172-4.3652344v-8.4003906Zm19.3798828,13.6503906c.1000977-.1201172.199707-.25.2998047-.390625.1000977-.1396484.199707-.2646484.300293-.375.0996094-.109375.1899414-.1640625.2700195-.1640625.1201172,0,.3847656.1601562.7949219.4794922.409668.3203125.7949219.6601562,1.1547852,1.0205078.3603516.359375.5400391.609375.5400391.75-.0600586.3193359-.2998047.4794922-.7197266.4794922h-13.7402344c-1.4204102.0195312-2.9204102.1601562-4.5.4199219l-.7197266-1.5302734c1.0996094.1201172,2.4296875.2001953,3.9897461.2402344h6.3300781c.8999023-3.2402344,1.6899414-6.6494141,2.3701172-10.2294922.4394531-2.4199219.6494141-4.4101562.6298828-5.9707031,1.2197266.2802734,2.074707.5058594,2.5649414.6757812.4897461.1699219.7348633.3144531.7348633.4345703,0,.0800781-.0898438.1699219-.2695312.2695312l-.5102539.2705078c-.5400391,2.2001953-1.2553711,4.6298828-2.1450195,7.2900391-.8901367,2.6601562-1.8149414,5.0800781-2.7749023,7.2597656h4.7700195l.6298828-.9296875Zm-.5400391-18.6005859c.0600586-.0791016.1499023-.2041016.2700195-.375.1201172-.1689453.2250977-.2998047.3149414-.3896484.090332-.0898438.1748047-.1347656.2548828-.1347656.1201172,0,.3798828.1552734.7802734.4648438.3999023.3105469.7749023.6445312,1.125,1.0048828.3496094.3603516.5249023.6103516.5249023.75-.0800781.3203125-.3300781.4804688-.75.4804688h-12.2700195c-1.4204102.0195312-2.9204102.1601562-4.5.4199219l-.7797852-1.5605469c1.0996094.1201172,2.4296875.2001953,3.9897461.2402344h3.75v-.4794922c0-2.5205078-.1303711-4.5703125-.3896484-6.1503906,2.0595703.5605469,3.0898438.9804688,3.0898438,1.2597656,0,.1005859-.0898438.2001953-.2700195.2998047l-.5400391.3300781v4.7402344h4.7700195l.6298828-.9003906Zm-11.9697266,3.8105469c1.3393555,1.9404297,2.3144531,3.7949219,2.9248047,5.5644531.6098633,1.7705078.9150391,3.3457031.9150391,4.7255859,0,.9404297-.125,1.6953125-.375,2.2646484-.2504883.5703125-.5454102.8554688-.8852539.8554688-.2597656,0-.5097656-.1806641-.75-.5400391-.0400391-2.0595703-.2299805-4.25-.5698242-6.5703125-.340332-2.3193359-.9101562-4.3496094-1.7099609-6.0898438l.4501953-.2099609Z"/>
        <path class="cls-2" d="m79.5430455,100.5997749c0-1.1992188-.1196289-1.9199219-.8999023-1.9199219-1.5,0-5.5195312,1.8603516-5.8198242,1.8603516-.1796875,0-.5395508-.0605469-.5395508-.2998047,0-.1806641.1796875-.4199219.4199219-.6005859,3.8398438-2.5791016,6.1196289-3.9589844,9.9594727-6.5390625.5400391-.3603516,1.0200195-.7207031,1.4399414-.7207031.4799805,0,.4799805.6601562.4799805,1.2607422,0,.1796875-.3598633,13.0195312-.3598633,26.6982422,0,6,.1196289,11.3398438.2998047,13.9794922.1201172,1.8603516.5400391,2.8798828,2.5200195,3.0605469.7197266.0595703,1.199707.1191406,1.6196289.1796875.6000977.0595703.9599609.2402344.9599609.5996094,0,.2998047-.2998047.4199219-1.0195312.4199219-4.5,0-6.5400391-.1796875-6.8398438-.1796875-.300293,0-3.5400391.1796875-7.3798828.1796875-.6601562,0-1.0200195-.1201172-1.0200195-.4199219,0-.2392578.2402344-.4794922.840332-.4794922.9599609,0,1.6196289-.1201172,2.2797852-.1806641,2.2197266-.1796875,2.699707-1.1992188,2.8798828-3.5390625.1796875-2.640625.1796875-7.6201172.1796875-13.6201172v-19.7392578Z"/>
      </g>
    </g>
  </g>
</svg>