<?xml version="1.0" encoding="UTF-8"?>
<svg id="_レイヤー_2" data-name="レイヤー 2" xmlns="http://www.w3.org/2000/svg" viewBox="0 0 162.5843713 171.8297773">
  <defs>
    <style>
      .cls-1 {
        fill: #fff;
        stroke: #fff;
        stroke-linecap: round;
        stroke-linejoin: round;
        stroke-width: 4px;
      }

      .cls-2, .cls-3 {
        stroke-width: 0px;
      }

      .cls-3 {
        fill: #ffdc00;
      }
    </style>
  </defs>
  <g id="equipment">
    <circle class="cls-3" cx="82.8171116" cy="100.3963866" r="71.4333907"/>
    <g>
      <path class="cls-1" d="m6.0901512,45.257978c-.3544922.4560547-.6933594.9238281-1.015625,1.4042969.6865234.6083984,1.3935547,1.1582031,2.0917969,1.7509766.3232422-.4804688.6171875-.9570312.9716797-1.4130859.1953125-.2509766.5458984-.28125.7978516-.0859375.2353516.1835938.28125.5458984.0976562.7822266-.3535156.4560547-.6601562.9482422-.9824219,1.4277344.8515625.6875,1.6875,1.3623047,2.515625,2.0810547.1933594-.6054688.359375-1.2080078.4765625-1.8466797.0302734-.1035156.0478516-.1904297.109375-.2695312.1826172-.2353516.5576172-.296875.8085938-.1015625.1582031.1220703.2382812.3105469.21875.4970703-.0527344.5888672-1.5898438,5.5185547-1.8828125,5.8955078-.1826172.2363281-.5458984.28125-.78125.0986328-.2050781-.1591797-.2636719-.40625-.1806641-.6435547.2802734-.8154297.5888672-1.6347656.8535156-2.4619141-.8779297-.7832031-1.8212891-1.515625-2.7392578-2.2792969-.2949219.4765625-.5341797.9462891-.7695312,1.4433594-.0234375.0322266-.0566406.1064453-.0820312.1386719-.1953125.2509766-.5615234.2685547-.8125.0732422-.2050781-.1582031-.2480469-.3935547-.1650391-.6318359.1845703-.5615234.6533203-1.2304688.9570312-1.7509766-.7099609-.5771484-1.4492188-1.1503906-2.1357422-1.7597656-.2617188.4023438-1.2363281,1.7871094-1.3701172,2.1865234-.0087891.0439453-.0175781.0869141-.0537109.1347656-.1835938.2353516-.5585938.296875-.8105469.1015625-.2041016-.1591797-.2519531-.4228516-.1679688-.6601562.1582031-.4306641.4726562-.8671875.7226562-1.2529297.7646484-1.2451172,1.5898438-2.4697266,2.4921875-3.6328125.2441406-.3144531.5566406-.6513672.9814453-.3212891.4560547.3535156.0986328.78125-.1455078,1.0957031Zm15.0302734-3.2929688c-.0449219.9980469-.6279297,2.5605469-1.2265625,3.3310547-1.3427734,1.7285156-3.1630859,1.3476562-4.7646484.2304688.1347656,1.1884766.3144531,2.3857422.5048828,3.5664062.0712891.4589844.2236328,1.1064453.2802734,1.5537109.0244141.1953125.0107422.3105469-.1113281.4677734-.1953125.2519531-.5302734.2939453-.78125.0986328-.0947266-.0732422-.1650391-.1787109-.1953125-.3017578-.2128906-.7958984-.3222656-1.6621094-.4394531-2.4833984-.2695312-1.6962891-.4960938-3.3847656-.6259766-5.0986328-.5712891.8662109-1.15625,1.7480469-1.6220703,2.671875.0019531.1279297-.0273438.2304688-.1005859.3251953-.1953125.2509766-.5029297.2900391-.7626953.1376953-.3984375-.2333984-.8730469-.6279297-1.234375-.9082031-.8417969-.6035156-1.6591797-1.2382812-2.4609375-1.8603516-.9423828-.7324219-1.8730469-1.4804688-2.7919922-2.2451172-.4091797-.3173828-.8486328-.6591797-1.2207031-1.0234375-.2275391-.2265625-.2373047-.5371094-.0419922-.7890625.2070312-.2666016.5644531-.2412109.8007812-.0576172.09375.0732422.1914062.1738281.2861328.2470703.5878906-1.0800781,1.25-2.1279297,2.0068359-3.1025391,1.2695312-1.6347656,1.2246094-1.3164062,2.7177734-.1572266,1.2412109.9648438,4.5302734,3.5439453,5.3427734,4.7041016.1035156.15625.1113281.2128906.1201172.3955078.0390625.7607422.0771484,1.5224609.1445312,2.2792969.1611328.1503906.3212891.3007812.4941406.4345703,1.1162109.8662109,2.5244141,1.5830078,3.5751953.2314453.6347656-.8173828.8066406-1.8173828.9824219-2.7900391.0292969-.1025391.046875-.1904297.1074219-.2685547.1953125-.2519531.5585938-.296875.7949219-.1142578.171875.1347656.2363281.3105469.2216797.5253906Zm-12.6240234-4.6396484c-.1884766-.1464844-.3896484-.2773438-.5625-.4111328-.1621094.1767578-.3085938.3652344-.4433594.5380859-.7558594.9746094-1.4472656,2.0253906-1.9902344,3.1152344.4589844.3818359.9023438.7509766,1.3740234,1.1171875.6904297-1.2783203,1.5517578-2.5488281,2.5058594-3.6474609-.2353516-.1835938-.4599609-.3818359-.6953125-.5654297l-.1884766-.1464844Zm1.2871094,2.0087891c-.7324219.9423828-1.4785156,2.0009766-2.0097656,3.0742188l1.2421875.9648438c.7333984-1.2695312,1.5742188-2.4814453,2.3398438-3.7265625-.3652344-.3085938-.7148438-.6044922-1.0917969-.8974609-.1748047.1914062-.3212891.3798828-.4804688.5849609Zm2.21875,1.3945312c-.7148438,1.0820312-1.4267578,2.1933594-2.0791016,3.3242188.4716797.3662109.9394531.7050781,1.4111328,1.0712891.6728516-1.1914062,1.4208984-2.3486328,2.1875-3.4667969-.4101562-.4443359-.8730469-.8544922-1.3076172-1.2675781l-.2119141.3388672Z"/>
      <path class="cls-1" d="m18.0471824,28.3068061c-.3515625,1.109375-.4199219,2.9414062-.4511719,4.0976562l.0087891.7636719c-.0039062.1835938-.0927734.3583984-.2314453.4726562-.2460938.2011719-.5976562.1806641-.8115234-.0810547-.0751953-.0927734-.1201172-.2099609-.1220703-.3378906-.0712891-.8408203.1572266-5.1162109.6953125-5.5576172.2470703-.2021484.6230469-.1503906.8251953.0966797.1259766.1533203.1494141.3398438.0869141.5458984Zm12.0253906-5.3193359c-.2246094.6982422-.7773438,1.5625-1.3476562,2.0292969-1.3544922,1.1083984-2.4160156.1259766-3.3105469-.9667969-.5292969-.6464844-.9824219-1.3564453-1.4042969-2.0908203l-.2460938.2011719c-1.0283203.8164062-2.0214844,1.7070312-2.9492188,2.6464844.5722656.9199219,1.1142578,1.8652344,1.6435547,2.7939453.2724609.5224609.6279297,1.0810547.8271484,1.6376953.0888672.2353516.0332031.5126953-.1669922.6767578-.2314453.1884766-.6230469.1494141-.8251953-.0966797-.0253906-.0302734-.0625-.0771484-.0849609-.1357422-.2646484-.6064453-.6005859-1.2050781-.9248047-1.7890625-.6591797-1.1826172-1.3808594-2.3144531-2.0859375-3.4599609-.1835938-.2871094-.125-.5917969.1367188-.8066406.3076172-.2519531.6542969-.0478516.8564453.1992188.8642578-.8613281,1.7646484-1.6767578,2.7041016-2.4453125.4160156-.3408203,1.2666016-1.2167969,1.7714844-.6015625l.0742188.0927734c.4648438.8808594.9492188,1.6923828,1.5791016,2.4619141.1884766.2314453.8857422,1.0498047,1.1982422,1.0244141.171875-.0107422.3505859-.1064453.4882812-.2197266.6171875-.5039062.9238281-1.6044922,1.1552734-1.7939453.2617188-.2138672.6259766-.1777344.8271484.0683594.1386719.1699219.1474609.3681641.0839844.5742188Zm-8.890625,6.0703125l-.0361328.6464844-.0693359,1.265625-.0615234,1.4638672c.3291016.2451172.6035156.6123047.8554688.9199219,1.0205078,1.2470703,1.9501953,2.5693359,2.8652344,3.8769531.4169922.6357422,1.0800781,1.5078125,1.4228516,2.1777344.1660156.328125.0683594.5869141-.1933594.8007812-.2148438.1767578-.5830078.0410156-.734375-.1435547l-.0625-.0771484c-.6181641-1.0371094-1.3125-2.0117188-2.0078125-2.9853516-.7041016-1.0175781-1.4365234-2.0380859-2.2177734-2.9921875-.0419922.7021484-.0839844,1.4052734-.1533203,2.1054688-.0410156.2646484-.0566406.5595703-.109375.8085938-.0292969.1533203-.0810547.2470703-.2041016.3476562-.2617188.2138672-.5976562.1806641-.7998047-.0654297-.125-.1542969-.1396484-.296875-.1230469-.4648438.2080078-1.9443359.2890625-3.8876953.3691406-5.8310547.0214844-.6347656.0322266-1.3115234.109375-1.9404297.0166016-.1679688.0703125-.2900391.2089844-.4033203.2470703-.2011719.6113281-.1650391.8125.0810547.1132812.1386719.1308594.2529297.1289062.4091797Zm14.8027344,2.5644531c-.6464844.5292969-5.0136719,1.0693359-5.984375,1.1708984-.1855469,1.4375-.546875,3.3525391-1.3632812,4.5859375-.0332031.0537109-.0644531.0791016-.109375.1162109-.2470703.2021484-.5957031.1533203-.796875-.0927734-.1767578-.2158203-.1523438-.4677734-.0175781-.6806641.6796875-1.1484375.9414062-2.4941406,1.1132812-3.7910156-.6855469.0722656-1.3691406.1171875-2.0371094.1494141-.2421875.0185547-.4990234.0498047-.7382812.0400391-.1835938-.0039062-.3339844-.0615234-.4589844-.2158203-.2021484-.2460938-.1533203-.5947266.0927734-.796875.1083984-.0878906.2099609-.1201172.3525391-.1337891.3144531-.0253906.640625-.0351562.9667969-.0449219.6542969-.0478516,1.296875-.1113281,1.9550781-.1875.1210938-1.359375.1464844-2.7421875-.0175781-4.0732422-.9082031.7431641-1.7792969,1.5332031-2.6367188,2.3388672-.5292969.484375-1.0898438.9941406-1.5429688,1.5703125-.0175781.0410156-.0644531.0791016-.0947266.1035156-.2470703.2021484-.6230469.1503906-.8251953-.0957031-.1757812-.2158203-.1484375-.4960938.0019531-.7207031.2167969-.3320312.5585938-.6376953.8378906-.8925781,1.0693359-1.0810547,2.2050781-2.1132812,3.359375-3.0585938.3076172-.2519531.6640625-.5693359,1.0078125-.7480469.2539062-.1298828.5644531-.1269531.7529297.1035156.0634766.0771484.0947266.1796875.1142578.2666016.359375,1.5058594.3388672,3.5537109.2128906,5.0966797,1.5615234-.1972656,3.8183594-.4248047,5.2724609-.9726562.2353516-.0898438.4873047-.0644531.6630859.1513672.2021484.2460938.1660156.6103516-.0800781.8115234Z"/>
      <path class="cls-1" d="m46.4592918,12.9474311c.1035156.9257812-1.2109375,5.4404297-1.5527344,6.453125-.234375.6933594-.5029297,1.4042969-.8164062,2.0703125.4345703.2509766.8789062.4746094,1.3320312.7167969.3632812.1962891.7636719.3759766,1.1367188.5908203.1240234.0712891.1953125.125.2568359.25.1494141.3027344.0332031.6494141-.2705078.7998047-.1953125.0966797-.3554688.0869141-.5507812.0068359-.3730469-.1708984-.7548828-.4033203-1.1191406-.5996094l-3.2412109-1.7021484c-.3994141-.2236328-1.1103516-.5371094-1.4736328-.8232422-.0800781-.0712891-.1503906-.125-.1953125-.2138672-.140625-.2851562-.015625-.6582031.2871094-.8085938.2324219-.1152344.3925781-.0615234.6054688.0556641.7099609.4023438,1.4384766.7958984,2.1835938,1.1816406.9140625-1.9628906,1.7441406-5.0830078,2.1425781-7.234375-1.4599609.3242188-2.9921875,1.0839844-4.3291016,1.7470703-1.3720703.6796875-3.8232422,1.9609375-4.8945312,3.0253906-.0439453.0439453-.1064453.0976562-.1611328.1240234-.3027344.1503906-.6582031.015625-.8085938-.2880859-.1142578-.2314453-.0683594-.453125.1005859-.6484375.7958984-.9492188,4.1279297-2.7353516,5.2861328-3.3095703,1.0878906-.5380859,4.3134766-2.0488281,5.5136719-1.9111328.2314453.0185547.4091797.1083984.515625.3222656.0351562.0712891.0429688.1337891.0527344.1953125Z"/>
      <path class="cls-1" d="m67.1917137,7.0509468c-.1083984.9257812-2.4072266,5.0302734-2.96875,5.9404297-.3837891.6230469-.8066406,1.2548828-1.2626953,1.8330078.3681641.3427734.75.6611328,1.1367188.9990234.3105469.2734375.6591797.5390625.9746094.8320312.1044922.0976562.1621094.1660156.1943359.3017578.078125.3291016-.1132812.640625-.4433594.71875-.2128906.0507812-.3671875.0048828-.5390625-.1171875-.3251953-.2509766-.6445312-.5634766-.9550781-.8369141l-2.7753906-2.3896484c-.3398438-.3085938-.9609375-.7744141-1.2519531-1.1347656-.0605469-.0878906-.1181641-.15625-.140625-.2529297-.0742188-.3095703.1328125-.6455078.4619141-.7236328.2519531-.0595703.3955078.0292969.5771484.1904297.6015625.5527344,1.2226562,1.1015625,1.8632812,1.6445312,1.3330078-1.7070312,2.84375-4.5605469,3.71875-6.5673828-1.4960938-.0136719-3.1621094.3818359-4.6142578.7255859-1.4912109.3535156-4.1689453,1.0507812-5.4521484,1.8457031-.0546875.0332031-.1269531.0712891-.1855469.0849609-.328125.078125-.6445312-.1337891-.7226562-.4628906-.0595703-.2519531.0351562-.4580078.2441406-.6103516.9882812-.7451172,4.640625-1.734375,5.8984375-2.0332031,1.1816406-.2792969,4.6660156-1.0244141,5.8046875-.6201172.2216797.0703125.375.1982422.4296875.4306641.0175781.0771484.0126953.1396484.0078125.2021484Z"/>
      <path class="cls-1" d="m78.5237449,6.4278999c-.9628906,1.9658203-1.5332031,4.8808594-1.4980469,7.0693359.0068359.4179688.0332031.8154297.1191406,1.2119141.1777344-.0625.3349609-.2041016.5341797-.2070312.3183594-.0058594.6005859.2685547.6064453.6064453.0039062.1992188-.09375.3603516-.25.4824219-.2363281.1826172-.96875.4726562-1.2470703.4775391-.2587891.0039062-.4599609-.1318359-.5625-.3496094-.2880859-.5722656-.3642578-1.5859375-.3740234-2.2226562-.0332031-2.0498047.5820312-5.8603516,1.6074219-7.6484375.1171875-.1806641.2949219-.3037109.5136719-.3066406.3378906-.0058594.6210938.2685547.6259766.5869141.0019531.1191406-.0361328.1992188-.0751953.2998047Zm9.2568359,7.5332031c-.8759766.0136719-3.8173828-2.2470703-3.8330078-3.1630859-.0039062-.3183594.25-.5810547.5878906-.5859375.2392578-.0039062.4199219.1123047.5429688.3095703.53125.8867188,1.921875,1.9394531,2.8828125,2.2822266.2402344.0957031.4023438.2919922.40625.5507812.0058594.3378906-.2685547.6015625-.5869141.6064453Zm.2119141-6.5917969c-.3378906.0058594-.6015625-.2685547-.6054688-.5869141-.0019531-.0996094.0166016-.1796875.0546875-.2597656-.2998047-.0947266-.7773438-.1064453-1.0957031-.1015625-.4785156.0078125-.9550781.0546875-1.4101562.2021484-.0585938.0205078-.1191406.0410156-.1982422.0429688-.3183594.0048828-.6015625-.2695312-.6064453-.6074219-.0039062-.2587891.1708984-.4804688.4082031-.5634766.5146484-.1875,1.3085938-.2802734,1.8466797-.2890625.8154297-.0126953,2.3105469.1220703,2.328125,1.2167969.0068359.3974609-.2636719.9394531-.7216797.9462891Z"/>
      <path class="cls-1" d="m100.9612449,7.3605171c-.1015625.3642578-.2402344.7207031-.3417969,1.0859375-.0039062.0185547-.0126953.0576172.0019531.0810547-.0166016.078125-.0380859.1748047-.109375.2207031-.1777344.3476562-.2871094.7509766-.7734375.6445312-.2519531-.0566406-.4433594-.3017578-.40625-.5585938-1.0234375-.1650391-2.0458984-.3291016-3.0859375-.4160156-.4248047,1.7392578-.8261719,3.4638672-1.2119141,5.2119141-.1845703.8349609-.3642578,1.6513672-.5292969,2.4902344-.0986328.4472656-.2207031.9091797-.2607422,1.3681641l-.0175781.078125c-.0644531.2910156-.3535156.4921875-.6445312.4277344-.2910156-.0634766-.4277344-.2773438-.4453125-.5664062-.0195312-.3710938.5869141-3.0283203.6933594-3.5136719.5488281-2.4863281,1.1416016-4.9833984,1.7871094-7.4482422.234375-.9667969.4873047-1.9296875.7753906-2.8642578.1132812-.4228516.2314453-.8652344.3994141-1.2558594.0986328-.2636719.3505859-.3916016.6230469-.3310547.2333984.0507812.3779297.2255859.4326172.4414062.6777344.0683594,1.3613281.1982422,2.0410156.3486328.3691406.0810547,1.4140625.3320312,1.71875.5214844.3183594.2138672.3105469.4355469.2382812.765625-.2441406,1.1074219-.546875,2.2021484-.8847656,3.2685547Zm-1.1367188-.9433594c-.9472656-.2294922-1.9511719-.390625-2.9472656-.4882812-.1269531.4814453-.2490234.9433594-.3564453,1.4287109,1.0595703.0917969,2.1220703.2646484,3.1630859.4335938l.4130859-1.3144531-.2724609-.0595703Zm6.8554688,6.1367188c-.4863281-.1074219-.9902344-.21875-1.4804688-.3066406l-.0732422.3310547c-.3603516,1.6308594-.7587891,3.2539062-1.1962891,4.8691406-.25.9433594-.515625,1.9638672-.9160156,2.8535156-.1132812.2392578-.3515625.390625-.6230469.3310547-.2910156-.0644531-.4882812-.3730469-.4238281-.6640625l.0214844-.0976562c.2714844-.6728516.4882812-1.3789062.7011719-2.0654297-1.1269531-.0654297-2.2685547-.1542969-3.40625-.2626953-.6582031-.0634766-1.3476562-.0732422-2.0078125-.2197266l-.0585938-.0126953c-.2714844-.0595703-.4775391-.3291016-.4179688-.6015625.0683594-.3105469.2910156-.4853516.6152344-.4755859.4052734.0087891.8320312.1025391,1.2490234.1542969.1181641-.6259766.2587891-1.2675781.3964844-1.8886719.2402344-1.0878906.4794922-2.1757812.7783203-3.2509766-.6064453-.1132812-1.2060547-.1640625-1.796875-.2539062l-.078125-.0166016c-.2910156-.0644531-.4726562-.3496094-.4082031-.640625.0634766-.2910156.28125-.4472656.5664062-.4453125.3232422.0107422.6542969.0830078.9492188.1279297.7314453.1005859,1.4550781.2402344,2.1621094.3554688,1.8583984.3486328,3.7207031.6787109,5.5664062,1.0859375.3496094.0771484.6308594.28125.5410156.6894531-.0644531.2910156-.3691406.46875-.6601562.4042969Zm-6.9296875-8.6591797c-.71875-.1582031-1.4609375-.3017578-2.2011719-.3632812l-.3730469,1.3222656c1.0703125.1347656,2.1699219.3164062,3.2148438.5673828.1132812-.4228516.2275391-.8457031.3222656-1.2734375-.3222656-.1113281-.6328125-.1796875-.9628906-.2529297Zm.2451172,11.4414062c-.0859375.3886719-.1474609.7617188-.2333984,1.1503906,1.078125.0957031,2.1582031.1914062,3.2255859.2431641l.2353516-.8847656c-1.0722656-.2158203-2.1572266-.3740234-3.2275391-.5087891Zm3.4501953-1.4179688c-1.0058594-.2421875-2.0175781-.3642578-3.0214844-.5244141l-.1894531.8544922c1.0859375.1582031,2.171875.3164062,3.2441406.5332031.0703125-.2294922.1230469-.4619141.1738281-.6953125l.0253906-.1162109-.2324219-.0517578Zm.6816406-1.8867188c-1.0732422-.2167969-2.1308594-.4091797-3.2070312-.6064453l-.2412109.9042969c1.0898438.1386719,2.1904297.3212891,3.2548828.5761719l.1933594-.8740234Zm7.3759766-4.6259766c-.6474609,2.9335938-1.3378906,5.8769531-2.0830078,8.7890625-.2734375,1.0595703-.5488281,2.1191406-.8623047,3.1708984-.1914062.5888672-.3671875,1.2021484-.6357422,1.7744141-.1142578.2392578-.3671875.3671875-.6191406.3115234-.5048828-.1113281-1.3984375-.6757812-1.7617188-1.0615234-.1298828-.1503906-.1972656-.3085938-.1542969-.5019531.0644531-.2919922.3486328-.4736328.640625-.4091797.1162109.0253906.1855469.0820312.2695312.1611328.2568359.2197266.5185547.4199219.8320312.5712891.453125-1.2246094.7792969-2.5175781,1.1162109-3.7666016.4521484-1.7744141.8818359-3.5332031,1.2910156-5.296875l-.5244141-.1162109c-1.0878906-.2392578-2.203125-.4453125-3.296875-.5644531-.0673828.0263672-.1064453.0175781-.1835938,0-.2910156-.0644531-.4394531-.3203125-.4179688-.6015625.0214844-.4638672.171875-.9599609.2744141-1.4257812.2099609-.9521484.8300781-3.6669922,1.2470703-4.4511719.109375-.2197266.3476562-.3710938.5996094-.3154297.2910156.0644531.5078125.3769531.4433594.6679688-.0087891.0390625-.0322266.0537109-.0410156.0927734-.3359375.78125-.5429688,1.6318359-.7617188,2.4394531,1.1669922.1552734,2.3457031.3544922,3.4785156.6660156l.0810547-.3691406.2236328-1.0097656c-.3457031-.0966797-.4775391-.1464844-.8271484-.2236328-.5244141-.1162109-1.2705078-.2402344-1.8037109-.3164062l.1542969.0341797c-.2949219-.0449219-.4921875-.3535156-.4238281-.6640625.0605469-.2724609.2978516-.4238281.5820312-.421875.5273438.0146484,1.1054688.1621094,1.6298828.2783203.4072266.0898438,1.2392578.2939453,1.5820312.4921875.2158203.1289062.3291016.3574219.2724609.6103516l-.1923828.8740234-.1289062.5820312Zm-2.1582031,1.0107422c-.8935547-.1972656-1.8154297-.359375-2.7255859-.4794922-.0556641.2529297-.1269531.4814453-.1826172.734375l-.0419922.1943359c-.0390625.1748047-.0625.3730469-.1054688.5673828,1.1679688.1552734,2.3457031.3544922,3.4824219.6464844.1074219-.4853516.21875-.9902344.3457031-1.4716797-.2480469-.0751953-.5-.1308594-.7724609-.1914062Z"/>
      <path class="cls-1" d="m119.2796043,19.9737983c-.6289062.1630859-2.0644531.0302734-2.6386719-.2441406-.7724609-.3681641-.8671875-2.0654297-.90625-2.7675781-.0507812-.7734375-.0507812-3.1318359.265625-3.796875.1376953-.2871094.5087891-.4189453.796875-.28125.2685547.1279297.3808594.4023438.3320312.6875-.0634766.3662109-.1279297.7324219-.1738281,1.1064453-.0644531.8291016-.0898438,3.2861328.2714844,4.0087891.5019531.1953125,1.2841797.171875,1.8164062.1171875.1425781-.0205078.25-.0136719.375.0458984.3056641.1455078.4199219.5087891.2822266.7958984-.0849609.1796875-.2255859.2890625-.4208984.328125Zm9.1054688,2.4443359c-.2871094-.1367188-.4101562-.5263672-.2734375-.8134766.0429688-.0898438.0947266-.1533203.1650391-.2080078.3242188-.2636719.5498047-.5976562.7294922-.9746094.1875-.3945312.4335938-1.09375.3007812-1.5097656-.0566406-.1591797-.0507812-.3105469.0263672-.4716797.1367188-.2871094.4990234-.4013672.7871094-.2646484.8076172.3857422.2373047,2.1855469-.0371094,2.7597656-.2314453.4853516-1.0166016,1.8076172-1.6982422,1.4824219Z"/>
      <path class="cls-1" d="m143.4553855,26.5099311c-.9648438-.3837891-1.9316406-1.0234375-2.7832031-1.6474609-2.2519531.9833984-7.2109375,3.6533203-8.6953125,5.5253906-.2089844.2646484-.2890625.5576172-.4248047.7285156-.1982422.25-.6044922.2822266-.8544922.0849609-.5146484-.4082031.0351562-1.1660156.3320312-1.5400391,1.59375-2.0117188,6.1201172-4.5185547,8.5976562-5.6269531-.4433594-.4013672-.9414062-.796875-1.3476562-1.2460938-.2128906-.2441406-.2324219-.5390625-.0351562-.7890625.1982422-.2490234.5703125-.3349609.8232422-.109375l.0625.0498047c.5712891.5283203,1.1298828,1.0732422,1.7373047,1.5546875.3261719-.1220703.6894531-.2919922,1.0214844-.3583984.1796875-.0351562.3535156.0009766.5097656.125.25.1972656.3076172.5732422.109375.8232422-.1230469.1552734-.296875.2470703-.4804688.2539062.6015625.4257812,1.234375.7490234,1.8945312,1.0693359.0585938.0214844.0898438.0458984.1367188.0830078.265625.2109375.3076172.5742188.0976562.8388672-.1728516.21875-.4492188.2783203-.7011719.1806641Zm-2.6220703,11.8613281c-.7490234-.59375-2.2265625-2.3486328-2.5126953-3.2363281-.0664062-.2050781-.0458984-.3916016.078125-.546875.2089844-.265625.5976562-.3388672.8632812-.1289062.109375.0869141.1464844.1679688.1875.2763672.4082031.9580078,1.3945312,2.0195312,2.15625,2.7246094.2685547.2382812.2919922.5615234.0693359.8417969-.2099609.265625-.5927734.2666016-.8417969.0693359Zm4.3447266-5.2900391c-.0625-.0498047-.1113281-.1152344-.1621094-.1796875-.1367188-.2109375-.3154297-.4023438-.5175781-.5634766-.7021484-.5566406-1.6396484-.9433594-2.5019531-1.1699219-.0859375-.0175781-.1611328-.0517578-.2392578-.1132812-.2646484-.2099609-.3232422-.5859375-.1123047-.8515625.1484375-.1865234.3808594-.2558594.5986328-.2109375.9267578.1767578,2.2353516.8320312,2.9677734,1.4130859.40625.3212891,1.2226562,1.0205078.7773438,1.5820312-.1972656.2490234-.5605469.2910156-.8105469.09375Z"/>
      <path class="cls-1" d="m148.4514793,49.3331733c-.5361328-.6679688.9599609-1.7910156,1.8134766-2.4765625.2490234-.1992188.6396484-.15625.8388672.0927734.6347656.7910156-1.1630859,1.4433594-1.6835938,2.3203125-.0341797.0527344-.0839844.1181641-.1464844.1679688-.2636719.2109375-.6113281.1591797-.8222656-.1044922Zm11.8535156-8.8476562c-2.2578125,1.6064453-4.671875,3.3652344-6.8447266,5.1083984-.2324219.1865234-.6396484.15625-.8388672-.0917969-.3730469-.4658203.0332031-.8173828.375-1.0917969,1.4277344-1.1455078,2.8886719-2.2158203,4.3535156-3.3154297.6494141-.4941406,1.6367188-1.2353516,2.3164062-1.6279297.2578125-.1552734.578125-.1064453.7773438.1416016.2236328.2792969.171875.6279297-.0927734.8388672l-.0458984.0380859Z"/>
    </g>
    <g>
      <path class="cls-2" d="m5.7659324,45.6124702c-.3535156.4599609-.6914062.9316406-1.0136719,1.4160156.6933594.6083984,1.40625,1.1572266,2.1113281,1.75.3222656-.484375.6152344-.9648438.96875-1.4248047.1953125-.2539062.5478516-.2851562.8017578-.0908203.2373047.1835938.2851562.5478516.1025391.7861328-.3535156.4589844-.6601562.9560547-.9814453,1.4394531.8603516.6865234,1.7041016,1.3613281,2.5390625,2.0791016.1914062-.609375.3544922-1.2158203.4697266-1.8583984.0292969-.1035156.046875-.1914062.1074219-.2705078.1835938-.2382812.5605469-.3017578.8144531-.1064453.1582031.1220703.2402344.3105469.2207031.4990234-.0507812.5908203-1.5703125,5.5527344-1.8632812,5.9335938-.1826172.2382812-.546875.2851562-.7851562.1025391-.2060547-.1582031-.2675781-.4072266-.1835938-.6464844.2773438-.8203125.5839844-1.6445312.8457031-2.4775391-.8867188-.7832031-1.8378906-1.5146484-2.765625-2.2773438-.2929688.4804688-.53125.953125-.7646484,1.4541016-.0244141.0322266-.0576172.1074219-.0820312.1396484-.1943359.2539062-.5634766.2734375-.8173828.078125-.2050781-.1582031-.25-.3955078-.1679688-.6337891.1835938-.5664062.6503906-1.2402344.953125-1.7646484-.7167969-.5771484-1.4619141-1.1503906-2.1542969-1.7587891-.2617188.4052734-1.234375,1.8017578-1.3671875,2.2041016-.0078125.0439453-.0166016.0878906-.0527344.1347656-.1835938.2382812-.5605469.3017578-.8144531.1064453-.2050781-.1582031-.2539062-.4228516-.171875-.6621094.1582031-.4335938.4707031-.8740234.7197266-1.2626953.7626953-1.2548828,1.5859375-2.4892578,2.4882812-3.6630859.2431641-.3164062.5556641-.6572266.9833984-.328125.4609375.3535156.1035156.7861328-.140625,1.1025391Zm15.0898438-3.3818359c-.0410156,1.0029297-.6191406,2.5761719-1.2167969,3.3535156-1.3417969,1.7441406-3.1728516,1.3691406-4.7871094.2539062.140625,1.1943359.3261719,2.3964844.5244141,3.5830078.0751953.4609375.2304688,1.1103516.2890625,1.5595703.0263672.1962891.0126953.3115234-.109375.4707031-.1953125.2529297-.5322266.296875-.7851562.1025391-.0947266-.0732422-.1660156-.1787109-.1962891-.3027344-.21875-.7988281-.3320312-1.6679688-.4541016-2.4931641-.2802734-1.7041016-.5146484-3.3984375-.6542969-5.1201172-.5712891.8730469-1.1533203,1.7617188-1.6162109,2.6923828.0019531.1279297-.0273438.2314453-.1005859.3261719-.1943359.2539062-.5029297.2939453-.765625.1435547-.4013672-.2333984-.8798828-.6269531-1.2451172-.9072266-.8486328-.6025391-1.6738281-1.2363281-2.4824219-1.8583984-.9511719-.7314453-1.8896484-1.4785156-2.8164062-2.2421875-.4121094-.3164062-.8554688-.6582031-1.2324219-1.0224609-.2285156-.2265625-.2402344-.5390625-.0458984-.7929688.2080078-.2695312.5673828-.2451172.8046875-.0625.0947266.0732422.1943359.1748047.2890625.2480469.5849609-1.0888672,1.2460938-2.1455078,2.0019531-3.1279297,1.2685547-1.6494141,1.2236328-1.3291016,2.7304688-.1708984,1.2529297.9628906,4.5693359,3.5390625,5.3916016,4.7011719.1054688.1572266.1132812.2128906.1230469.3974609.0429688.7646484.0859375,1.5292969.15625,2.2900391.1621094.1494141.3242188.2998047.4990234.4335938,1.1259766.8662109,2.5449219,1.5791016,3.5927734.2158203.6347656-.8251953.8027344-1.8310547.9746094-2.8085938.0292969-.1035156.046875-.1914062.1074219-.2705078.1953125-.2539062.5595703-.3017578.796875-.1191406.1748047.1347656.2402344.3115234.2265625.5273438Zm-12.7089844-4.6015625c-.1914062-.1464844-.3935547-.2773438-.5683594-.4111328-.1621094.1777344-.3076172.3681641-.4414062.5429688-.7558594.9824219-1.4453125,2.0429688-1.9863281,3.1396484.4628906.3818359.9101562.7519531,1.3867188,1.1171875.6875-1.2880859,1.546875-2.5693359,2.5-3.6777344-.2382812-.1835938-.4628906-.3818359-.7011719-.5644531l-.1894531-.1464844Zm1.3027344,2.0117188c-.7304688.9511719-1.4765625,2.0185547-2.0048828,3.0996094l1.2529297.9638672c.7304688-1.2792969,1.5703125-2.5019531,2.3320312-3.7568359-.3671875-.3076172-.7207031-.6044922-1.1005859-.8964844-.1748047.1933594-.3212891.3837891-.4794922.5898438Zm2.2363281,1.390625c-.7138672,1.0917969-1.4238281,2.2109375-2.0732422,3.3515625.4755859.3662109.9482422.703125,1.4228516,1.0693359.6708984-1.2001953,1.4169922-2.3671875,2.1826172-3.4941406-.4150391-.4453125-.8818359-.8544922-1.3212891-1.2675781l-.2109375.3408203Z"/>
      <path class="cls-2" d="m17.7366355,28.4894233c-.3476562,1.1171875-.4111328,2.9580078-.4375,4.1201172l.0117188.7685547c-.0039062.1845703-.0917969.3603516-.2304688.4746094-.2460938.2041016-.5996094.1845703-.8164062-.078125-.0761719-.0927734-.1210938-.2109375-.1230469-.3388672-.0761719-.8447266.1376953-5.1435547.6777344-5.5888672.2460938-.203125.625-.1523438.8291016.09375.1269531.1542969.1513672.3417969.0888672.5488281Zm12.0664062-5.3916016c-.2226562.703125-.7753906,1.5732422-1.3457031,2.0449219-1.3574219,1.1191406-2.4287109.1357422-3.3320312-.9589844-.5351562-.6484375-.9921875-1.359375-1.4179688-2.0966797l-.2470703.203125c-1.03125.8251953-2.0263672,1.7236328-2.9560547,2.671875.5800781.921875,1.1279297,1.8691406,1.6640625,2.8017578.2763672.5234375.6347656,1.0839844.8359375,1.6425781.0917969.2363281.0361328.5146484-.1640625.6806641-.2314453.1904297-.625.1533203-.8291016-.09375-.0263672-.03125-.0634766-.0771484-.0869141-.1367188-.2675781-.6074219-.6074219-1.2089844-.9355469-1.7939453-.6679688-1.1865234-1.3964844-2.3212891-2.1103516-3.4697266-.1855469-.2880859-.1279297-.5947266.1337891-.8115234.3085938-.2539062.6591797-.0498047.8632812.1962891.8632812-.8681641,1.7666016-1.6914062,2.7080078-2.4667969.4169922-.34375,1.2685547-1.2285156,1.7773438-.6113281l.0761719.0927734c.4697266.8828125.9599609,1.6972656,1.5957031,2.46875.1904297.2314453.8935547,1.0517578,1.2089844,1.0244141.1708984-.0117188.3505859-.1083984.4892578-.2226562.6171875-.5087891.9228516-1.6162109,1.1542969-1.8066406.2617188-.2167969.6289062-.1816406.8320312.0654297.1396484.1699219.1484375.3691406.0859375.5761719Zm-8.9121094,6.1347656l-.0341797.6494141-.0654297,1.2724609-.0566406,1.4726562c.3320312.2441406.609375.6123047.8642578.9208984,1.0302734,1.2490234,1.96875,2.5751953,2.8945312,3.8857422.421875.6367188,1.0908203,1.5107422,1.4384766,2.1835938.1669922.328125.0712891.5888672-.1914062.8056641-.2158203.1777344-.5859375.0429688-.7382812-.1416016l-.0644531-.0771484c-.625-1.0410156-1.3261719-2.0166016-2.0283203-2.9931641-.7119141-1.0205078-1.4521484-2.0429688-2.2412109-3-.0390625.7070312-.078125,1.4130859-.1464844,2.1171875-.0390625.265625-.0527344.5634766-.1054688.8134766-.0292969.1533203-.0810547.2480469-.2050781.3496094-.2617188.2167969-.5996094.1845703-.8027344-.0625-.1269531-.1542969-.1425781-.2978516-.1259766-.4667969.2021484-1.9550781.2753906-3.9082031.3486328-5.8613281.0195312-.6376953.0273438-1.3193359.1025391-1.9511719.0166016-.1689453.0703125-.2910156.2099609-.40625.2460938-.203125.6123047-.1679688.8164062.078125.1132812.1396484.1308594.2548828.1308594.4111328Zm14.8867188,2.5214844c-.6484375.5351562-5.0341797,1.09375-6.0097656,1.1992188-.1816406,1.4462891-.5371094,3.3720703-1.3525391,4.6152344-.0341797.0537109-.0644531.0791016-.1103516.1171875-.2470703.203125-.5976562.1552734-.8007812-.0908203-.1787109-.2158203-.1542969-.4697266-.0195312-.6835938.6787109-1.1572266.9365234-2.5097656,1.1035156-3.8154297-.6884766.0761719-1.375.1240234-2.0458984.1591797-.2431641.0195312-.5029297.0507812-.7431641.0419922-.1835938-.0029297-.3349609-.0605469-.4628906-.2148438-.203125-.2470703-.1552734-.5966797.0917969-.8007812.1074219-.0888672.2109375-.1220703.3535156-.1367188.3154297-.0263672.6435547-.0371094.9707031-.0488281.6582031-.0507812,1.3046875-.1162109,1.9648438-.1953125.1171875-1.3662109.1367188-2.7568359-.0332031-4.09375-.9101562.75-1.78125,1.5478516-2.640625,2.3603516-.5302734.4882812-1.0917969,1.0029297-1.5449219,1.5849609-.0175781.0410156-.0644531.0791016-.0957031.1044922-.2460938.203125-.625.1533203-.828125-.09375-.1777344-.2158203-.1513672-.4980469-.0019531-.7246094.2167969-.3349609.5585938-.6425781.8398438-.9003906,1.0703125-1.0898438,2.2070312-2.1318359,3.3642578-3.0859375.3076172-.2548828.6660156-.5751953,1.0097656-.7558594.2548828-.1318359.5664062-.1298828.7568359.1015625.0644531.0771484.0976562.1796875.1171875.2666016.3662109,1.5126953.3535156,3.5712891.2324219,5.1220703,1.5683594-.2041016,3.8359375-.4414062,5.2958984-.9980469.2353516-.0908203.4892578-.0664062.6669922.1494141.2041016.2470703.1689453.6132812-.078125.8164062Z"/>
      <path class="cls-2" d="m46.2639793,12.9571968c.1074219.9296875-1.203125,5.4726562-1.5449219,6.4921875-.2324219.6972656-.5019531,1.4121094-.8164062,2.0830078.4384766.2509766.8847656.4746094,1.3417969.7167969.3662109.1972656.7685547.3769531,1.1445312.5917969.125.0712891.1962891.125.2587891.2509766.1513672.3037109.0341797.6523438-.2695312.8046875-.1962891.0976562-.3583984.0888672-.5537109.0078125-.3769531-.1699219-.7607422-.4033203-1.1269531-.6005859l-3.2636719-1.7021484c-.4023438-.2246094-1.1171875-.5380859-1.4833984-.8251953-.0810547-.0712891-.1523438-.125-.1962891-.2148438-.1425781-.2861328-.0175781-.6611328.2871094-.8134766.2324219-.1162109.3925781-.0625.6074219.0546875.7148438.4033203,1.4492188.796875,2.1992188,1.1826172.9140625-1.9755859,1.7402344-5.1142578,2.1367188-7.2783203-1.4667969.3291016-3.0068359,1.0966797-4.3496094,1.7666016-1.3779297.6865234-3.8388672,1.9814453-4.9130859,3.0537109-.0449219.0449219-.1074219.0986328-.1611328.125-.3046875.1513672-.6621094.0175781-.8144531-.2871094-.1152344-.2324219-.0703125-.4560547.0996094-.6523438.796875-.9570312,4.1445312-2.7597656,5.3076172-3.3408203,1.0917969-.5439453,4.3310547-2.0703125,5.5380859-1.9345703.2333984.0175781.4121094.1074219.5195312.3222656.0351562.0712891.0449219.1337891.0527344.1972656Z"/>
      <path class="cls-2" d="m67.0989402,7.0099311c-.1074219.9306641-2.4130859,5.0576172-2.9755859,5.9736328-.3857422.6259766-.8095703,1.2617188-1.2675781,1.84375.3701172.34375.7548828.6630859,1.1445312,1.0019531.3115234.2753906.6630859.5410156.9804688.8359375.1054688.0976562.1621094.1660156.1953125.3027344.078125.3300781-.1142578.6435547-.4453125.7226562-.2128906.0507812-.3681641.0058594-.5410156-.1171875-.328125-.2509766-.6494141-.5654297-.9609375-.8408203l-2.7929688-2.3974609c-.3408203-.3095703-.9667969-.7773438-1.2578125-1.1386719-.0625-.0888672-.1201172-.1572266-.1435547-.2539062-.0742188-.3115234.1337891-.6484375.4638672-.7275391.2529297-.0605469.3974609.0283203.5800781.1904297.6054688.5546875,1.2304688,1.1044922,1.8740234,1.6503906,1.3388672-1.7167969,2.8544922-4.5869141,3.7294922-6.6054688-1.5039062-.0117188-3.1757812.3876953-4.6357422.7353516-1.4980469.3574219-4.1884766,1.0605469-5.4775391,1.8613281-.0537109.0332031-.1269531.0712891-.1855469.0849609-.3300781.0791016-.6484375-.1328125-.7265625-.4638672-.0605469-.2529297.0332031-.4599609.2441406-.6132812.9921875-.7509766,4.6611328-1.7490234,5.9257812-2.0498047,1.1865234-.2832031,4.6875-1.0361328,5.8330078-.6308594.2216797.0703125.3759766.1982422.4316406.4316406.0185547.078125.0126953.1416016.0078125.2041016Z"/>
      <path class="cls-2" d="m78.5071433,6.3722358c-.96875,1.9765625-1.5419922,4.9072266-1.5068359,7.1074219.0068359.4199219.0332031.8203125.1191406,1.21875.1796875-.0625.3378906-.2060547.5371094-.2089844.3203125-.0048828.6054688.2705078.6103516.6103516.0029297.2001953-.0947266.3623047-.2529297.484375-.2363281.1845703-.9726562.4755859-1.2519531.4804688-.2597656.0039062-.4628906-.1328125-.5664062-.3505859-.2890625-.5761719-.3652344-1.5957031-.3759766-2.2353516-.0322266-2.0605469.5859375-5.8925781,1.6181641-7.6894531.1171875-.1826172.2949219-.3046875.515625-.3085938.3398438-.0058594.6240234.2705078.6289062.5898438.0019531.1201172-.0371094.2011719-.0751953.3017578Zm9.3056641,7.5742188c-.8798828.0146484-3.8378906-2.2597656-3.8525391-3.1796875-.0048828-.3203125.2509766-.5839844.5908203-.5898438.2402344-.0039062.421875.1132812.5449219.3115234.5351562.8916016,1.9326172,1.9501953,2.8984375,2.2949219.2421875.0957031.4042969.2939453.4091797.5537109.0048828.3398438-.2705078.6044922-.5908203.609375Zm.2148438-6.6259766c-.3408203.0048828-.6054688-.2705078-.6103516-.5908203-.0009766-.0996094.0166016-.1806641.0556641-.2607422-.3017578-.0957031-.7822266-.1074219-1.1015625-.1025391-.4804688.0078125-.9599609.0556641-1.4179688.203125-.0595703.0205078-.1191406.0410156-.1992188.0429688-.3203125.0048828-.6054688-.2705078-.6103516-.6103516-.0039062-.2607422.1728516-.4833984.4111328-.5673828.5175781-.1884766,1.3164062-.28125,1.8564453-.2900391.8203125-.0126953,2.3232422.1230469,2.3408203,1.2236328.0058594.4003906-.265625.9443359-.7246094.9521484Z"/>
      <path class="cls-2" d="m101.0745262,7.3136421c-.1015625.3671875-.2431641.7255859-.3447266,1.0917969-.0048828.0195312-.0126953.0585938.0019531.0830078-.0166016.078125-.0390625.1757812-.1103516.2207031-.1796875.3496094-.2910156.7558594-.7792969.6474609-.2539062-.0566406-.4453125-.3037109-.4082031-.5625-1.0283203-.1660156-2.0566406-.3330078-3.1035156-.421875-.4277344,1.7490234-.8339844,3.4833984-1.2236328,5.2412109-.1865234.8398438-.3681641,1.6601562-.5351562,2.5039062-.0996094.4492188-.2236328.9140625-.2646484,1.3759766l-.0175781.078125c-.0644531.2929688-.3554688.4951172-.6484375.4296875-.2929688-.0644531-.4296875-.2792969-.4472656-.5703125-.0195312-.3730469.59375-3.0449219.703125-3.5332031.5546875-2.5,1.1523438-5.0107422,1.8046875-7.4892578.2363281-.9716797.4921875-1.9394531.7822266-2.8798828.1142578-.4248047.2333984-.8701172.4033203-1.2626953.0996094-.2646484.3535156-.3925781.6269531-.3320312.234375.0517578.3789062.2275391.4335938.4443359.6816406.0693359,1.3691406.2011719,2.0527344.3535156.3710938.0820312,1.421875.3359375,1.7285156.5263672.3203125.2148438.3125.4384766.2382812.7705078-.2460938,1.1132812-.5527344,2.2138672-.8925781,3.2851562Zm-1.1425781-.9492188c-.9521484-.2324219-1.9609375-.3945312-2.9638672-.4941406-.1279297.484375-.2509766.9482422-.359375,1.4365234,1.0654297.0927734,2.1328125.2685547,3.1806641.4394531l.4160156-1.3212891-.2734375-.0605469Zm6.8886719,6.1796875c-.4882812-.1083984-.9960938-.2207031-1.4892578-.3095703l-.0732422.3320312c-.3652344,1.640625-.7675781,3.2724609-1.2089844,4.8955078-.2519531.9482422-.5214844,1.9746094-.9238281,2.8691406-.1152344.2412109-.3535156.3925781-.6269531.3320312-.2929688-.0644531-.4902344-.375-.4257812-.6679688l.0214844-.0976562c.2734375-.6777344.4921875-1.3867188.7070312-2.0771484-1.1328125-.0664062-2.28125-.1572266-3.4248047-.2675781-.6611328-.0654297-1.3564453-.0761719-2.0205078-.2236328l-.0585938-.0126953c-.2734375-.0605469-.4794922-.3320312-.4179688-.6054688.0683594-.3125.2919922-.4882812.6171875-.4775391.4082031.0087891.8378906.1044922,1.2568359.15625.1191406-.6298828.2626953-1.2744141.4013672-1.8994141.2421875-1.09375.484375-2.1875.7861328-3.2675781-.6103516-.1152344-1.2128906-.1669922-1.8076172-.2578125l-.078125-.0175781c-.2929688-.0644531-.4755859-.3515625-.4101562-.6445312.0644531-.2929688.2832031-.4492188.5703125-.4472656.3261719.0107422.6582031.0849609.9550781.1298828.7353516.1025391,1.4628906.2431641,2.1738281.3603516,1.8691406.3525391,3.7421875.6865234,5.5976562,1.0976562.3515625.078125.6328125.2841797.5419922.6943359-.0654297.2929688-.3701172.4707031-.6630859.40625Zm-6.9609375-8.7167969c-.7226562-.1601562-1.46875-.3056641-2.2128906-.3681641l-.3769531,1.3300781c1.0761719.1367188,2.1826172.3203125,3.2324219.5742188.1152344-.4257812.2304688-.8505859.3261719-1.2802734-.3242188-.1132812-.6367188-.1826172-.96875-.2558594Zm.234375,11.5078125c-.0869141.390625-.1494141.765625-.2363281,1.15625,1.0849609.0976562,2.1699219.1943359,3.2441406.2480469l.2382812-.8896484c-1.078125-.21875-2.1699219-.3789062-3.2460938-.5146484Zm3.4707031-1.4228516c-1.0107422-.2451172-2.0283203-.3681641-3.0371094-.5302734l-.1914062.859375c1.0917969.1601562,2.1835938.3203125,3.2617188.5390625.0722656-.2304688.1240234-.4648438.1757812-.6992188l.0253906-.1171875-.234375-.0517578Zm.6875-1.8964844c-1.078125-.2197266-2.1416016-.4140625-3.2246094-.6132812l-.2421875.9091797c1.0957031.140625,2.203125.3242188,3.2724609.5830078l.1943359-.8789062Zm7.4248047-4.6445312c-.6552734,2.9492188-1.3525391,5.9091797-2.1044922,8.8369141-.2773438,1.0654297-.5546875,2.1308594-.8710938,3.1875-.1933594.5927734-.3710938,1.2089844-.6416016,1.7841797-.1152344.2412109-.3681641.3691406-.6220703.3125-.5078125-.1123047-1.4072266-.6806641-1.7714844-1.0683594-.1308594-.1523438-.1972656-.3105469-.1542969-.5058594.0644531-.2929688.3515625-.4755859.6445312-.4101562.1171875.0253906.1855469.0820312.2714844.1621094.2578125.2216797.5205078.4228516.8349609.5751953.4580078-1.2304688.7871094-2.5302734,1.1279297-3.7871094.4570312-1.7841797.890625-3.5527344,1.3037109-5.3251953l-.5273438-.1171875c-1.09375-.2431641-2.2158203-.4511719-3.3154297-.5722656-.0683594.0263672-.1074219.0175781-.1855469,0-.2929688-.0644531-.4394531-.3232422-.4179688-.6044922.0214844-.4667969.1728516-.9658203.2773438-1.4345703.2119141-.9570312.8378906-3.6875,1.2587891-4.4755859.1103516-.2207031.3486328-.3730469.6025391-.3164062.2929688.0644531.5107422.3789062.4453125.671875-.0078125.0390625-.0322266.0546875-.0410156.09375-.3378906.7851562-.5488281,1.640625-.7695312,2.4521484,1.1738281.1582031,2.359375.359375,3.4980469.6738281l.0830078-.3710938.2255859-1.015625c-.3476562-.0976562-.4804688-.1474609-.8320312-.2255859-.5273438-.1171875-1.2773438-.2421875-1.8144531-.3203125l.15625.0341797c-.296875-.0449219-.4941406-.3554688-.4248047-.6679688.0605469-.2734375.2998047-.4248047.5849609-.4228516.5302734.0146484,1.1113281.1640625,1.6386719.28125.4101562.0908203,1.2460938.296875,1.5917969.4960938.2167969.1308594.3300781.3603516.2734375.6142578l-.1953125.8789062-.1298828.5859375Zm-2.171875,1.0146484c-.8984375-.2001953-1.8251953-.3642578-2.7412109-.4853516-.0566406.2539062-.1269531.4833984-.1835938.7373047l-.0429688.1953125c-.0390625.1757812-.0634766.3759766-.1074219.5712891,1.1738281.1572266,2.359375.359375,3.5029297.6542969.1083984-.4882812.2216797-.9960938.3486328-1.4804688-.2490234-.0761719-.5029297-.1318359-.7763672-.1923828Z"/>
      <path class="cls-2" d="m119.4651512,20.0255561c-.6328125.1630859-2.0751953.0263672-2.6523438-.25-.7753906-.3710938-.8671875-2.078125-.90625-2.7841797-.0488281-.7773438-.0449219-3.1474609.2753906-3.8144531.1376953-.2890625.5117188-.4208984.7998047-.2822266.2705078.1298828.3818359.4052734.3330078.6914062-.0644531.3681641-.1298828.7363281-.1777344,1.1123047-.0654297.8330078-.0957031,3.3027344.265625,4.0292969.5048828.1972656,1.2910156.1748047,1.8271484.1210938.1435547-.0205078.2509766-.0126953.3759766.046875.3066406.1474609.4208984.5117188.2832031.8007812-.0869141.1806641-.2285156.2900391-.4238281.3291016Zm9.1464844,2.4736328c-.2880859-.1386719-.4111328-.5292969-.2734375-.8183594.0439453-.0898438.0957031-.1533203.1669922-.2089844.3261719-.2646484.5537109-.5996094.734375-.9785156.1904297-.3964844.4375-1.0986328.3056641-1.5166016-.0566406-.1601562-.0507812-.3115234.0273438-.4746094.1386719-.2880859.5029297-.4013672.7910156-.2636719.8125.3886719.234375,2.1962891-.0410156,2.7734375-.234375.4873047-1.0253906,1.8154297-1.7109375,1.4873047Z"/>
      <path class="cls-2" d="m143.7571433,26.6681343c-.9697266-.3896484-1.9384766-1.0351562-2.7919922-1.6650391-2.2675781.9804688-7.265625,3.6494141-8.7636719,5.5263672-.2109375.265625-.2929688.5595703-.4296875.7314453-.1992188.25-.609375.2822266-.859375.0820312-.515625-.4121094.0390625-1.171875.3388672-1.546875,1.6103516-2.0175781,6.1689453-4.5234375,8.6650391-5.6289062-.4433594-.40625-.9443359-.8056641-1.3515625-1.2578125-.2128906-.2470703-.2314453-.5439453-.03125-.7939453.1992188-.2509766.5742188-.3349609.8271484-.1074219l.0634766.0498047c.5722656.5341797,1.1318359,1.0830078,1.7421875,1.5703125.328125-.1230469.6933594-.2919922,1.0273438-.3574219.1816406-.0351562.3564453.0019531.5126953.1269531.2509766.2001953.3076172.578125.1074219.828125-.125.15625-.2998047.2470703-.484375.2539062.6044922.4306641,1.2392578.7578125,1.9013672,1.0820312.0595703.0214844.0908203.046875.1376953.0839844.2666016.2119141.3076172.578125.0947266.84375-.1748047.21875-.453125.2783203-.7060547.1787109Zm-2.6767578,11.9189453c-.75-.5986328-2.2304688-2.3691406-2.515625-3.2626953-.0664062-.2060547-.0449219-.3935547.0800781-.5498047.2128906-.265625.6025391-.3378906.8691406-.1259766.109375.0878906.1464844.1689453.1875.2783203.4072266.9648438,1.3964844,2.0351562,2.1591797,2.7470703.2685547.2402344.2919922.5654297.0673828.8466797-.2128906.265625-.5976562.2666016-.8476562.0664062Zm4.3876953-5.3046875c-.0625-.0498047-.1123047-.1152344-.1630859-.1816406-.1367188-.2119141-.3154297-.4052734-.5195312-.5673828-.703125-.5625-1.6445312-.9550781-2.5097656-1.1845703-.0878906-.0185547-.1630859-.0537109-.2412109-.1152344-.2666016-.2128906-.3232422-.5908203-.1103516-.8564453.1503906-.1875.3837891-.2568359.6035156-.2099609.9306641.1796875,2.2441406.84375,2.9785156,1.4306641.4072266.3242188,1.2265625,1.0292969.7773438,1.5927734-.1992188.25-.5644531.2910156-.8154297.0917969Z"/>
      <path class="cls-2" d="m148.6780418,49.6320015c-.5351562-.6728516.9746094-1.7949219,1.8349609-2.4785156.2509766-.1992188.6435547-.1542969.8427734.0966797.6347656.7978516-1.1757812,1.4443359-1.703125,2.3232422-.0351562.0527344-.0849609.1181641-.1474609.1679688-.2666016.2119141-.6162109.1572266-.8271484-.109375Zm11.9550781-8.8320312c-2.2753906,1.6025391-4.7109375,3.3583984-6.9023438,5.0996094-.234375.1865234-.6445312.1542969-.8427734-.0966797-.3730469-.4697266.0371094-.8212891.3818359-1.0947266,1.4394531-1.1435547,2.9140625-2.2128906,4.3925781-3.3095703.6542969-.4941406,1.6494141-1.234375,2.3339844-1.625.2597656-.1552734.5820312-.1044922.78125.1455078.2226562.2822266.1689453.6318359-.0976562.8427734l-.046875.0380859Z"/>
    </g>
    <g>
      <path class="cls-2" d="m46.5364402,59.0050483c-.7333984,1.1992188-1.5400391,2.2460938-2.4208984,3.1396484l-.2597656-.2001953c1.1074219-1.5996094,2.1074219-3.5732422,3-5.9199219.2539062-.6396484.4863281-1.3759766.7011719-2.2099609.2128906-.8330078.3398438-1.5166016.3789062-2.0498047,1.3476562.4267578,2.0205078.7333984,2.0205078.9199219,0,.0537109-.0595703.0996094-.1806641.1396484l-.359375.1201172c-.4804688,1.4003906-1.09375,2.8203125-1.8398438,4.2597656.4394531.3476562.6601562.59375.6601562.7402344,0,.0673828-.0605469.1337891-.1796875.2001953l-.28125.1396484v6.7001953c.0273438,1.6533203.0800781,3.2197266.1601562,4.7001953-.1064453.1328125-.2695312.2568359-.4902344.3701172-.21875.1132812-.4433594.1699219-.6699219.1699219-.1191406,0-.2265625-.0400391-.3193359-.1201172-.09375-.0800781-.1396484-.1738281-.1396484-.2802734.0527344-.7861328.0996094-1.5498047.1396484-2.2900391.0400391-.7392578.0664062-1.7099609.0800781-2.9091797v-5.6201172Zm12.8603516-3.1601562c.0390625-.0537109.1054688-.1435547.1992188-.2705078.09375-.1259766.1796875-.1894531.2597656-.1894531s.2441406.0927734.4902344.2802734c.2460938.1865234.4726562.3867188.6796875.5996094s.3105469.3671875.3105469.4599609c-.0664062.0800781-.1699219.1601562-.3105469.2402344-.1396484.0800781-.3027344.1396484-.4892578.1796875v1.9599609c.0400391,1.6533203.0869141,2.9267578.1396484,3.8203125-.0800781.1201172-.2539062.2402344-.5195312.359375-.2675781.1201172-.4941406.1806641-.6796875.1806641h-.1806641v-.6601562h-3.5800781c-.0800781.7998047-.2138672,1.5166016-.3994141,2.1494141-.1875.6337891-.4609375,1.2109375-.8203125,1.7304688,1.8398438,1.2001953,4.3066406,1.8535156,7.4003906,1.9599609v.2197266c-.28125.0800781-.5175781.2333984-.7109375.4599609s-.3164062.5068359-.3691406.8408203c-1.5332031-.2001953-2.8671875-.5234375-4-.9707031-1.1337891-.4462891-2.09375-1.0498047-2.8808594-1.8095703-.5859375.6269531-1.3398438,1.1728516-2.2597656,1.6396484s-2.0605469.8671875-3.4199219,1.2001953l-.1796875-.2998047c1.2929688-.4541016,2.3564453-.9472656,3.1894531-1.4804688.8339844-.5332031,1.4902344-1.1328125,1.9707031-1.7998047-.5205078-.6269531-.9667969-1.3662109-1.3398438-2.2197266-.5205078.7333984-.9609375,1.3193359-1.3203125,1.7597656.0263672.0400391.0390625.0996094.0390625.1796875,0,.1337891-.046875.2333984-.1386719.3007812l-.8203125-1.1601562c.9589844-.6533203,1.6728516-1.1806641,2.1396484-1.5800781l.2402344-.7402344.6201172.3398438-.5605469.5800781c.4404297.7470703.9472656,1.3798828,1.5195312,1.9003906.4667969-.8671875.7539062-1.9335938.8613281-3.2001953h-3.3408203v.4199219c0,.0664062-.1132812.1533203-.3398438.2597656-.2275391.1074219-.4541016.1601562-.6806641.1601562-.0927734,0-.1699219-.0400391-.2294922-.1201172s-.0898438-.1728516-.0898438-.2802734c.0537109-.5859375.0927734-1.3398438.1201172-2.2597656v-1.3398438c0-1.6796875-.0869141-3.0400391-.2597656-4.0800781l1.5800781.7402344h3.2792969v-2.1201172h-1.6796875c-.9472656.0136719-1.9472656.1064453-3,.2802734l-.5195312-1.0205078c.7324219.0800781,1.6191406.1337891,2.6601562.1601562h7.1386719l.4208984-.5996094c.0400391-.0664062.1025391-.1572266.1904297-.2705078.0859375-.1132812.15625-.2001953.2089844-.2597656.0537109-.0595703.1074219-.0898438.1601562-.0898438.0800781,0,.2539062.1035156.5195312.3095703.2675781.2070312.5175781.4306641.75.6699219.234375.2402344.3505859.4072266.3505859.5-.0126953.2138672-.1728516.3203125-.4794922.3203125h-5.4609375v2.1201172h3.3203125l.3007812-.4599609Zm-4.8808594,3.3798828v-2.3398438h-3.3798828v2.3398438h3.3798828Zm-.0195312,2.9794922c.0136719-.1992188.0195312-.5126953.0195312-.9394531v-1.4804688h-3.3798828v2.4199219h3.3603516Zm1.2792969-.9794922c0,.4404297-.0058594.7666016-.0195312.9794922h3.5400391v-2.4199219h-3.5205078v1.4404297Zm3.5205078-2v-2.3398438h-3.5205078v2.3398438h3.5205078Z"/>
      <path class="cls-2" d="m68.9964012,60.9650093c-1.2402344,2.359375-2.9072266,4.3535156-5,5.9794922l-.2402344-.2792969c1.0136719-1.0136719,1.9335938-2.2236328,2.7597656-3.6308594.8261719-1.40625,1.5-2.8564453,2.0205078-4.3496094h-1.3798828c-.8007812.0136719-1.6269531.1064453-2.4804688.2802734l-.5-1.0205078c.7333984.0800781,1.6201172.1337891,2.6601562.1601562h2.1601562v-3.6396484c-1.5332031.3066406-3.0605469.5332031-4.5800781.6796875l-.0800781-.3603516c1.6660156-.3330078,3.3066406-.7998047,4.9199219-1.3994141,1.3466797-.5068359,2.4394531-1.0800781,3.2802734-1.7197266.9462891.9462891,1.4199219,1.5068359,1.4199219,1.6796875,0,.09375-.1005859.1269531-.2998047.0996094l-.5-.0595703c-.7597656.2666016-1.734375.5400391-2.9199219.8193359v3.9003906h1.9394531l.4003906-.5996094c.0390625-.0537109.0996094-.1367188.1796875-.25s.1503906-.2001953.2099609-.2607422c.0595703-.0595703.1162109-.0898438.1699219-.0898438.0800781,0,.25.1035156.5107422.3105469.2597656.2070312.5.4267578.71875.6601562.2207031.2333984.3300781.3964844.3300781.4892578-.0527344.2138672-.21875.3203125-.5.3203125h-3.9589844v1.4599609c1.2529297.5595703,2.1699219,1.1738281,2.75,1.8398438.5800781.6669922.8691406,1.2597656.8691406,1.7802734,0,.2265625-.0488281.4072266-.1494141.5400391-.1005859.1337891-.2373047.2001953-.4101562.2001953-.1601562,0-.3271484-.0664062-.5-.2001953-.1474609-.5605469-.4638672-1.1796875-.9501953-1.8603516-.4863281-.6796875-1.0234375-1.3125-1.609375-1.8994141v4.4394531c.0263672,1.6533203.0800781,3.2197266.1601562,4.7001953-.09375.1328125-.2480469.2568359-.4609375.3701172s-.453125.1699219-.7197266.1699219c-.1064453,0-.2060547-.0400391-.2998047-.1201172s-.140625-.1738281-.140625-.2802734c.0537109-.7861328.1005859-1.5498047.140625-2.2900391.0400391-.7392578.0664062-1.7099609.0800781-2.9091797v-3.6601562Zm6.3203125-3.3398438c0-1.6806641-.0878906-3.046875-.2597656-4.1005859.7460938.2138672,1.2617188.3837891,1.5488281.5097656.2871094.1269531.4306641.2373047.4306641.3300781,0,.0673828-.0595703.1337891-.1806641.2001953l-.3398438.2197266v6.1601562c.0273438,1.6533203.0800781,3.2207031.1601562,4.7001953-.0800781.1464844-.2333984.2773438-.4599609.3896484-.2265625.1142578-.453125.1699219-.6796875.1699219-.1064453,0-.1972656-.0390625-.2705078-.1191406s-.109375-.1738281-.109375-.2802734c.0800781-1.2666016.1328125-2.5263672.1601562-3.7802734v-4.3994141Zm4.1396484-1.3408203c0-1.6796875-.0869141-3.0458984-.2607422-4.0996094.7607422.2265625,1.2871094.4033203,1.5800781.5302734s.4404297.2363281.4404297.3300781c0,.0664062-.0595703.1328125-.1796875.1992188l-.3408203.2001953v14.7998047c0,.4140625-.0488281.7470703-.1494141,1-.1005859.2539062-.296875.4599609-.5898438.6201172-.2939453.1601562-.7333984.2734375-1.3203125.3398438-.0927734-.4667969-.2333984-.7861328-.4199219-.9599609-.3330078-.2265625-.9199219-.40625-1.7597656-.5400391v-.2998047c1.4130859.1201172,2.2470703.1806641,2.5.1806641.1865234,0,.3164062-.0371094.3896484-.1103516s.1103516-.1904297.1103516-.3496094v-11.8408203Z"/>
      <path class="cls-2" d="m86.556948,56.2247749c-.7207031.0136719-1.4677734.1064453-2.2402344.2802734l-.5205078-1c.7333984.0800781,1.6201172.1328125,2.6601562.1601562h3.2001953l.359375-.5400391c.0410156-.0537109.0966797-.1308594.1699219-.2304688.0742188-.0996094.1367188-.1767578.1904297-.2294922.0537109-.0537109.1064453-.0800781.1601562-.0800781.0791016,0,.2431641.0927734.4892578.2792969.2470703.1875.4736328.3867188.6806641.6005859.2060547.2128906.3095703.3662109.3095703.4599609-.0527344.2001953-.2197266.2998047-.5.2998047h-4.9589844Zm2.5195312,1.4794922c.0390625-.0527344.0927734-.1259766.1601562-.2197266.0664062-.0927734.1230469-.1630859.1699219-.2099609s.0957031-.0703125.1503906-.0703125c.1328125,0,.3925781.1738281.7792969.5205078s.5800781.59375.5800781.7402344c-.0537109.2128906-.2207031.3193359-.5.3193359h-2.2597656c-.9472656.0136719-1.9472656.1074219-3,.2802734l-.5-1.0400391c.7324219.0800781,1.6191406.1337891,2.6601562.1601562h1.4394531l.3203125-.4804688Zm-.0400391,2.5400391c.0263672-.0400391.0732422-.1123047.1396484-.2197266.0664062-.1064453.1269531-.1826172.1796875-.2294922.0537109-.046875.1074219-.0703125.1601562-.0703125.1328125,0,.3935547.1796875.7802734.5400391s.5800781.6132812.5800781.7597656c-.0400391.2001953-.1933594.2998047-.4599609.2998047h-2.2597656c-.9472656.0136719-1.9472656.1074219-3,.2802734l-.5-1.0195312c.7324219.0800781,1.6191406.1328125,2.6601562.1591797h1.3789062l.3408203-.5Zm.3398438,2.5605469c.0263672-.0400391.0693359-.1035156.1298828-.1904297.0605469-.0859375.1132812-.1494141.1601562-.1894531s.0966797-.0605469.1503906-.0605469c.0800781,0,.2402344.0898438.4794922.2705078.2402344.1796875.4599609.3769531.6601562.5898438.2001953.2138672.2998047.3671875.2998047.4599609-.0527344.0800781-.1533203.1572266-.2998047.2304688-.1474609.0732422-.3134766.1298828-.5.1699219v1.6191406c.0263672,1.3076172.0664062,2.3408203.1201172,3.1005859-.0664062.1064453-.2236328.2197266-.4707031.3398438-.2460938.1201172-.4697266.1796875-.6699219.1796875-.0800781,0-.1425781-.0400391-.1894531-.1201172-.046875-.0791016-.0703125-.1728516-.0703125-.2792969l.0800781-.3203125v-.3798828h-3.1992188v.4599609c.0390625.4667969.0664062.7333984.0791016.7998047-.0400391.1201172-.1699219.2363281-.3896484.3505859-.2207031.1123047-.4501953.1699219-.6894531.1699219-.0800781,0-.1474609-.0400391-.2011719-.1201172-.0527344-.0800781-.0800781-.1738281-.0800781-.2802734.0537109-.546875.09375-1.2265625.1210938-2.0400391v-1.2402344c0-1.5058594-.0800781-2.7597656-.2402344-3.7597656l1.5.6796875h2.9199219l.2998047-.4394531Zm-.2802734-10.1396484c.0527344-.0673828.1074219-.140625.1601562-.2207031s.109375-.1533203.1699219-.2197266.1171875-.0996094.1699219-.0996094c.0800781,0,.2402344.0927734.4804688.2792969.2402344.1875.4628906.3867188.6699219.6005859.2070312.2128906.3105469.3662109.3105469.4599609-.0410156.2128906-.2070312.3193359-.5.3193359h-2.3203125c-.9472656.0136719-1.9472656.1074219-3,.2802734l-.5-1.0400391c.7324219.0800781,1.6191406.1337891,2.6601562.1601562h1.3398438l.359375-.5195312Zm-3.0390625,11.1796875v3.8203125h3.1992188v-3.8203125h-3.1992188Zm15.8994141,5.0595703l-.0400391.2207031c-.2802734.0400391-.5273438.15625-.7402344.3496094s-.3671875.4501953-.4599609.7695312c-1.9736328-.7333984-3.5800781-1.7529297-4.8193359-3.0595703-1.5742188,1.3466797-3.5410156,2.3662109-5.9003906,3.0595703l-.1601562-.2998047c2.1865234-.8535156,3.9931641-2.0195312,5.4199219-3.5-1.0400391-1.3330078-1.8066406-3.0058594-2.2998047-5.0195312h-.5c-.2275391.0136719-.4667969.1064453-.7197266.2792969l-.5410156-1c.734375.0800781,1.6210938.1337891,2.6601562.1601562h4.3808594l.359375-.3994141c.0400391-.0400391.1171875-.1201172.2304688-.2402344s.2099609-.1796875.2890625-.1796875c.1210938,0,.3740234.1796875.7607422.5400391.3867188.359375.5800781.6132812.5800781.7597656-.0800781.09375-.1767578.15625-.2900391.1894531-.1132812.0341797-.2773438.0634766-.4902344.0908203-.7333984,1.90625-1.7197266,3.4931641-2.9599609,4.7597656,1.3994141,1.1464844,3.1464844,1.9863281,5.2402344,2.5195312Zm-4.6806641-16.4199219c.0273438-.0400391.0703125-.1025391.1308594-.1894531.0595703-.0869141.1132812-.1503906.1601562-.1904297.0458984-.0400391.0957031-.0595703.1494141-.0595703.1201172,0,.3603516.1865234.7197266.5595703.3603516.3730469.5410156.6337891.5410156.7802734-.1474609.1601562-.3613281.2597656-.640625.2998047v4.1396484c0,.1074219.0234375.1767578.0703125.2099609.046875.0341797.15625.0507812.3300781.0507812h.8398438c.4257812,0,.6728516-.0068359.7402344-.0205078.0800781-.0126953.1367188-.0302734.1699219-.0498047.0332031-.0205078.0703125-.0703125.109375-.1503906.0527344-.1464844.1669922-.6796875.3398438-1.5996094l.1601562-.7998047h.2402344l.0605469,2.4394531c.1601562.0800781.265625.1601562.3193359.2402344s.0800781.1796875.0800781.2998047c0,.2802734-.1669922.4833984-.5.6103516s-.9267578.1894531-1.7802734.1894531h-1.1191406c-.5078125,0-.84375-.0830078-1.0107422-.25-.1669922-.1660156-.25-.4697266-.25-.9091797v-4.5800781h-2.9199219v1.1201172c0,1.1328125-.1962891,2.1894531-.5898438,3.1699219-.3935547.9794922-1.2041016,1.8095703-2.4306641,2.4892578l-.1992188-.2597656c.8125-.7460938,1.3564453-1.5595703,1.6298828-2.4394531.2724609-.8808594.4101562-1.8671875.4101562-2.9599609v-1.1806641c0-.4794922-.0205078-.90625-.0595703-1.2792969l1.5.7597656h2.5l.2988281-.4404297Zm-3.8994141,8.9404297c.5205078,1.6533203,1.3730469,3.0732422,2.5595703,4.2597656,1.0273438-1.2666016,1.8007812-2.6865234,2.3203125-4.2597656h-4.8798828Z"/>
      <path class="cls-2" d="m106.2161277,59.2443061c-.6796875,1.1738281-1.3535156,2.1669922-2.0205078,2.9804688l-.2597656-.1796875c.9335938-1.6269531,1.7734375-3.6132812,2.5205078-5.9599609.2128906-.640625.40625-1.3837891.5800781-2.2304688.1728516-.8466797.2666016-1.5429688.2802734-2.0898438,1.359375.4130859,2.0390625.7070312,2.0390625.8798828,0,.0673828-.0595703.1201172-.1796875.1601562l-.359375.1396484c-.4140625,1.4003906-.9472656,2.8271484-1.6005859,4.2802734.4404297.3466797.6601562.59375.6601562.7402344,0,.0927734-.0595703.1601562-.1806641.2001953l-.2988281.1191406v6.7207031c.0253906,1.6533203.0800781,3.2197266.1601562,4.6992188-.1074219.1201172-.2675781.2373047-.4804688.3505859-.2138672.1132812-.4277344.1699219-.640625.1699219-.1064453,0-.2070312-.0400391-.2998047-.1201172s-.1396484-.1738281-.1396484-.2802734c.0527344-.7861328.0996094-1.5498047.1396484-2.2900391.0400391-.7392578.0673828-1.7099609.0800781-2.9091797v-5.3808594Zm4.2402344,1.7001953c0,1.2138672-.0439453,2.3271484-.1298828,3.3398438-.0869141,1.0136719-.2929688,2.0507812-.6201172,3.1103516s-.8173828,2.0029297-1.4697266,2.8300781l-.3007812-.2197266c.5869141-1.2275391.9628906-2.5566406,1.1308594-3.9902344.1660156-1.4335938.25-3.1230469.25-5.0703125v-2.1601562c0-.9199219-.046875-1.6660156-.140625-2.2392578l1.5.7597656h8.5l.3808594-.5800781c.0527344-.0664062.109375-.1464844.1699219-.2402344.0595703-.0927734.1230469-.1728516.1894531-.2402344.0664062-.0664062.1269531-.0996094.1796875-.0996094.0800781,0,.2539062.0996094.5195312.2998047.2675781.2001953.5136719.4140625.7402344.640625s.3398438.3867188.3398438.4794922c-.0390625.2138672-.2060547.3203125-.5.3203125h-10.7392578v3.0595703Zm9.2597656-7.1396484c.0537109-.0664062.1064453-.1396484.1601562-.2197266s.1103516-.1533203.1699219-.2207031c.0595703-.0664062.1162109-.0996094.1699219-.0996094.0800781,0,.2402344.0898438.4794922.2695312.2402344.1806641.4638672.3769531.6699219.5908203.2070312.2128906.3105469.3662109.3105469.4599609-.0400391.2128906-.1992188.3193359-.4804688.3193359h-3.4394531v.4599609c.0400391.4941406.0664062.7675781.0800781.8203125-.0527344.1064453-.1699219.2070312-.3496094.2998047-.1796875.09375-.4179688.140625-.7109375.140625-.0927734,0-.1630859-.0400391-.2089844-.1201172-.046875-.0800781-.0703125-.1738281-.0703125-.2802734,0-.0263672.0263672-.2734375.0800781-.7402344v-.5800781h-2.9003906v.5c.0400391.5205078.0664062.8076172.0800781.8603516-.0400391.1201172-.15625.2197266-.3496094.2998047s-.4238281.1201172-.6904297.1201172c-.0927734,0-.1630859-.0400391-.2099609-.1201172s-.0703125-.1728516-.0703125-.2802734c0-.0263672.0273438-.2861328.0800781-.7792969v-.6005859h-1.0996094c-.640625.0136719-1.2929688.1074219-1.9599609.2802734l-.4794922-1c.6660156.0800781,1.4658203.1337891,2.3994141.1601562h1.1396484c0-1.0800781-.0527344-1.9335938-.1601562-2.5605469.6806641.2001953,1.1542969.3642578,1.4199219.4902344.2675781.1269531.4003906.2373047.4003906.3300781,0,.0673828-.0605469.1337891-.1796875.2001953l-.3203125.2197266v1.3203125h2.9003906c0-1.0800781-.0537109-1.9335938-.1601562-2.5605469,1.2128906.3603516,1.8203125.6337891,1.8203125.8203125,0,.0673828-.0537109.1337891-.1601562.2001953l-.3203125.2197266v1.3203125h1.5996094l.3603516-.5400391Zm-7.0400391,13.4199219l.0195312.7998047c.0136719.6005859.0410156,1.1533203.0800781,1.6601562-.0527344.1201172-.1835938.2363281-.3896484.3496094s-.4228516.1699219-.6494141.1699219c-.09375,0-.1777344-.0390625-.25-.1191406-.0742188-.0800781-.1103516-.1738281-.1103516-.2802734.0927734-1.3466797.1533203-2.8271484.1806641-4.4404297v-2.4199219c0-1.6796875-.0878906-3.0458984-.2607422-4.0996094l1.4794922.7001953h6.3203125l.2597656-.3798828c.0273438-.0400391.0664062-.0966797.1210938-.1708984.0527344-.0722656.0996094-.1298828.1386719-.1699219.0410156-.0400391.0878906-.0595703.140625-.0595703.0800781,0,.2460938.0830078.5.25s.4863281.3466797.7001953.5400391c.2128906.1933594.3193359.3369141.3193359.4296875-.1328125.1738281-.40625.3134766-.8193359.4199219v8.0400391c0,.3730469-.0371094.6738281-.1103516.9003906s-.2304688.4160156-.4697266.5703125c-.2402344.1523438-.6005859.2558594-1.0800781.3095703-.0263672-.2265625-.0634766-.4169922-.1103516-.5703125s-.1171875-.2695312-.2089844-.3496094c-.1738281-.2138672-.546875-.3603516-1.1210938-.4404297v-.3398438c.8398438.0800781,1.3603516.1201172,1.5605469.1201172.1328125,0,.2265625-.0302734.2792969-.0898438.0537109-.0605469.0800781-.15625.0800781-.2900391v-2.3398438h-2.7597656v1.2197266l.0205078.7597656c.0126953.546875.0400391,1.0732422.0791016,1.5800781-.0664062.1201172-.1933594.2333984-.3789062.3398438-.1875.1064453-.4140625.1601562-.6796875.1601562-.0800781,0-.1474609-.0400391-.2011719-.1201172-.0527344-.0800781-.0800781-.1728516-.0800781-.2792969.0537109-.6142578.09375-1.3808594.1210938-2.3007812v-1.359375h-2.7207031v1.2998047Zm2.7207031-4.7998047v-2.2802734h-2.7207031v2.2802734h2.7207031Zm-2.7207031.5595703v2.3603516h2.7207031v-2.3603516h-2.7207031Zm3.8398438-.5595703h2.7597656v-2.2802734h-2.7597656v2.2802734Zm0,.5595703v2.3603516h2.7597656v-2.3603516h-2.7597656Z"/>
    </g>
    <g>
      <path class="cls-2" d="m43.1292137,109.7862983c.0800781-.0996094.1601562-.2099609.2402344-.3300781.0791016-.1201172.1640625-.2294922.2539062-.3300781.0898438-.0996094.1757812-.1494141.2558594-.1494141.1796875,0,.5644531.2744141,1.1542969.8242188.5898438.5507812.8847656.9355469.8847656,1.1552734-.0195312.2998047-.2597656.4501953-.71875.4501953h-5.9404297c.7392578.4404297,1.2841797.9150391,1.6347656,1.4248047.3496094.5097656.5244141.9951172.5244141,1.4550781,0,.3603516-.0898438.6601562-.2695312.9003906-.1796875.2392578-.4101562.359375-.6894531.359375-.2607422,0-.5205078-.1201172-.7802734-.359375.0195312-.6201172-.1103516-1.2705078-.3896484-1.9501953-.28125-.6796875-.6308594-1.2900391-1.0507812-1.8300781h-.9902344c-1.4804688,2.3798828-3.0996094,4.2294922-4.859375,5.5498047l-.390625-.3603516c.8603516-.9794922,1.7001953-2.1689453,2.5205078-3.5693359.4990234-.9003906.9697266-1.9501953,1.4101562-3.1503906.4394531-1.2001953.7197266-2.2099609.8398438-3.0302734,1.7998047.7402344,2.7001953,1.2304688,2.7001953,1.4707031,0,.0595703-.0898438.1298828-.2695312.2099609l-.5107422.1494141c-.2607422.5605469-.5800781,1.1904297-.9599609,1.890625h4.859375l.5410156-.7802734Zm10.5898438,5.6699219c.0390625-.0595703.1054688-.1542969.1953125-.2851562.0898438-.1298828.1699219-.2246094.2402344-.2851562.0693359-.0595703.1445312-.0898438.2246094-.0898438.1191406,0,.3544922.1308594.7050781.390625.3496094.2597656.6699219.5449219.9589844.8544922.2910156.3105469.4355469.5351562.4355469.6748047-.2402344.2802734-.5996094.4609375-1.0800781.5400391v1.7402344l.0302734,1.0498047c.0195312.8007812.0595703,1.5507812.1201172,2.25-.1005859.1806641-.3359375.3603516-.7050781.5400391-.3710938.1806641-.7050781.2705078-1.0058594.2705078-.1396484,0-.2441406-.0605469-.3144531-.1806641s-.1054688-.2597656-.1054688-.4199219c.0205078-.0195312.0605469-.1894531.1210938-.5097656v-.5703125h-7.0507812v3.4804688h8.2207031l.4794922-.5703125c.0595703-.0791016.1601562-.1943359.2998047-.3447266.140625-.1503906.2705078-.2246094.390625-.2246094.1992188,0,.5839844.25,1.1542969.75s.8554688.859375.8554688,1.0791016c-.1796875.2402344-.5605469.3710938-1.140625.390625-.2988281,3.7402344-1.0195312,6.0498047-2.1601562,6.9296875-.6992188.5195312-1.5898438.7802734-2.6699219.7802734,0-.6201172-.1396484-1.0703125-.4199219-1.3505859-.359375-.2792969-1.109375-.5097656-2.25-.6894531l.03125-.5400391c1.6992188.1601562,2.7890625.2402344,3.2695312.2402344.2402344,0,.4238281-.015625.5546875-.0449219.1298828-.0302734.265625-.0947266.4052734-.1953125.2998047-.2197266.5751953-.7949219.8251953-1.7246094.25-.9306641.4443359-2.125.5839844-3.5859375h-8.4296875v2.7607422c.0605469,2.3203125.1308594,4.0898438.2109375,5.3095703-.1210938.1796875-.3408203.3496094-.6601562.5097656-.3203125.1601562-.7011719.2402344-1.140625.2402344-.140625,0-.2597656-.0595703-.359375-.1796875-.1005859-.1201172-.1503906-.2607422-.1503906-.4199219.0800781-1.1005859.1503906-2.5800781.2099609-4.4404297v-2.5195312c-1.4599609,1.5800781-3.2158203,3-5.2646484,4.2597656-2.0507812,1.2597656-4.3046875,2.3193359-6.765625,3.1796875l-.2402344-.4794922c2.140625-1.0009766,4.140625-2.2207031,6-3.6601562,1.8603516-1.4404297,3.4101562-2.9599609,4.6503906-4.5605469h-6.1503906l-.2695312,1.0507812-.2695312.9599609c-.28125.1396484-.5507812.2099609-.8105469.2099609-.2402344,0-.6201172-.0800781-1.140625-.2402344l.6914062-2.4599609c.2792969-1.0205078.5195312-2.0800781.71875-3.1796875.2001953-1.0996094.3203125-2.0498047.3603516-2.8505859l2.4306641,1.2597656h6.0595703v-3.5996094h-4.7998047c-1.4199219.0205078-2.9199219.1601562-4.5.4199219l-.7802734-1.5302734c1.0996094.1201172,2.4306641.2001953,3.9902344.2402344h14.7597656l.4501953-.6298828Zm-15.8398438,5.9697266l-.3300781,1.4404297-.4804688,2.0400391h7.5302734v-3.4804688h-6.7197266Zm13.0195312-10.0195312c.7207031.4003906,1.25.8447266,1.5898438,1.3349609s.5097656.9550781.5097656,1.3945312c0,.3203125-.0898438.5957031-.2695312.8251953-.1796875.2304688-.4101562.3447266-.6894531.3447266-.2607422,0-.5-.0996094-.7207031-.2998047-.0400391-.5791016-.2246094-1.2001953-.5546875-1.859375-.3300781-.6601562-.7246094-1.2402344-1.1855469-1.7402344h-1.5595703c-1.1005859,1.6796875-2.2900391,3.0400391-3.5693359,4.0800781l-.390625-.2998047c.5195312-.6796875.9902344-1.4296875,1.4101562-2.25.5-.8603516.9599609-1.8847656,1.3798828-3.0751953.4199219-1.1894531.6796875-2.2050781.7802734-3.0449219,1.0195312.4003906,1.734375.7148438,2.1445312.9443359.4101562.2304688.6152344.4052734.6152344.5253906,0,.0800781-.1005859.1503906-.3007812.2099609l-.5390625.1503906c-.2001953.4394531-.5400391,1.0800781-1.0195312,1.9199219h6.5390625l.5703125-.8398438c.0800781-.1005859.1650391-.2207031.2548828-.3603516s.1845703-.2597656.2851562-.3603516c.0996094-.0996094.1904297-.1494141.2705078-.1494141.1191406,0,.3691406.1445312.75.4345703.3789062.2900391.734375.6054688,1.0644531.9453125s.4951172.5800781.4951172.7197266c-.0595703.2998047-.2998047.4501953-.7197266.4501953h-7.140625Zm2.640625,5.5498047h-7.0507812v3.5996094h7.0507812v-3.5996094Z"/>
      <path class="cls-2" d="m107.9964012,117.796064c-1.0800781,1.7402344-2.2910156,3.2998047-3.6298828,4.6806641l-.3896484-.3007812c1.6591797-2.3994141,3.1591797-5.359375,4.5-8.8798828.3789062-.9599609.7294922-2.0644531,1.0488281-3.3144531.3203125-1.25.5107422-2.2753906.5703125-3.0751953,2.0195312.640625,3.0302734,1.0996094,3.0302734,1.3798828,0,.0800781-.0898438.1503906-.2705078.2099609l-.5390625.1796875c-.7402344,2.1201172-1.6503906,4.2509766-2.7304688,6.390625.640625.5.9599609.8701172.9599609,1.109375,0,.1005859-.0898438.2001953-.2705078.3007812l-.4199219.2099609v10.0498047c.0410156,2.4794922.1210938,4.8300781.2402344,7.0498047-.1396484.1796875-.3798828.3603516-.7197266.5400391-.3408203.1796875-.6806641.2695312-1.0205078.2695312-.1796875,0-.3398438-.0595703-.4794922-.1796875s-.2099609-.2597656-.2099609-.4199219c.0800781-1.1806641.1503906-2.3251953.2099609-3.4345703.0595703-1.1103516.1005859-2.5654297.1201172-4.3652344v-8.4003906Zm19.3798828,13.6503906c.1005859-.1201172.2001953-.25.2998047-.390625.0996094-.1396484.1992188-.2646484.3007812-.375.0996094-.109375.1894531-.1640625.2695312-.1640625.1201172,0,.3847656.1601562.7949219.4794922.4101562.3203125.7949219.6601562,1.1542969,1.0205078.3613281.359375.5410156.609375.5410156.75-.0605469.3193359-.3007812.4794922-.7207031.4794922h-13.7402344c-1.4199219.0195312-2.9199219.1601562-4.5.4199219l-.71875-1.5302734c1.0996094.1201172,2.4296875.2001953,3.9892578.2402344h6.3300781c.8994141-3.2402344,1.6904297-6.6494141,2.3701172-10.2294922.4394531-2.4199219.6494141-4.4101562.6298828-5.9707031,1.2197266.2802734,2.0751953.5058594,2.5654297.6757812.4892578.1699219.734375.3144531.734375.4345703,0,.0800781-.0898438.1699219-.2695312.2695312l-.5097656.2705078c-.5410156,2.2001953-1.2558594,4.6298828-2.1455078,7.2900391s-1.8154297,5.0800781-2.7744141,7.2597656h4.7695312l.6298828-.9296875Zm-.5400391-18.6005859c.0605469-.0791016.1503906-.2041016.2695312-.375.1210938-.1689453.2255859-.2998047.3154297-.3896484.0908203-.0898438.1748047-.1347656.2548828-.1347656.1201172,0,.3798828.1552734.7802734.4648438.3994141.3105469.7744141.6445312,1.125,1.0048828.3496094.3603516.5244141.6103516.5244141.75-.0800781.3203125-.3300781.4804688-.75.4804688h-12.2695312c-1.4199219.0195312-2.9199219.1601562-4.5.4199219l-.7792969-1.5605469c1.0996094.1201172,2.4296875.2001953,3.9892578.2402344h3.75v-.4794922c0-2.5205078-.1298828-4.5703125-.3896484-6.1503906,2.0595703.5605469,3.0898438.9804688,3.0898438,1.2597656,0,.1005859-.0898438.2001953-.2695312.2998047l-.5410156.3300781v4.7402344h4.7705078l.6298828-.9003906Zm-11.9697266,3.8105469c1.3388672,1.9404297,2.3144531,3.7949219,2.9248047,5.5644531.609375,1.7705078.9150391,3.3457031.9150391,4.7255859,0,.9404297-.125,1.6953125-.375,2.2646484-.2509766.5703125-.5458984.8554688-.8857422.8554688-.2597656,0-.5097656-.1806641-.75-.5400391-.0390625-2.0595703-.2294922-4.25-.5693359-6.5703125-.3408203-2.3193359-.9101562-4.3496094-1.7099609-6.0898438l.4501953-.2099609Z"/>
      <path class="cls-2" d="m67.8792137,138.039228c-.8398438-.5400391-.9609375-.9599609-.9609375-1.6796875,0-2.8193359.2402344-6.1796875.4208984-7.5.0595703-.5996094.1796875-.8994141.4794922-.8994141.3007812,0,.3603516.1796875.4199219.8398438.0605469.3603516.0605469,1.0195312.1210938,1.3798828.6591797,4.0195312,3.1191406,6.7197266,8.8789062,6.7197266,6.0595703,0,10.859375-3.4794922,10.859375-10.6191406,0-8.0400391-7.1992188-10.8603516-11.0996094-11.6396484-1.1396484-.2402344-1.5595703-.3603516-1.5595703-.7802734s.6005859-.5996094,1.3798828-.7197266c2.9394531-.5400391,9.5390625-3.4199219,9.5390625-10.4394531,0-2.5205078-1.5595703-8.0996094-8.6386719-8.0996094-4.3808594,0-7.5605469,2.4599609-7.5605469,7.0791016,0,.6005859-.2402344.7207031-.4199219.7207031s-.359375-.1201172-.4199219-.6601562c-.2402344-1.9199219-.4199219-4.6201172-.4199219-6,0-.5400391.0605469-.7802734.7802734-1.2597656,1.8603516-.9003906,5.2197266-2.0400391,9.7197266-2.0400391,9.7792969,0,11.8789062,6,11.8789062,8.9990234,0,6-6.1796875,9.9599609-8.0390625,10.7998047v.2998047c3.7792969.9003906,9.8994141,4.5605469,9.8994141,11.5195312,0,8.4003906-7.2597656,15.4199219-17.9394531,15.4199219-2.4599609,0-6.0595703-.7197266-7.3193359-1.4404297Z"/>
    </g>
  </g>
</svg>