<?xml version="1.0" encoding="UTF-8"?>
<svg id="_レイヤー_2" data-name="レイヤー 2" xmlns="http://www.w3.org/2000/svg" viewBox="0 0 162.5838957 171.8285465">
  <defs>
    <style>
      .cls-1 {
        fill: #fff;
        stroke: #fff;
        stroke-linecap: round;
        stroke-linejoin: round;
        stroke-width: 4px;
      }

      .cls-2, .cls-3 {
        stroke-width: 0px;
      }

      .cls-3 {
        fill: #ffdc00;
      }
    </style>
  </defs>
  <g id="equipment">
    <g>
      <circle class="cls-3" cx="82.8168705" cy="100.3951558" r="71.4333907"/>
      <g>
        <path class="cls-1" d="m6.0894322,45.257978c-.3540039.4560547-.6923828.9238281-1.0151367,1.4042969.6865234.6083984,1.3935547,1.1582031,2.0922852,1.7509766.3227539-.4804688.6171875-.9570312.9711914-1.4130859.1953125-.2509766.5463867-.28125.7978516-.0859375.2353516.1835938.28125.5458984.0981445.7822266-.3540039.4560547-.6611328.9482422-.9833984,1.4277344.8520508.6875,1.6884766,1.3623047,2.5166016,2.0810547.1928711-.6054688.3583984-1.2080078.4765625-1.8466797.0297852-.1035156.0473633-.1904297.1083984-.2695312.1831055-.2353516.5581055-.296875.8095703-.1015625.1572266.1220703.237793.3105469.21875.4970703-.0537109.5888672-1.5898438,5.5185547-1.8828125,5.8955078-.1831055.2363281-.5463867.28125-.7822266.0986328-.2041016-.1591797-.2636719-.40625-.1801758-.6435547.2807617-.8154297.5888672-1.6347656.8535156-2.4619141-.878418-.7832031-1.8212891-1.515625-2.7397461-2.2792969-.2949219.4765625-.5336914.9462891-.7685547,1.4433594-.0244141.0322266-.0576172.1064453-.0820312.1386719-.1953125.2509766-.5620117.2685547-.8134766.0732422-.2041016-.1582031-.2480469-.3935547-.1645508-.6318359.1845703-.5615234.6538086-1.2304688.9570312-1.7509766-.7104492-.5771484-1.4492188-1.1503906-2.1357422-1.7597656-.2612305.4023438-1.2363281,1.7871094-1.3701172,2.1865234-.0087891.0439453-.0175781.0869141-.0541992.1347656-.1831055.2353516-.5585938.296875-.8095703.1015625-.2045898-.1591797-.2519531-.4228516-.168457-.6601562.1586914-.4306641.4726562-.8671875.722168-1.2529297.7651367-1.2451172,1.5898438-2.4697266,2.4931641-3.6328125.2441406-.3144531.5566406-.6513672.980957-.3212891.4555664.3535156.0981445.78125-.1459961,1.0957031Zm15.0307617-3.2929688c-.0449219.9980469-.628418,2.5605469-1.2265625,3.3310547-1.3427734,1.7285156-3.1635742,1.3476562-4.7646484.2304688.1352539,1.1884766.3139648,2.3857422.5048828,3.5664062.0717773.4589844.2241211,1.1064453.2802734,1.5537109.0244141.1953125.0107422.3105469-.1113281.4677734-.1953125.2519531-.5302734.2939453-.7817383.0986328-.0942383-.0732422-.1645508-.1787109-.1943359-.3017578-.2133789-.7958984-.3222656-1.6621094-.4394531-2.4833984-.2700195-1.6962891-.4960938-3.3847656-.6264648-5.0986328-.5717773.8662109-1.15625,1.7480469-1.621582,2.671875.0019531.1279297-.027832.2304688-.1010742.3251953-.1953125.2509766-.5024414.2900391-.7626953.1376953-.3979492-.2333984-.8730469-.6279297-1.234375-.9082031-.8417969-.6035156-1.6591797-1.2382812-2.4604492-1.8603516-.9428711-.7324219-1.8740234-1.4804688-2.7924805-2.2451172-.4086914-.3173828-.8486328-.6591797-1.2207031-1.0234375-.2270508-.2265625-.237793-.5371094-.0424805-.7890625.2075195-.2666016.5654297-.2412109.8012695-.0576172.0942383.0732422.1918945.1738281.2861328.2470703.5878906-1.0800781,1.25-2.1279297,2.0068359-3.1025391,1.2695312-1.6347656,1.2246094-1.3164062,2.7177734-.1572266,1.2416992.9648438,4.5297852,3.5439453,5.3422852,4.7041016.1044922.15625.1118164.2128906.1206055.3955078.0390625.7607422.0776367,1.5224609.1445312,2.2792969.1606445.1503906.3212891.3007812.4941406.4345703,1.1162109.8662109,2.5249023,1.5830078,3.574707.2314453.6347656-.8173828.8071289-1.8173828.9824219-2.7900391.0297852-.1025391.0473633-.1904297.1083984-.2685547.1953125-.2519531.5581055-.296875.7939453-.1142578.1728516.1347656.2373047.3105469.222168.5253906Zm-12.6240234-4.6396484c-.1884766-.1464844-.3896484-.2773438-.5625-.4111328-.1621094.1767578-.3085938.3652344-.4428711.5380859-.7568359.9746094-1.4472656,2.0253906-1.9912109,3.1152344.4594727.3818359.902832.7509766,1.3745117,1.1171875.6904297-1.2783203,1.5517578-2.5488281,2.5058594-3.6474609-.2358398-.1835938-.4594727-.3818359-.6953125-.5654297l-.1884766-.1464844Zm1.2875977,2.0087891c-.7324219.9423828-1.4785156,2.0009766-2.0102539,3.0742188l1.2416992.9648438c.7338867-1.2695312,1.5742188-2.4814453,2.3398438-3.7265625-.3652344-.3085938-.7143555-.6044922-1.0917969-.8974609-.1743164.1914062-.3208008.3798828-.4794922.5849609Zm2.2177734,1.3945312c-.7148438,1.0820312-1.4262695,2.1933594-2.0786133,3.3242188.4716797.3662109.9394531.7050781,1.4111328,1.0712891.6728516-1.1914062,1.4208984-2.3486328,2.1879883-3.4667969-.4101562-.4443359-.8730469-.8544922-1.3081055-1.2675781l-.2124023.3388672Z"/>
        <path class="cls-1" d="m18.0469518,28.3068061c-.3510742,1.109375-.4204102,2.9414062-.4511719,4.0976562l.0087891.7636719c-.0039062.1835938-.0922852.3583984-.230957.4726562-.2460938.2011719-.5976562.1806641-.8120117-.0810547-.0756836-.0927734-.1201172-.2099609-.121582-.3378906-.0717773-.8408203.1567383-5.1162109.6953125-5.5576172.246582-.2021484.6230469-.1503906.824707.0966797.1259766.1533203.1499023.3398438.0869141.5458984Zm12.0258789-5.3193359c-.2255859.6982422-.7783203,1.5625-1.3476562,2.0292969-1.3549805,1.1083984-2.4165039.1259766-3.3115234-.9667969-.5292969-.6464844-.9814453-1.3564453-1.4033203-2.0908203l-.2460938.2011719c-1.0288086.8164062-2.0224609,1.7070312-2.9501953,2.6464844.5727539.9199219,1.1147461,1.8652344,1.644043,2.7939453.2729492.5224609.6274414,1.0810547.8266602,1.6376953.0893555.2353516.0336914.5126953-.1665039.6767578-.230957.1884766-.6230469.1494141-.824707-.0966797-.0253906-.0302734-.0629883-.0771484-.0854492-.1357422-.2646484-.6064453-.6010742-1.2050781-.9243164-1.7890625-.659668-1.1826172-1.3808594-2.3144531-2.0869141-3.4599609-.1835938-.2871094-.125-.5917969.1367188-.8066406.3081055-.2519531.6552734-.0478516.8569336.1992188.8637695-.8613281,1.7651367-1.6767578,2.7041016-2.4453125.4155273-.3408203,1.2666016-1.2167969,1.7709961-.6015625l.0751953.0927734c.4638672.8808594.9482422,1.6923828,1.5786133,2.4619141.1889648.2314453.8852539,1.0498047,1.1987305,1.0244141.1708984-.0107422.3500977-.1064453.4882812-.2197266.6162109-.5039062.9238281-1.6044922,1.1547852-1.7939453.2617188-.2138672.6254883-.1777344.8271484.0683594.1386719.1699219.1474609.3681641.0844727.5742188Zm-8.8911133,6.0703125l-.0361328.6464844-.0698242,1.265625-.0610352,1.4638672c.3291016.2451172.6035156.6123047.8554688.9199219,1.0209961,1.2470703,1.949707,2.5693359,2.8652344,3.8769531.4174805.6357422,1.0800781,1.5078125,1.4233398,2.1777344.1650391.328125.0683594.5869141-.1933594.8007812-.215332.1767578-.5834961.0410156-.7348633-.1435547l-.0629883-.0771484c-.6176758-1.0371094-1.3125-2.0117188-2.0068359-2.9853516-.7045898-1.0175781-1.4370117-2.0380859-2.2182617-2.9921875-.0419922.7021484-.0839844,1.4052734-.1538086,2.1054688-.0405273.2646484-.0556641.5595703-.1088867.8085938-.0292969.1533203-.0810547.2470703-.2041016.3476562-.2617188.2138672-.5976562.1806641-.7993164-.0654297-.1259766-.1542969-.1401367-.296875-.1235352-.4648438.2080078-1.9443359.2885742-3.8876953.3696289-5.8310547.0205078-.6347656.0317383-1.3115234.1083984-1.9404297.0170898-.1679688.0712891-.2900391.2099609-.4033203.246582-.2011719.6103516-.1650391.8120117.0810547.1132812.1386719.1303711.2529297.1289062.4091797Zm14.8022461,2.5644531c-.6464844.5292969-5.0126953,1.0693359-5.984375,1.1708984-.1855469,1.4375-.5463867,3.3525391-1.3623047,4.5859375-.0336914.0537109-.0644531.0791016-.1103516.1162109-.246582.2021484-.5952148.1533203-.796875-.0927734-.1762695-.2158203-.1513672-.4677734-.0166016-.6806641.6796875-1.1484375.9414062-2.4941406,1.1132812-3.7910156-.6860352.0722656-1.3691406.1171875-2.0371094.1494141-.2421875.0185547-.4995117.0498047-.7392578.0400391-.1831055-.0039062-.3330078-.0615234-.4589844-.2158203-.2016602-.2460938-.152832-.5947266.0932617-.796875.1079102-.0878906.2099609-.1201172.3530273-.1337891.3134766-.0253906.6396484-.0351562.9658203-.0449219.6552734-.0478516,1.2978516-.1113281,1.9555664-.1875.121582-1.359375.1464844-2.7421875-.0175781-4.0732422-.9086914.7431641-1.7792969,1.5332031-2.637207,2.3388672-.5288086.484375-1.0888672.9941406-1.5419922,1.5703125-.0185547.0410156-.0644531.0791016-.0952148.1035156-.246582.2021484-.6230469.1503906-.824707-.0957031-.1762695-.2158203-.1484375-.4960938.0009766-.7207031.2172852-.3320312.5585938-.6376953.8383789-.8925781,1.0693359-1.0810547,2.2045898-2.1132812,3.359375-3.0585938.3076172-.2519531.6645508-.5693359,1.0078125-.7480469.253418-.1298828.5639648-.1269531.7529297.1035156.0629883.0771484.0952148.1796875.1147461.2666016.3588867,1.5058594.3383789,3.5537109.2128906,5.0966797,1.5610352-.1972656,3.8178711-.4248047,5.2719727-.9726562.2353516-.0898438.4873047-.0644531.6635742.1513672.2016602.2460938.1655273.6103516-.0810547.8115234Z"/>
        <path class="cls-1" d="m46.4585729,12.9474311c.1035156.9257812-1.2109375,5.4404297-1.5522461,6.453125-.2338867.6933594-.5029297,1.4042969-.8168945,2.0703125.4350586.2509766.8793945.4746094,1.3320312.7167969.3642578.1962891.7636719.3759766,1.1367188.5908203.1245117.0712891.1953125.125.2573242.25.1499023.3027344.0332031.6494141-.2700195.7998047-.1958008.0966797-.355957.0869141-.5512695.0068359-.3730469-.1708984-.7548828-.4033203-1.1191406-.5996094l-3.2412109-1.7021484c-.3994141-.2236328-1.1098633-.5371094-1.4736328-.8232422-.0800781-.0712891-.1508789-.125-.1948242-.2138672-.1416016-.2851562-.015625-.6582031.2871094-.8085938.2319336-.1152344.3916016-.0615234.6049805.0556641.7099609.4023438,1.4384766.7958984,2.184082,1.1816406.9140625-1.9628906,1.7436523-5.0830078,2.1420898-7.234375-1.4599609.3242188-2.9926758,1.0839844-4.3291016,1.7470703-1.3725586.6796875-3.8232422,1.9609375-4.8945312,3.0253906-.0444336.0439453-.1069336.0976562-.1606445.1240234-.3027344.1503906-.6582031.015625-.8085938-.2880859-.1147461-.2314453-.0693359-.453125.1000977-.6484375.7954102-.9492188,4.128418-2.7353516,5.2866211-3.3095703,1.0874023-.5380859,4.3129883-2.0488281,5.5131836-1.9111328.2314453.0185547.4091797.1083984.5151367.3222656.0351562.0712891.0439453.1337891.0527344.1953125Z"/>
        <path class="cls-1" d="m67.1909947,7.0509468c-.1079102.9257812-2.4067383,5.0302734-2.9682617,5.9404297-.3837891.6230469-.8066406,1.2548828-1.2626953,1.8330078.3676758.3427734.75.6611328,1.1367188.9990234.3105469.2734375.659668.5390625.9746094.8320312.1049805.0976562.1621094.1660156.1943359.3017578.078125.3291016-.1137695.640625-.4428711.71875-.2133789.0507812-.3671875.0048828-.5395508-.1171875-.3251953-.2509766-.6445312-.5634766-.9550781-.8369141l-2.7758789-2.3896484c-.3388672-.3085938-.9604492-.7744141-1.2509766-1.1347656-.0615234-.0878906-.1186523-.15625-.1416016-.2529297-.0732422-.3095703.1333008-.6455078.4624023-.7236328.2519531-.0595703.3955078.0292969.5771484.1904297.6015625.5527344,1.222168,1.1015625,1.862793,1.6445312,1.3334961-1.7070312,2.8447266-4.5605469,3.71875-6.5673828-1.4960938-.0136719-3.1616211.3818359-4.6137695.7255859-1.4907227.3535156-4.168457,1.0507812-5.4526367,1.8457031-.0537109.0332031-.1264648.0712891-.1845703.0849609-.3291016.078125-.6450195-.1337891-.7231445-.4628906-.0595703-.2519531.034668-.4580078.2441406-.6103516.9887695-.7451172,4.6401367-1.734375,5.8989258-2.0332031,1.1811523-.2792969,4.6655273-1.0244141,5.8046875-.6201172.2211914.0703125.3740234.1982422.4291992.4306641.0180664.0771484.0126953.1396484.0073242.2021484Z"/>
        <path class="cls-1" d="m78.5240025,6.4278999c-.9633789,1.9658203-1.5336914,4.8808594-1.4985352,7.0693359.0068359.4179688.0332031.8154297.1191406,1.2119141.1782227-.0625.3349609-.2041016.5341797-.2070312.3183594-.0058594.6010742.2685547.6069336.6064453.0029297.1992188-.09375.3603516-.2509766.4824219-.2358398.1826172-.9677734.4726562-1.246582.4775391-.2583008.0039062-.4594727-.1318359-.5625-.3496094-.2880859-.5722656-.3642578-1.5859375-.3745117-2.2226562-.0327148-2.0498047.5825195-5.8603516,1.6083984-7.6484375.1166992-.1806641.2939453-.3037109.5126953-.3066406.3383789-.0058594.6210938.2685547.6264648.5869141.0019531.1191406-.0366211.1992188-.074707.2998047Zm9.2563477,7.5332031c-.8754883.0136719-3.8173828-2.2470703-3.8325195-3.1630859-.0048828-.3183594.2495117-.5810547.5878906-.5859375.2387695-.0039062.4199219.1123047.5424805.3095703.5317383.8867188,1.921875,1.9394531,2.8828125,2.2822266.2402344.0957031.402832.2919922.4067383.5507812.0053711.3378906-.269043.6015625-.5874023.6064453Zm.2124023-6.5917969c-.3383789.0058594-.6015625-.2685547-.6064453-.5869141-.0014648-.0996094.0170898-.1796875.0556641-.2597656-.300293-.0947266-.7783203-.1064453-1.0966797-.1015625-.4775391.0078125-.9541016.0546875-1.409668.2021484-.059082.0205078-.1186523.0410156-.1982422.0429688-.3183594.0048828-.6015625-.2695312-.6069336-.6074219-.0039062-.2587891.1713867-.4804688.4086914-.5634766.5146484-.1875,1.309082-.2802734,1.8466797-.2890625.8154297-.0126953,2.3105469.1220703,2.328125,1.2167969.0063477.3974609-.2636719.9394531-.7211914.9462891Z"/>
        <path class="cls-1" d="m100.9610143,7.3605171c-.1010742.3642578-.2407227.7207031-.3413086,1.0859375-.0043945.0185547-.0131836.0576172.0019531.0810547-.0170898.078125-.0385742.1748047-.109375.2207031-.1787109.3476562-.2880859.7509766-.7739258.6445312-.2524414-.0566406-.4428711-.3017578-.40625-.5585938-1.0229492-.1650391-2.0458984-.3291016-3.0859375-.4160156-.4248047,1.7392578-.8256836,3.4638672-1.2119141,5.2119141-.184082.8349609-.3642578,1.6513672-.5292969,2.4902344-.0986328.4472656-.2207031.9091797-.2612305,1.3681641l-.0170898.078125c-.0644531.2910156-.3530273.4921875-.6445312.4277344-.2915039-.0634766-.4277344-.2773438-.4453125-.5664062-.0200195-.3710938.5869141-3.0283203.6938477-3.5136719.5488281-2.4863281,1.1411133-4.9833984,1.7871094-7.4482422.2338867-.9667969.4868164-1.9296875.7749023-2.8642578.1137695-.4228516.2314453-.8652344.3994141-1.2558594.0986328-.2636719.3510742-.3916016.6230469-.3310547.2329102.0507812.3779297.2255859.4321289.4414062.6777344.0683594,1.3618164.1982422,2.0415039.3486328.3691406.0810547,1.4135742.3320312,1.7182617.5214844.3193359.2138672.3110352.4355469.2382812.765625-.2441406,1.1074219-.546875,2.2021484-.8842773,3.2685547Zm-1.1362305-.9433594c-.9472656-.2294922-1.9511719-.390625-2.9477539-.4882812-.1269531.4814453-.2490234.9433594-.3564453,1.4287109,1.0595703.0917969,2.121582.2646484,3.1635742.4335938l.4125977-1.3144531-.2719727-.0595703Zm6.8549805,6.1367188c-.4858398-.1074219-.9907227-.21875-1.480957-.3066406l-.0727539.3310547c-.3598633,1.6308594-.7592773,3.2539062-1.1967773,4.8691406-.2490234.9433594-.5151367,1.9638672-.9150391,2.8535156-.1142578.2392578-.3515625.390625-.6235352.3310547-.2910156-.0644531-.487793-.3730469-.4238281-.6640625l.0214844-.0976562c.2709961-.6728516.487793-1.3789062.7006836-2.0654297-1.1264648-.0654297-2.2680664-.1542969-3.4052734-.2626953-.6582031-.0634766-1.3486328-.0732422-2.0087891-.2197266l-.0585938-.0126953c-.2714844-.0595703-.4770508-.3291016-.4169922-.6015625.0683594-.3105469.2905273-.4853516.6142578-.4755859.4057617.0087891.8330078.1025391,1.2495117.1542969.1176758-.6259766.2592773-1.2675781.3964844-1.8886719.2402344-1.0878906.4799805-2.1757812.7783203-3.2509766-.6064453-.1132812-1.2060547-.1640625-1.7973633-.2539062l-.0776367-.0166016c-.2915039-.0644531-.4731445-.3496094-.4086914-.640625.0639648-.2910156.2817383-.4472656.5668945-.4453125.3232422.0107422.6538086.0830078.9492188.1279297.7314453.1005859,1.4545898.2402344,2.1625977.3554688,1.8579102.3486328,3.7207031.6787109,5.565918,1.0859375.3496094.0771484.6303711.28125.5405273.6894531-.0644531.2910156-.3686523.46875-.659668.4042969Zm-6.9296875-8.6591797c-.71875-.1582031-1.4609375-.3017578-2.2011719-.3632812l-.3735352,1.3222656c1.0703125.1347656,2.1708984.3164062,3.215332.5673828.1137695-.4228516.2275391-.8457031.3217773-1.2734375-.3212891-.1113281-.6323242-.1796875-.9624023-.2529297Zm.2451172,11.4414062c-.0859375.3886719-.1479492.7617188-.2338867,1.1503906,1.0791016.0957031,2.1582031.1914062,3.2260742.2431641l.2358398-.8847656c-1.0722656-.2158203-2.1577148-.3740234-3.2280273-.5087891Zm3.449707-1.4179688c-1.0053711-.2421875-2.0175781-.3642578-3.0209961-.5244141l-.1889648.8544922c1.0854492.1582031,2.1708984.3164062,3.2436523.5332031.0708008-.2294922.1225586-.4619141.1738281-.6953125l.0258789-.1162109-.2333984-.0517578Zm.6816406-1.8867188c-1.0727539-.2167969-2.1303711-.4091797-3.2070312-.6064453l-.2407227.9042969c1.0898438.1386719,2.1904297.3212891,3.2548828.5761719l.1928711-.8740234Zm7.3764648-4.6259766c-.6474609,2.9335938-1.3378906,5.8769531-2.0825195,8.7890625-.2744141,1.0595703-.5493164,2.1191406-.862793,3.1708984-.1914062.5888672-.3671875,1.2021484-.6362305,1.7744141-.1137695.2392578-.3662109.3671875-.6186523.3115234-.5048828-.1113281-1.3989258-.6757812-1.762207-1.0615234-.1293945-.1503906-.1967773-.3085938-.1538086-.5019531.0644531-.2919922.3486328-.4736328.6401367-.4091797.1166992.0253906.1855469.0820312.2700195.1611328.2568359.2197266.5185547.4199219.831543.5712891.4536133-1.2246094.7797852-2.5175781,1.1166992-3.7666016.4526367-1.7744141.8818359-3.5332031,1.2910156-5.296875l-.5244141-.1162109c-1.0874023-.2392578-2.2036133-.4453125-3.2973633-.5644531-.0668945.0263672-.105957.0175781-.1835938,0-.2910156-.0644531-.4384766-.3203125-.4169922-.6015625.0205078-.4638672.1708984-.9599609.2739258-1.4257812.2099609-.9521484.8300781-3.6669922,1.2475586-4.4511719.109375-.2197266.3466797-.3710938.5991211-.3154297.2915039.0644531.5078125.3769531.4433594.6679688-.0087891.0390625-.0322266.0537109-.0410156.0927734-.3354492.78125-.543457,1.6318359-.762207,2.4394531,1.1674805.1552734,2.3457031.3544922,3.4785156.6660156l.081543-.3691406.2231445-1.0097656c-.3452148-.0966797-.4770508-.1464844-.8266602-.2236328-.5244141-.1162109-1.2709961-.2402344-1.8041992-.3164062l.1552734.0341797c-.2954102-.0449219-.4921875-.3535156-.4238281-.6640625.0600586-.2724609.2973633-.4238281.5820312-.421875.5263672.0146484,1.1049805.1621094,1.6293945.2783203.4077148.0898438,1.2387695.2939453,1.5820312.4921875.2163086.1289062.3286133.3574219.2729492.6103516l-.1928711.8740234-.1289062.5820312Zm-2.1582031,1.0107422c-.8935547-.1972656-1.8149414-.359375-2.7255859-.4794922-.0556641.2529297-.1269531.4814453-.1826172.734375l-.0424805.1943359c-.0390625.1748047-.0625.3730469-.1049805.5673828,1.1674805.1552734,2.3457031.3544922,3.4829102.6464844.1074219-.4853516.21875-.9902344.3457031-1.4716797-.2485352-.0751953-.5009766-.1308594-.7729492-.1914062Z"/>
        <path class="cls-1" d="m119.2793736,19.9737983c-.6289062.1630859-2.0639648.0302734-2.6386719-.2441406-.7724609-.3681641-.8666992-2.0654297-.9067383-2.7675781-.0498047-.7734375-.0498047-3.1318359.2666016-3.796875.137207-.2871094.5083008-.4189453.7958984-.28125.269043.1279297.3813477.4023438.3330078.6875-.0639648.3662109-.128418.7324219-.1748047,1.1064453-.0644531.8291016-.0893555,3.2861328.2714844,4.0087891.5019531.1953125,1.284668.171875,1.8173828.1171875.1420898-.0205078.2490234-.0136719.375.0458984.3051758.1455078.4189453.5087891.2817383.7958984-.0854492.1796875-.2260742.2890625-.4208984.328125Zm9.1054688,2.4443359c-.2875977-.1367188-.4106445-.5263672-.2734375-.8134766.0424805-.0898438.0947266-.1533203.1650391-.2080078.3242188-.2636719.5493164-.5976562.7290039-.9746094.1884766-.3945312.4335938-1.09375.3007812-1.5097656-.0561523-.1591797-.050293-.3105469.0268555-.4716797.1367188-.2871094.4995117-.4013672.7871094-.2646484.8081055.3857422.2368164,2.1855469-.0371094,2.7597656-.230957.4853516-1.0161133,1.8076172-1.6982422,1.4824219Z"/>
        <path class="cls-1" d="m143.4546666,26.5099311c-.9648438-.3837891-1.9311523-1.0234375-2.7827148-1.6474609-2.2514648.9833984-7.2114258,3.6533203-8.6948242,5.5253906-.2099609.2646484-.2895508.5576172-.425293.7285156-.1977539.25-.6049805.2822266-.8544922.0849609-.5146484-.4082031.0351562-1.1660156.3320312-1.5400391,1.5942383-2.0117188,6.1201172-4.5185547,8.5981445-5.6269531-.4433594-.4013672-.9423828-.796875-1.3481445-1.2460938-.2124023-.2441406-.2324219-.5390625-.034668-.7890625.1977539-.2490234.5703125-.3349609.8227539-.109375l.0625.0498047c.5708008.5283203,1.1298828,1.0732422,1.737793,1.5546875.3261719-.1220703.6889648-.2919922,1.0209961-.3583984.1801758-.0351562.3540039.0009766.5102539.125.2495117.1972656.3071289.5732422.109375.8232422-.1235352.1552734-.2973633.2470703-.4804688.2539062.6015625.4257812,1.2338867.7490234,1.894043,1.0693359.059082.0214844.090332.0458984.137207.0830078.2651367.2109375.3071289.5742188.097168.8388672-.1728516.21875-.4492188.2783203-.7016602.1806641Zm-2.621582,11.8613281c-.7485352-.59375-2.2265625-2.3486328-2.5131836-3.2363281-.0664062-.2050781-.0454102-.3916016.078125-.546875.2099609-.265625.5981445-.3388672.8632812-.1289062.109375.0869141.1469727.1679688.1879883.2763672.4082031.9580078,1.3950195,2.0195312,2.1567383,2.7246094.2680664.2382812.2915039.5615234.0688477.8417969-.2099609.265625-.5922852.2666016-.8417969.0693359Zm4.3452148-5.2900391c-.0625-.0498047-.1123047-.1152344-.1621094-.1796875-.1376953-.2109375-.315918-.4023438-.5185547-.5634766-.7016602-.5566406-1.6391602-.9433594-2.5009766-1.1699219-.0869141-.0175781-.1616211-.0517578-.2397461-.1132812-.2651367-.2099609-.3227539-.5859375-.112793-.8515625.1484375-.1865234.3813477-.2558594.5991211-.2109375.9267578.1767578,2.2348633.8320312,2.9677734,1.4130859.4057617.3212891,1.2231445,1.0205078.777832,1.5820312-.1977539.2490234-.5610352.2910156-.8105469.09375Z"/>
        <path class="cls-1" d="m148.4507604,49.3331733c-.5356445-.6679688.9604492-1.7910156,1.8139648-2.4765625.2485352-.1992188.6396484-.15625.8388672.0927734.6352539.7910156-1.1630859,1.4433594-1.6835938,2.3203125-.0341797.0527344-.0839844.1181641-.1459961.1679688-.2636719.2109375-.6118164.1591797-.8232422-.1044922Zm11.8535156-8.8476562c-2.2568359,1.6064453-4.6713867,3.3652344-6.8442383,5.1083984-.2324219.1865234-.6396484.15625-.8388672-.0917969-.3735352-.4658203.0332031-.8173828.3745117-1.0917969,1.4277344-1.1455078,2.8896484-2.2158203,4.3544922-3.3154297.6489258-.4941406,1.6357422-1.2353516,2.315918-1.6279297.2573242-.1552734.5776367-.1064453.7768555.1416016.2241211.2792969.171875.6279297-.0922852.8388672l-.0463867.0380859Z"/>
      </g>
      <g>
        <path class="cls-2" d="m5.7657018,45.6124702c-.3535156.4599609-.6914062.9316406-1.0131836,1.4160156.6923828.6083984,1.40625,1.1572266,2.1108398,1.75.3217773-.484375.6157227-.9648438.9692383-1.4248047.1953125-.2539062.5473633-.2851562.8012695-.0908203.237793.1835938.2851562.5478516.1025391.7861328-.3535156.4589844-.659668.9560547-.9814453,1.4394531.8598633.6865234,1.7036133,1.3613281,2.5390625,2.0791016.1914062-.609375.3544922-1.2158203.4702148-1.8583984.0292969-.1035156.0463867-.1914062.1074219-.2705078.1831055-.2382812.5595703-.3017578.8134766-.1064453.1582031.1220703.2402344.3105469.2216797.4990234-.0507812.5908203-1.5708008,5.5527344-1.8632812,5.9335938-.1831055.2382812-.5478516.2851562-.7856445.1025391-.2060547-.1582031-.2670898-.4072266-.184082-.6464844.277832-.8203125.5839844-1.6445312.8461914-2.4775391-.8867188-.7832031-1.8378906-1.5146484-2.7651367-2.2773438-.293457.4804688-.53125.953125-.7651367,1.4541016-.0244141.0322266-.0576172.1074219-.0820312.1396484-.1948242.2539062-.5629883.2734375-.8168945.078125-.2060547-.1582031-.2509766-.3955078-.168457-.6337891.1831055-.5664062.6508789-1.2402344.9536133-1.7646484-.7172852-.5771484-1.4624023-1.1503906-2.1552734-1.7587891-.2607422.4052734-1.2333984,1.8017578-1.3662109,2.2041016-.0087891.0439453-.0170898.0878906-.0537109.1347656-.1831055.2382812-.5595703.3017578-.8134766.1064453-.2060547-.1582031-.2548828-.4228516-.171875-.6621094.1572266-.4335938.4702148-.8740234.7192383-1.2626953.7631836-1.2548828,1.5859375-2.4892578,2.4882812-3.6630859.2436523-.3164062.5556641-.6572266.9838867-.328125.4599609.3535156.1025391.7861328-.1411133,1.1025391Zm15.0893555-3.3818359c-.0400391,1.0029297-.6191406,2.5761719-1.2163086,3.3535156-1.3413086,1.7441406-3.1728516,1.3691406-4.7875977.2539062.1416016,1.1943359.3271484,2.3964844.5249023,3.5830078.074707.4609375.2304688,1.1103516.2890625,1.5595703.0258789.1962891.0126953.3115234-.109375.4707031-.1953125.2529297-.5317383.296875-.7851562.1025391-.0952148-.0732422-.1660156-.1787109-.1967773-.3027344-.2182617-.7988281-.331543-1.6679688-.4536133-2.4931641-.2797852-1.7041016-.5151367-3.3984375-.6542969-5.1201172-.5708008.8730469-1.1533203,1.7617188-1.6166992,2.6923828.0024414.1279297-.0268555.2314453-.1000977.3261719-.1948242.2539062-.503418.2939453-.765625.1435547-.4013672-.2333984-.8803711-.6269531-1.2451172-.9072266-.8486328-.6025391-1.6733398-1.2363281-2.4819336-1.8583984-.9511719-.7314453-1.8901367-1.4785156-2.8168945-2.2421875-.4121094-.3164062-.855957-.6582031-1.2319336-1.0224609-.2290039-.2265625-.2412109-.5390625-.0463867-.7929688.2075195-.2695312.5668945-.2451172.8046875-.0625.0952148.0732422.1943359.1748047.2890625.2480469.5854492-1.0888672,1.2460938-2.1455078,2.0019531-3.1279297,1.2680664-1.6494141,1.2241211-1.3291016,2.7304688-.1708984,1.2524414.9628906,4.5693359,3.5390625,5.3916016,4.7011719.105957.1572266.1132812.2128906.1230469.3974609.0429688.7646484.0854492,1.5292969.15625,2.2900391.1621094.1494141.324707.2998047.4990234.4335938,1.1254883.8662109,2.5449219,1.5791016,3.5932617.2158203.6342773-.8251953.8022461-1.8310547.9741211-2.8085938.0292969-.1035156.0463867-.1914062.1074219-.2705078.1948242-.2539062.5595703-.3017578.7973633-.1191406.1743164.1347656.2402344.3115234.2255859.5273438Zm-12.7089844-4.6015625c-.1904297-.1464844-.3930664-.2773438-.5673828-.4111328-.1621094.1777344-.3081055.3681641-.4423828.5429688-.7558594.9824219-1.4448242,2.0429688-1.9858398,3.1396484.4633789.3818359.9106445.7519531,1.3862305,1.1171875.6879883-1.2880859,1.5473633-2.5693359,2.5004883-3.6777344-.237793-.1835938-.4633789-.3818359-.7011719-.5644531l-.1899414-.1464844Zm1.3037109,2.0117188c-.7314453.9511719-1.4765625,2.0185547-2.0053711,3.0996094l1.2524414.9638672c.7314453-1.2792969,1.5703125-2.5019531,2.3330078-3.7568359-.3681641-.3076172-.7207031-.6044922-1.1010742-.8964844-.1743164.1933594-.3208008.3837891-.4790039.5898438Zm2.2353516,1.390625c-.7133789,1.0917969-1.4228516,2.2109375-2.0727539,3.3515625.4755859.3662109.9477539.703125,1.4233398,1.0693359.6704102-1.2001953,1.4165039-2.3671875,2.1821289-3.4941406-.4145508-.4453125-.8818359-.8544922-1.3208008-1.2675781l-.2119141.3408203Z"/>
        <path class="cls-2" d="m17.7368932,28.4894233c-.3486328,1.1171875-.4116211,2.9580078-.4379883,4.1201172l.0117188.7685547c-.003418.1845703-.0913086.3603516-.2304688.4746094-.246582.2041016-.6000977.1845703-.8164062-.078125-.0761719-.0927734-.121582-.2109375-.1235352-.3388672-.0751953-.8447266.1381836-5.1435547.6782227-5.5888672.246582-.203125.6254883-.1523438.8291016.09375.1269531.1542969.1518555.3417969.0893555.5488281Zm12.0664062-5.3916016c-.2236328.703125-.7758789,1.5732422-1.3466797,2.0449219-1.3574219,1.1191406-2.4282227.1357422-3.331543-.9589844-.534668-.6484375-.9916992-1.359375-1.418457-2.0966797l-.246582.203125c-1.03125.8251953-2.0263672,1.7236328-2.9555664,2.671875.5791016.921875,1.1274414,1.8691406,1.6630859,2.8017578.2768555.5234375.6347656,1.0839844.8369141,1.6425781.0908203.2363281.0356445.5146484-.1645508.6806641-.2314453.1904297-.6254883.1533203-.8291016-.09375-.0258789-.03125-.0639648-.0771484-.0864258-.1367188-.2685547-.6074219-.6083984-1.2089844-.9360352-1.7939453-.6674805-1.1865234-1.3969727-2.3212891-2.1103516-3.4697266-.1855469-.2880859-.1279297-.5947266.1342773-.8115234.3085938-.2539062.6586914-.0498047.8623047.1962891.8642578-.8681641,1.7670898-1.6914062,2.7084961-2.4667969.4165039-.34375,1.2680664-1.2285156,1.7773438-.6113281l.0761719.0927734c.4692383.8828125.9594727,1.6972656,1.5957031,2.46875.190918.2314453.8935547,1.0517578,1.2089844,1.0244141.1713867-.0117188.3510742-.1083984.4897461-.2226562.6171875-.5087891.9223633-1.6162109,1.1538086-1.8066406.262207-.2167969.628418-.1816406.8320312.0654297.1396484.1699219.1489258.3691406.0864258.5761719Zm-8.9130859,6.1347656l-.0336914.6494141-.0654297,1.2724609-.0561523,1.4726562c.3320312.2441406.609375.6123047.8637695.9208984,1.0307617,1.2490234,1.96875,2.5751953,2.8945312,3.8857422.421875.6367188,1.0908203,1.5107422,1.4384766,2.1835938.1669922.328125.0712891.5888672-.190918.8056641-.2163086.1777344-.5869141.0429688-.7392578-.1416016l-.0639648-.0771484c-.6245117-1.0410156-1.3266602-2.0166016-2.0283203-2.9931641-.7119141-1.0205078-1.4516602-2.0429688-2.2407227-3-.0395508.7070312-.0791016,1.4130859-.1464844,2.1171875-.0395508.265625-.0537109.5634766-.1064453.8134766-.0288086.1533203-.0805664.2480469-.2041016.3496094-.262207.2167969-.6000977.1845703-.8037109-.0625-.1269531-.1542969-.1416016-.2978516-.1254883-.4667969.2016602-1.9550781.2753906-3.9082031.3491211-5.8613281.0185547-.6376953.0273438-1.3193359.1020508-1.9511719.0161133-.1689453.0703125-.2910156.2094727-.40625.246582-.203125.612793-.1679688.8164062.078125.1142578.1396484.1318359.2548828.1308594.4111328Zm14.887207,2.5214844c-.6479492.5351562-5.0341797,1.09375-6.0102539,1.1992188-.1811523,1.4462891-.5366211,3.3720703-1.3520508,4.6152344-.0336914.0537109-.0644531.0791016-.1108398.1171875-.246582.203125-.597168.1552734-.8007812-.0908203-.1782227-.2158203-.1538086-.4697266-.0195312-.6835938.6791992-1.1572266.9370117-2.5097656,1.1044922-3.8154297-.6889648.0761719-1.3754883.1240234-2.0463867.1591797-.2436523.0195312-.5024414.0507812-.7431641.0419922-.184082-.0029297-.3349609-.0605469-.4624023-.2148438-.203125-.2470703-.1557617-.5966797.0913086-.8007812.1079102-.0888672.2104492-.1220703.3540039-.1367188.3149414-.0263672.6430664-.0371094.9707031-.0488281.6582031-.0507812,1.3037109-.1162109,1.9648438-.1953125.1171875-1.3662109.1367188-2.7568359-.0332031-4.09375-.9101562.75-1.7822266,1.5478516-2.6416016,2.3603516-.5297852.4882812-1.0908203,1.0029297-1.5439453,1.5849609-.0185547.0410156-.0644531.0791016-.0957031.1044922-.246582.203125-.6254883.1533203-.8291016-.09375-.1777344-.2158203-.1508789-.4980469-.0014648-.7246094.2167969-.3349609.559082-.6425781.8393555-.9003906,1.0708008-1.0898438,2.2075195-2.1318359,3.3647461-3.0859375.3081055-.2548828.6660156-.5751953,1.0097656-.7558594.2543945-.1318359.5664062-.1298828.7573242.1015625.0639648.0771484.0966797.1796875.1166992.2666016.3662109,1.5126953.3535156,3.5712891.2329102,5.1220703,1.5683594-.2041016,3.8354492-.4414062,5.2954102-.9980469.2358398-.0908203.4892578-.0664062.6674805.1494141.2036133.2470703.168457.6132812-.0786133.8164062Z"/>
        <path class="cls-2" d="m46.2642369,12.9571968c.1064453.9296875-1.2041016,5.4726562-1.5454102,6.4921875-.2329102.6972656-.5024414,1.4121094-.815918,2.0830078.4379883.2509766.8847656.4746094,1.3408203.7167969.3666992.1972656.769043.3769531,1.1445312.5917969.125.0712891.1967773.125.2592773.2509766.1513672.3037109.034668.6523438-.2695312.8046875-.1967773.0976562-.3579102.0888672-.5541992.0078125-.3759766-.1699219-.7602539-.4033203-1.1264648-.6005859l-3.2631836-1.7021484c-.4023438-.2246094-1.1176758-.5380859-1.4838867-.8251953-.0805664-.0712891-.1523438-.125-.1967773-.2148438-.1425781-.2861328-.0170898-.6611328.2871094-.8134766.2324219-.1162109.3935547-.0625.6083984.0546875.7148438.4033203,1.4482422.796875,2.1987305,1.1826172.9145508-1.9755859,1.7407227-5.1142578,2.1367188-7.2783203-1.4672852.3291016-3.0068359,1.0966797-4.3491211,1.7666016-1.378418.6865234-3.8393555,1.9814453-4.9135742,3.0537109-.0449219.0449219-.1074219.0986328-.1611328.125-.3046875.1513672-.6621094.0175781-.8139648-.2871094-.1162109-.2324219-.0708008-.4560547.0991211-.6523438.796875-.9570312,4.144043-2.7597656,5.3076172-3.3408203,1.0917969-.5439453,4.331543-2.0703125,5.5385742-1.9345703.2329102.0175781.4116211.1074219.5185547.3222656.0356445.0712891.0449219.1337891.0537109.1972656Z"/>
        <path class="cls-2" d="m67.0987096,7.0099311c-.1074219.9306641-2.4130859,5.0576172-2.9760742,5.9736328-.3852539.6259766-.809082,1.2617188-1.2666016,1.84375.3696289.34375.7543945.6630859,1.1435547,1.0019531.3120117.2753906.6635742.5410156.9804688.8359375.1054688.0976562.1630859.1660156.1953125.3027344.0791016.3300781-.1137695.6435547-.4443359.7226562-.2138672.0507812-.3686523.0058594-.5419922-.1171875-.3271484-.2509766-.6489258-.5654297-.9609375-.8408203l-2.7924805-2.3974609c-.3408203-.3095703-.9663086-.7773438-1.2583008-1.1386719-.0625-.0888672-.1196289-.1572266-.1430664-.2539062-.0742188-.3115234.1333008-.6484375.4638672-.7275391.2529297-.0605469.3974609.0283203.5800781.1904297.6054688.5546875,1.2299805,1.1044922,1.8740234,1.6503906,1.3383789-1.7167969,2.8540039-4.5869141,3.7299805-6.6054688-1.5039062-.0117188-3.1767578.3876953-4.6362305.7353516-1.4980469.3574219-4.1879883,1.0605469-5.4775391,1.8613281-.0537109.0332031-.1269531.0712891-.1855469.0849609-.3305664.0791016-.6484375-.1328125-.7270508-.4638672-.0605469-.2529297.0336914-.4599609.2441406-.6132812.9931641-.7509766,4.6616211-1.7490234,5.9262695-2.0498047,1.1865234-.2832031,4.6875-1.0361328,5.8330078-.6308594.222168.0703125.3759766.1982422.4316406.4316406.0185547.078125.0131836.1416016.0078125.2041016Z"/>
        <path class="cls-2" d="m78.5069127,6.3722358c-.96875,1.9765625-1.5419922,4.9072266-1.5068359,7.1074219.0068359.4199219.0332031.8203125.1196289,1.21875.1791992-.0625.3369141-.2060547.5371094-.2089844.3198242-.0048828.6044922.2705078.6098633.6103516.003418.2001953-.0942383.3623047-.2524414.484375-.2373047.1845703-.9726562.4755859-1.2529297.4804688-.2597656.0039062-.4624023-.1328125-.565918-.3505859-.2890625-.5761719-.3657227-1.5957031-.3759766-2.2353516-.0327148-2.0605469.5859375-5.8925781,1.6176758-7.6894531.1171875-.1826172.2954102-.3046875.515625-.3085938.3398438-.0058594.6245117.2705078.6293945.5898438.0019531.1201172-.0366211.2011719-.0751953.3017578Zm9.3056641,7.5742188c-.8798828.0146484-3.8378906-2.2597656-3.8525391-3.1796875-.0053711-.3203125.2504883-.5839844.5908203-.5898438.2402344-.0039062.421875.1132812.5454102.3115234.5341797.8916016,1.9321289,1.9501953,2.8979492,2.2949219.2416992.0957031.4047852.2939453.4091797.5537109.0053711.3398438-.2705078.6044922-.5908203.609375Zm.2143555-6.6259766c-.340332.0048828-.6049805-.2705078-.6098633-.5908203-.0014648-.0996094.0170898-.1806641.0556641-.2607422-.3017578-.0957031-.7822266-.1074219-1.1020508-.1025391-.4799805.0078125-.9594727.0556641-1.4174805.203125-.0595703.0205078-.1191406.0410156-.1992188.0429688-.3203125.0048828-.6049805-.2705078-.6103516-.6103516-.0039062-.2607422.1723633-.4833984.4111328-.5673828.5175781-.1884766,1.3164062-.28125,1.8564453-.2900391.8203125-.0126953,2.3227539.1230469,2.3408203,1.2236328.0063477.4003906-.2651367.9443359-.7250977.9521484Z"/>
        <path class="cls-2" d="m101.0742955,7.3136421c-.1020508.3671875-.2431641.7255859-.3447266,1.0917969-.0043945.0195312-.0131836.0585938.0019531.0830078-.0170898.078125-.0390625.1757812-.1103516.2207031-.1801758.3496094-.2905273.7558594-.7788086.6474609-.2539062-.0566406-.4453125-.3037109-.4082031-.5625-1.0288086-.1660156-2.0571289-.3330078-3.1035156-.421875-.4287109,1.7490234-.8339844,3.4833984-1.2241211,5.2412109-.1860352.8398438-.3681641,1.6601562-.5351562,2.5039062-.0996094.4492188-.2231445.9140625-.2641602,1.3759766l-.0175781.078125c-.0649414.2929688-.3554688.4951172-.6484375.4296875-.2929688-.0644531-.4296875-.2792969-.4472656-.5703125-.0195312-.3730469.59375-3.0449219.7021484-3.5332031.5546875-2.5,1.1523438-5.0107422,1.8046875-7.4892578.2363281-.9716797.4921875-1.9394531.7827148-2.8798828.1147461-.4248047.2338867-.8701172.402832-1.2626953.1000977-.2646484.3540039-.3925781.6274414-.3320312.234375.0517578.3793945.2275391.434082.4443359.6811523.0693359,1.3691406.2011719,2.0527344.3535156.3710938.0820312,1.4213867.3359375,1.7275391.5263672.3212891.2148438.3125.4384766.2387695.7705078-.246582,1.1132812-.5522461,2.2138672-.8925781,3.2851562Zm-1.1420898-.9492188c-.9526367-.2324219-1.9614258-.3945312-2.9643555-.4941406-.1274414.484375-.2514648.9482422-.359375,1.4365234,1.0654297.0927734,2.1328125.2685547,3.1811523.4394531l.4160156-1.3212891-.2734375-.0605469Zm6.8876953,6.1796875c-.4882812-.1083984-.9960938-.2207031-1.4887695-.3095703l-.0737305.3320312c-.3642578,1.640625-.7670898,3.2724609-1.2089844,4.8955078-.2514648.9482422-.5205078,1.9746094-.9238281,2.8691406-.1147461.2412109-.3535156.3925781-.6269531.3320312-.2929688-.0644531-.4902344-.375-.425293-.6679688l.0214844-.0976562c.2729492-.6777344.4921875-1.3867188.706543-2.0771484-1.1328125-.0664062-2.2802734-.1572266-3.4243164-.2675781-.6616211-.0654297-1.355957-.0761719-2.0200195-.2236328l-.0585938-.0126953c-.2734375-.0605469-.4799805-.3320312-.4189453-.6054688.0693359-.3125.2924805-.4882812.6181641-.4775391.4077148.0087891.8374023.1044922,1.2563477.15625.1191406-.6298828.262207-1.2744141.4008789-1.8994141.2426758-1.09375.4853516-2.1875.7866211-3.2675781-.6098633-.1152344-1.2128906-.1669922-1.8076172-.2578125l-.078125-.0175781c-.2929688-.0644531-.4755859-.3515625-.4106445-.6445312.0654297-.2929688.2841797-.4492188.5708008-.4472656.3256836.0107422.6577148.0849609.9545898.1298828.7358398.1025391,1.4628906.2431641,2.1748047.3603516,1.8681641.3525391,3.7412109.6865234,5.5966797,1.0976562.3515625.078125.6337891.2841797.5424805.6943359-.0649414.2929688-.3706055.4707031-.6635742.40625Zm-6.9599609-8.7167969c-.7226562-.1601562-1.4692383-.3056641-2.2133789-.3681641l-.3774414,1.3300781c1.0766602.1367188,2.1831055.3203125,3.2333984.5742188.1152344-.4257812.2299805-.8505859.3251953-1.2802734-.3232422-.1132812-.6357422-.1826172-.9677734-.2558594Zm.2338867,11.5078125c-.0869141.390625-.1494141.765625-.2363281,1.15625,1.0849609.0976562,2.1704102.1943359,3.2441406.2480469l.2387695-.8896484c-1.0786133-.21875-2.1704102-.3789062-3.246582-.5146484Zm3.4711914-1.4228516c-1.0112305-.2451172-2.0288086-.3681641-3.0380859-.5302734l-.1904297.859375c1.0913086.1601562,2.1831055.3203125,3.2617188.5390625.0712891-.2304688.1235352-.4648438.175293-.6992188l.0258789-.1171875-.234375-.0517578Zm.6875-1.8964844c-1.0786133-.2197266-2.1420898-.4140625-3.2246094-.6132812l-.2431641.9091797c1.0961914.140625,2.203125.3242188,3.2729492.5830078l.1948242-.8789062Zm7.4243164-4.6445312c-.6547852,2.9492188-1.3520508,5.9091797-2.1044922,8.8369141-.2773438,1.0654297-.5546875,2.1308594-.8710938,3.1875-.1928711.5927734-.3706055,1.2089844-.6416016,1.7841797-.1152344.2412109-.3686523.3691406-.6225586.3125-.5078125-.1123047-1.4067383-.6806641-1.7714844-1.0683594-.1298828-.1523438-.1972656-.3105469-.1542969-.5058594.0654297-.2929688.3515625-.4755859.6445312-.4101562.1171875.0253906.1865234.0820312.2714844.1621094.2583008.2216797.5209961.4228516.8354492.5751953.4575195-1.2304688.7871094-2.5302734,1.1274414-3.7871094.4570312-1.7841797.890625-3.5527344,1.3041992-5.3251953l-.5273438-.1171875c-1.09375-.2431641-2.215332-.4511719-3.315918-.5722656-.0673828.0263672-.1064453.0175781-.1845703,0-.2929688-.0644531-.4404297-.3232422-.4189453-.6044922.0214844-.4667969.1733398-.9658203.2773438-1.4345703.2124023-.9570312.8388672-3.6875,1.2592773-4.4755859.1108398-.2207031.3491211-.3730469.6030273-.3164062.2929688.0644531.5102539.3789062.4453125.671875-.0087891.0390625-.0327148.0546875-.0410156.09375-.3383789.7851562-.5488281,1.640625-.7695312,2.4521484,1.1738281.1582031,2.3588867.359375,3.4980469.6738281l.0825195-.3710938.2250977-1.015625c-.347168-.0976562-.4794922-.1474609-.8310547-.2255859-.5273438-.1171875-1.2783203-.2421875-1.8144531-.3203125l.15625.0341797c-.296875-.0449219-.4946289-.3554688-.425293-.6679688.0605469-.2734375.2993164-.4248047.5854492-.4228516.5297852.0146484,1.1113281.1640625,1.6386719.28125.4101562.0908203,1.2456055.296875,1.5908203.4960938.2167969.1308594.3300781.3603516.2734375.6142578l-.1948242.8789062-.1298828.5859375Zm-2.171875,1.0146484c-.8984375-.2001953-1.8251953-.3642578-2.7407227-.4853516-.0566406.2539062-.1279297.4833984-.1845703.7373047l-.0429688.1953125c-.0390625.1757812-.0629883.3759766-.1064453.5712891,1.1738281.1572266,2.3588867.359375,3.5024414.6542969.1083984-.4882812.2211914-.9960938.3491211-1.4804688-.2495117-.0761719-.503418-.1318359-.7768555-.1923828Z"/>
        <path class="cls-2" d="m119.4644322,20.0255561c-.6323242.1630859-2.074707.0263672-2.6518555-.25-.7753906-.3710938-.8671875-2.078125-.90625-2.7841797-.0488281-.7773438-.0444336-3.1474609.2749023-3.8144531.1381836-.2890625.5117188-.4208984.800293-.2822266.2705078.1298828.3823242.4052734.3334961.6914062-.0649414.3681641-.1303711.7363281-.1777344,1.1123047-.065918.8330078-.0957031,3.3027344.265625,4.0292969.5043945.1972656,1.2910156.1748047,1.8266602.1210938.1430664-.0205078.2504883-.0126953.3764648.046875.3066406.1474609.4204102.5117188.2822266.8007812-.0864258.1806641-.2275391.2900391-.4238281.3291016Zm9.1474609,2.4736328c-.2885742-.1386719-.4116211-.5292969-.2734375-.8183594.043457-.0898438.0957031-.1533203.1665039-.2089844.3261719-.2646484.5532227-.5996094.734375-.9785156.1899414-.3964844.4375-1.0986328.3051758-1.5166016-.0561523-.1601562-.0498047-.3115234.027832-.4746094.1381836-.2880859.5029297-.4013672.7915039-.2636719.8115234.3886719.234375,2.1962891-.0419922,2.7734375-.2333984.4873047-1.0244141,1.8154297-1.7099609,1.4873047Z"/>
        <path class="cls-2" d="m143.7569127,26.6681343c-.9692383-.3896484-1.9389648-1.0351562-2.7924805-1.6650391-2.2675781.9804688-7.2646484,3.6494141-8.7626953,5.5263672-.2119141.265625-.2929688.5595703-.4301758.7314453-.199707.25-.609375.2822266-.859375.0820312-.5161133-.4121094.0390625-1.171875.3388672-1.546875,1.6098633-2.0175781,6.1694336-4.5234375,8.6655273-5.6289062-.4443359-.40625-.9448242-.8056641-1.3515625-1.2578125-.2128906-.2470703-.2319336-.5439453-.0322266-.7939453.199707-.2509766.5742188-.3349609.8276367-.1074219l.0629883.0498047c.5722656.5341797,1.1323242,1.0830078,1.7421875,1.5703125.328125-.1230469.6933594-.2919922,1.027832-.3574219.1811523-.0351562.3564453.0019531.5126953.1269531.2504883.2001953.3071289.578125.1074219.828125-.125.15625-.2998047.2470703-.484375.2539062.6040039.4306641,1.2387695.7578125,1.9013672,1.0820312.0595703.0214844.0908203.046875.1376953.0839844.2661133.2119141.3071289.578125.0947266.84375-.1748047.21875-.4526367.2783203-.7060547.1787109Zm-2.6762695,11.9189453c-.7509766-.5986328-2.2314453-2.3691406-2.5166016-3.2626953-.065918-.2060547-.0444336-.3935547.0805664-.5498047.2124023-.265625.6025391-.3378906.8686523-.1259766.109375.0878906.1469727.1689453.1879883.2783203.4072266.9648438,1.3959961,2.0351562,2.1591797,2.7470703.269043.2402344.2915039.5654297.0668945.8466797-.2124023.265625-.5966797.2666016-.8466797.0664062Zm4.387207-5.3046875c-.0625-.0498047-.1123047-.1152344-.1625977-.1816406-.1376953-.2119141-.315918-.4052734-.5195312-.5673828-.7036133-.5625-1.6450195-.9550781-2.5107422-1.1845703-.0874023-.0185547-.1625977-.0537109-.2407227-.1152344-.2661133-.2128906-.3227539-.5908203-.1103516-.8564453.1499023-.1875.3837891-.2568359.6030273-.2099609.9311523.1796875,2.2446289.84375,2.9794922,1.4306641.4067383.3242188,1.2265625,1.0292969.7768555,1.5927734-.199707.25-.5649414.2910156-.8154297.0917969Z"/>
        <path class="cls-2" d="m148.6778111,49.6320015c-.534668-.6728516.9741211-1.7949219,1.8349609-2.4785156.2504883-.1992188.644043-.1542969.8427734.0966797.6342773.7978516-1.1757812,1.4443359-1.703125,2.3232422-.034668.0527344-.0849609.1181641-.1474609.1679688-.2661133.2119141-.6157227.1572266-.8271484-.109375Zm11.9555664-8.8320312c-2.2758789,1.6025391-4.7114258,3.3583984-6.902832,5.0996094-.2348633.1865234-.644043.1542969-.8427734-.0966797-.3730469-.4697266.0371094-.8212891.3813477-1.0947266,1.4404297-1.1435547,2.9150391-2.2128906,4.3925781-3.3095703.6542969-.4941406,1.6499023-1.234375,2.3349609-1.625.2597656-.1552734.5810547-.1044922.7802734.1455078.2236328.2822266.1694336.6318359-.0966797.8427734l-.046875.0380859Z"/>
      </g>
      <g>
        <path class="cls-2" d="m46.5362096,59.0050483c-.7338867,1.1992188-1.5400391,2.2460938-2.4204102,3.1396484l-.2597656-.2001953c1.1064453-1.5996094,2.1064453-3.5732422,3-5.9199219.2529297-.6396484.4863281-1.3759766.7001953-2.2099609.2128906-.8330078.3398438-1.5166016.3798828-2.0498047,1.3466797.4267578,2.0200195.7333984,2.0200195.9199219,0,.0537109-.0600586.0996094-.1801758.1396484l-.3598633.1201172c-.4799805,1.4003906-1.09375,2.8203125-1.840332,4.2597656.4404297.3476562.6601562.59375.6601562.7402344,0,.0673828-.0600586.1337891-.1796875.2001953l-.2802734.1396484v6.7001953c.0263672,1.6533203.0800781,3.2197266.1601562,4.7001953-.1069336.1328125-.2700195.2568359-.4902344.3701172-.2197266.1132812-.4433594.1699219-.6699219.1699219-.1201172,0-.2270508-.0400391-.3198242-.1201172-.09375-.0800781-.1401367-.1738281-.1401367-.2802734.0532227-.7861328.1000977-1.5498047.1401367-2.2900391.0400391-.7392578.0664062-1.7099609.0800781-2.9091797v-5.6201172Zm12.8598633-3.1601562c.0400391-.0537109.1064453-.1435547.199707-.2705078.0932617-.1259766.1801758-.1894531.2602539-.1894531s.2431641.0927734.4897461.2802734c.246582.1865234.4731445.3867188.6801758.5996094.206543.2128906.3100586.3671875.3100586.4599609-.0668945.0800781-.1699219.1601562-.3100586.2402344s-.3032227.1396484-.4897461.1796875v1.9599609c.0395508,1.6533203.0864258,2.9267578.1396484,3.8203125-.0800781.1201172-.253418.2402344-.5200195.359375-.2666016.1201172-.4931641.1806641-.6796875.1806641h-.1801758v-.6601562h-3.5800781c-.0800781.7998047-.2133789,1.5166016-.3999023,2.1494141-.1870117.6337891-.4599609,1.2109375-.8198242,1.7304688,1.8398438,1.2001953,4.3061523,1.8535156,7.3999023,1.9599609v.2197266c-.2802734.0800781-.5170898.2333984-.7099609.4599609-.1933594.2265625-.3168945.5068359-.3701172.8408203-1.5332031-.2001953-2.8666992-.5234375-4-.9707031-1.1333008-.4462891-2.0932617-1.0498047-2.8798828-1.8095703-.5869141.6269531-1.340332,1.1728516-2.2602539,1.6396484s-2.0600586.8671875-3.4199219,1.2001953l-.1801758-.2998047c1.293457-.4541016,2.3569336-.9472656,3.1904297-1.4804688.8330078-.5332031,1.4897461-1.1328125,1.9697266-1.7998047-.5200195-.6269531-.9667969-1.3662109-1.3398438-2.2197266-.5200195.7333984-.9599609,1.3193359-1.3203125,1.7597656.0268555.0400391.0400391.0996094.0400391.1796875,0,.1337891-.046875.2333984-.1396484.3007812l-.8203125-1.1601562c.9599609-.6533203,1.6733398-1.1806641,2.1401367-1.5800781l.2402344-.7402344.6196289.3398438-.5600586.5800781c.4404297.7470703.9467773,1.3798828,1.5200195,1.9003906.4667969-.8671875.753418-1.9335938.8603516-3.2001953h-3.340332v.4199219c0,.0664062-.1132812.1533203-.3398438.2597656-.2270508.1074219-.4536133.1601562-.6801758.1601562-.0932617,0-.1699219-.0400391-.2299805-.1201172s-.0898438-.1728516-.0898438-.2802734c.0532227-.5859375.0932617-1.3398438.1201172-2.2597656v-1.3398438c0-1.6796875-.0869141-3.0400391-.2602539-4.0800781l1.5800781.7402344h3.2802734v-2.1201172h-1.6801758c-.9467773.0136719-1.9467773.1064453-3,.2802734l-.5200195-1.0205078c.7329102.0800781,1.6201172.1337891,2.6601562.1601562h7.1396484l.4204102-.5996094c.0395508-.0664062.1030273-.1572266.1899414-.2705078.0864258-.1132812.15625-.2001953.2099609-.2597656.0532227-.0595703.1064453-.0898438.159668-.0898438.0800781,0,.253418.1035156.5200195.3095703.2666016.2070312.5166016.4306641.75.6699219.2333984.2402344.3500977.4072266.3500977.5-.0131836.2138672-.1733398.3203125-.4799805.3203125h-5.4599609v2.1201172h3.3198242l.300293-.4599609Zm-4.8798828,3.3798828v-2.3398438h-3.3803711v2.3398438h3.3803711Zm-.0200195,2.9794922c.0131836-.1992188.0200195-.5126953.0200195-.9394531v-1.4804688h-3.3803711v2.4199219h3.3603516Zm1.2797852-.9794922c0,.4404297-.0068359.7666016-.0200195.9794922h3.5400391v-2.4199219h-3.5200195v1.4404297Zm3.5200195-2v-2.3398438h-3.5200195v2.3398438h3.5200195Z"/>
        <path class="cls-2" d="m68.9961705,60.9650093c-1.2402344,2.359375-2.9072266,4.3535156-5,5.9794922l-.2402344-.2792969c1.0131836-1.0136719,1.9331055-2.2236328,2.7602539-3.6308594.8261719-1.40625,1.5-2.8564453,2.0200195-4.3496094h-1.3803711c-.7998047.0136719-1.6269531.1064453-2.4799805.2802734l-.5-1.0205078c.7333984.0800781,1.6201172.1337891,2.6601562.1601562h2.1601562v-3.6396484c-1.5336914.3066406-3.0600586.5332031-4.5800781.6796875l-.0800781-.3603516c1.6665039-.3330078,3.3066406-.7998047,4.9199219-1.3994141,1.3466797-.5068359,2.4399414-1.0800781,3.2802734-1.7197266.9462891.9462891,1.4199219,1.5068359,1.4199219,1.6796875,0,.09375-.1000977.1269531-.300293.0996094l-.5-.0595703c-.7597656.2666016-1.7333984.5400391-2.9199219.8193359v3.9003906h1.9399414l.3999023-.5996094c.0400391-.0537109.1000977-.1367188.1801758-.25s.1499023-.2001953.2099609-.2607422c.0600586-.0595703.1166992-.0898438.1699219-.0898438.0800781,0,.25.1035156.5102539.3105469.2597656.2070312.5.4267578.7197266.6601562.2202148.2333984.3300781.3964844.3300781.4892578-.0532227.2138672-.2197266.3203125-.5.3203125h-3.9599609v1.4599609c1.253418.5595703,2.1699219,1.1738281,2.75,1.8398438.5800781.6669922.8701172,1.2597656.8701172,1.7802734,0,.2265625-.0498047.4072266-.1499023.5400391-.1000977.1337891-.2368164.2001953-.4101562.2001953-.1601562,0-.3266602-.0664062-.5-.2001953-.1469727-.5605469-.4633789-1.1796875-.9501953-1.8603516-.4868164-.6796875-1.0234375-1.3125-1.6098633-1.8994141v4.4394531c.0268555,1.6533203.0800781,3.2197266.1601562,4.7001953-.09375.1328125-.2470703.2568359-.4599609.3701172-.2133789.1132812-.4536133.1699219-.7202148.1699219-.1069336,0-.206543-.0400391-.2998047-.1201172-.09375-.0800781-.1401367-.1738281-.1401367-.2802734.0532227-.7861328.1000977-1.5498047.1401367-2.2900391.0400391-.7392578.0664062-1.7099609.0800781-2.9091797v-3.6601562Zm6.3198242-3.3398438c0-1.6806641-.0869141-3.046875-.2597656-4.1005859.7460938.2138672,1.2626953.3837891,1.5498047.5097656.2866211.1269531.4301758.2373047.4301758.3300781,0,.0673828-.0600586.1337891-.1801758.2001953l-.3398438.2197266v6.1601562c.0263672,1.6533203.0795898,3.2207031.159668,4.7001953-.0800781.1464844-.2333984.2773438-.4599609.3896484-.2265625.1142578-.453125.1699219-.6796875.1699219-.1069336,0-.1972656-.0390625-.2700195-.1191406-.0737305-.0800781-.1103516-.1738281-.1103516-.2802734.0800781-1.2666016.1333008-2.5263672.1601562-3.7802734v-4.3994141Zm4.1401367-1.3408203c0-1.6796875-.0869141-3.0458984-.2602539-4.0996094.7602539.2265625,1.2866211.4033203,1.5800781.5302734.2929688.1269531.4399414.2363281.4399414.3300781,0,.0664062-.0600586.1328125-.1796875.1992188l-.340332.2001953v14.7998047c0,.4140625-.0498047.7470703-.1499023,1-.1000977.2539062-.296875.4599609-.5898438.6201172-.293457.1601562-.7333984.2734375-1.3203125.3398438-.0932617-.4667969-.2333984-.7861328-.4199219-.9599609-.3334961-.2265625-.9199219-.40625-1.7597656-.5400391v-.2998047c1.4130859.1201172,2.246582.1806641,2.5.1806641.1865234,0,.3164062-.0371094.3896484-.1103516s.1103516-.1904297.1103516-.3496094v-11.8408203Z"/>
        <path class="cls-2" d="m86.5562291,56.2247749c-.7202148.0136719-1.4672852.1064453-2.2402344.2802734l-.5200195-1c.7329102.0800781,1.6201172.1328125,2.6601562.1601562h3.199707l.3603516-.5400391c.0400391-.0537109.0961914-.1308594.1699219-.2304688.0732422-.0996094.1362305-.1767578.1899414-.2294922.0532227-.0537109.1064453-.0800781.1601562-.0800781.0795898,0,.2426758.0927734.4897461.2792969.246582.1875.4731445.3867188.6801758.6005859.206543.2128906.3100586.3662109.3100586.4599609-.0537109.2001953-.2202148.2998047-.5.2998047h-4.9599609Zm2.5195312,1.4794922c.0400391-.0527344.0932617-.1259766.1601562-.2197266.0664062-.0927734.1230469-.1630859.1699219-.2099609s.0966797-.0703125.1503906-.0703125c.1328125,0,.3930664.1738281.7797852.5205078s.5800781.59375.5800781.7402344c-.0537109.2128906-.2202148.3193359-.5.3193359h-2.2602539c-.9467773.0136719-1.9467773.1074219-3,.2802734l-.5-1.0400391c.7333984.0800781,1.6201172.1337891,2.6601562.1601562h1.4399414l.3198242-.4804688Zm-.0395508,2.5400391c.0263672-.0400391.0727539-.1123047.1396484-.2197266.0668945-.1064453.1264648-.1826172.1801758-.2294922.0532227-.046875.1064453-.0703125.1601562-.0703125.1328125,0,.3930664.1796875.7797852.5400391s.5800781.6132812.5800781.7597656c-.0400391.2001953-.1933594.2998047-.4599609.2998047h-2.2602539c-.9467773.0136719-1.9467773.1074219-3,.2802734l-.5-1.0195312c.7333984.0800781,1.6201172.1328125,2.6601562.1591797h1.3798828l.340332-.5Zm.3398438,2.5605469c.0263672-.0400391.0698242-.1035156.1298828-.1904297.0600586-.0859375.1132812-.1494141.1601562-.1894531.0463867-.0400391.0966797-.0605469.1499023-.0605469.0800781,0,.2402344.0898438.4799805.2705078.2402344.1796875.4599609.3769531.6601562.5898438.199707.2138672.2998047.3671875.2998047.4599609-.0532227.0800781-.1533203.1572266-.2998047.2304688-.1469727.0732422-.3134766.1298828-.5.1699219v1.6191406c.0263672,1.3076172.0664062,2.3408203.1196289,3.1005859-.0664062.1064453-.2231445.2197266-.4697266.3398438-.2470703.1201172-.4702148.1796875-.6699219.1796875-.0800781,0-.1435547-.0400391-.1899414-.1201172-.046875-.0791016-.0703125-.1728516-.0703125-.2792969l.0800781-.3203125v-.3798828h-3.199707v.4599609c.0395508.4667969.0664062.7333984.0795898.7998047-.0400391.1201172-.1699219.2363281-.3896484.3505859-.2202148.1123047-.4501953.1699219-.6899414.1699219-.0800781,0-.1469727-.0400391-.2001953-.1201172-.0537109-.0800781-.0800781-.1738281-.0800781-.2802734.0532227-.546875.0932617-1.2265625.1201172-2.0400391v-1.2402344c0-1.5058594-.0800781-2.7597656-.2402344-3.7597656l1.5.6796875h2.9199219l.300293-.4394531Zm-.2802734-10.1396484c.0532227-.0673828.1069336-.140625.1601562-.2207031s.1098633-.1533203.1699219-.2197266.1166992-.0996094.1699219-.0996094c.0800781,0,.2402344.0927734.4799805.2792969.2402344.1875.4633789.3867188.6704102.6005859.206543.2128906.3100586.3662109.3100586.4599609-.0400391.2128906-.2070312.3193359-.5.3193359h-2.3203125c-.9467773.0136719-1.9467773.1074219-3,.2802734l-.5-1.0400391c.7333984.0800781,1.6201172.1337891,2.6601562.1601562h1.3398438l.3598633-.5195312Zm-3.0395508,11.1796875v3.8203125h3.199707v-3.8203125h-3.199707Zm15.8999023,5.0595703l-.0400391.2207031c-.2802734.0400391-.5268555.15625-.7402344.3496094s-.3666992.4501953-.4599609.7695312c-1.9731445-.7333984-3.5800781-1.7529297-4.8198242-3.0595703-1.5737305,1.3466797-3.5400391,2.3662109-5.8999023,3.0595703l-.1601562-.2998047c2.1865234-.8535156,3.9931641-2.0195312,5.4199219-3.5-1.0400391-1.3330078-1.8066406-3.0058594-2.2998047-5.0195312h-.5c-.2270508.0136719-.4667969.1064453-.7202148.2792969l-.5400391-1c.7333984.0800781,1.6201172.1337891,2.6601562.1601562h4.3798828l.3598633-.3994141c.0400391-.0400391.1166992-.1201172.2299805-.2402344s.2104492-.1796875.2900391-.1796875c.1201172,0,.3735352.1796875.7602539.5400391.3867188.359375.5800781.6132812.5800781.7597656-.0800781.09375-.1772461.15625-.2900391.1894531-.1137695.0341797-.2768555.0634766-.4902344.0908203-.7333984,1.90625-1.7197266,3.4931641-2.9599609,4.7597656,1.3999023,1.1464844,3.1464844,1.9863281,5.2402344,2.5195312Zm-4.6801758-16.4199219c.0263672-.0400391.0698242-.1025391.1298828-.1894531s.1132812-.1503906.1601562-.1904297c.0463867-.0400391.0966797-.0595703.1499023-.0595703.1201172,0,.3598633.1865234.7202148.5595703.3598633.3730469.5400391.6337891.5400391.7802734-.1469727.1601562-.3603516.2597656-.6401367.2998047v4.1396484c0,.1074219.0229492.1767578.0698242.2099609.046875.0341797.1567383.0507812.3300781.0507812h.8398438c.4267578,0,.6733398-.0068359.7402344-.0205078.0800781-.0126953.1367188-.0302734.1699219-.0498047.0332031-.0205078.0703125-.0703125.1098633-.1503906.0532227-.1464844.1669922-.6796875.340332-1.5996094l.159668-.7998047h.2402344l.0600586,2.4394531c.1601562.0800781.2666016.1601562.3198242.2402344s.0800781.1796875.0800781.2998047c0,.2802734-.1669922.4833984-.5.6103516-.3334961.1269531-.9267578.1894531-1.7797852.1894531h-1.1201172c-.5068359,0-.84375-.0830078-1.0102539-.25-.1665039-.1660156-.25-.4697266-.25-.9091797v-4.5800781h-2.9199219v1.1201172c0,1.1328125-.1967773,2.1894531-.5898438,3.1699219-.3935547.9794922-1.2036133,1.8095703-2.4301758,2.4892578l-.199707-.2597656c.8129883-.7460938,1.3564453-1.5595703,1.6298828-2.4394531.2729492-.8808594.4101562-1.8671875.4101562-2.9599609v-1.1806641c0-.4794922-.0200195-.90625-.0600586-1.2792969l1.5.7597656h2.5l.2998047-.4404297Zm-3.8999023,8.9404297c.5200195,1.6533203,1.3730469,3.0732422,2.5600586,4.2597656,1.0263672-1.2666016,1.7998047-2.6865234,2.3198242-4.2597656h-4.8798828Z"/>
        <path class="cls-2" d="m106.2158971,59.2443061c-.6796875,1.1738281-1.3535156,2.1669922-2.0200195,2.9804688l-.2597656-.1796875c.9331055-1.6269531,1.7729492-3.6132812,2.5200195-5.9599609.2128906-.640625.40625-1.3837891.5800781-2.2304688.1728516-.8466797.2661133-1.5429688.2797852-2.0898438,1.3598633.4130859,2.0400391.7070312,2.0400391.8798828,0,.0673828-.0600586.1201172-.1801758.1601562l-.3598633.1396484c-.4135742,1.4003906-.9467773,2.8271484-1.6000977,4.2802734.4399414.3466797.6601562.59375.6601562.7402344,0,.0927734-.0600586.1601562-.1801758.2001953l-.2998047.1191406v6.7207031c.0263672,1.6533203.0800781,3.2197266.1601562,4.6992188-.1069336.1201172-.2670898.2373047-.4804688.3505859s-.4267578.1699219-.6396484.1699219c-.1069336,0-.2070312-.0400391-.300293-.1201172s-.1396484-.1738281-.1396484-.2802734c.0527344-.7861328.0996094-1.5498047.1396484-2.2900391.0400391-.7392578.0668945-1.7099609.0800781-2.9091797v-5.3808594Zm4.2402344,1.7001953c0,1.2138672-.043457,2.3271484-.1303711,3.3398438-.0864258,1.0136719-.2929688,2.0507812-.6196289,3.1103516-.3271484,1.0595703-.8168945,2.0029297-1.4702148,2.8300781l-.2998047-.2197266c.5864258-1.2275391.9628906-2.5566406,1.1298828-3.9902344.1665039-1.4335938.25-3.1230469.25-5.0703125v-2.1601562c0-.9199219-.046875-1.6660156-.1401367-2.2392578l1.5.7597656h8.5l.3803711-.5800781c.0527344-.0664062.1098633-.1464844.1699219-.2402344.0600586-.0927734.1230469-.1728516.1899414-.2402344.0664062-.0664062.1264648-.0996094.1796875-.0996094.0800781,0,.253418.0996094.5200195.2998047s.5131836.4140625.7402344.640625c.2265625.2265625.3398438.3867188.3398438.4794922-.0400391.2138672-.206543.3203125-.5.3203125h-10.7397461v3.0595703Zm9.2597656-7.1396484c.0532227-.0664062.1064453-.1396484.1601562-.2197266.0532227-.0800781.1098633-.1533203.1699219-.2207031.0600586-.0664062.1166992-.0996094.1699219-.0996094.0800781,0,.2402344.0898438.4799805.2695312.2402344.1806641.4633789.3769531.6699219.5908203.206543.2128906.3100586.3662109.3100586.4599609-.0400391.2128906-.199707.3193359-.4799805.3193359h-3.4399414v.4599609c.0400391.4941406.0664062.7675781.0800781.8203125-.0532227.1064453-.1699219.2070312-.3500977.2998047-.1796875.09375-.4169922.140625-.7099609.140625-.0932617,0-.1635742-.0400391-.2099609-.1201172-.046875-.0800781-.0698242-.1738281-.0698242-.2802734,0-.0263672.0263672-.2734375.0795898-.7402344v-.5800781h-2.8999023v.5c.0400391.5205078.0668945.8076172.0800781.8603516-.0400391.1201172-.1567383.2197266-.3500977.2998047s-.4233398.1201172-.6899414.1201172c-.0932617,0-.1635742-.0400391-.2099609-.1201172-.046875-.0800781-.0698242-.1728516-.0698242-.2802734,0-.0263672.0263672-.2861328.0800781-.7792969v-.6005859h-1.1000977c-.6401367.0136719-1.293457.1074219-1.9599609.2802734l-.4799805-1c.6665039.0800781,1.4663086.1337891,2.3999023.1601562h1.1401367c0-1.0800781-.0537109-1.9335938-.1601562-2.5605469.6801758.2001953,1.1533203.3642578,1.4199219.4902344.2666016.1269531.3999023.2373047.3999023.3300781,0,.0673828-.0600586.1337891-.1796875.2001953l-.3203125.2197266v1.3203125h2.8999023c0-1.0800781-.0532227-1.9335938-.159668-2.5605469,1.2128906.3603516,1.8198242.6337891,1.8198242.8203125,0,.0673828-.0532227.1337891-.1601562.2001953l-.3198242.2197266v1.3203125h1.6000977l.3598633-.5400391Zm-7.0400391,13.4199219l.0200195.7998047c.0131836.6005859.0400391,1.1533203.0800781,1.6601562-.0532227.1201172-.1835938.2363281-.3901367.3496094s-.4233398.1699219-.6499023.1699219c-.0932617,0-.1767578-.0390625-.25-.1191406s-.1098633-.1738281-.1098633-.2802734c.0932617-1.3466797.152832-2.8271484.1801758-4.4404297v-2.4199219c0-1.6796875-.0869141-3.0458984-.2602539-4.0996094l1.4799805.7001953h6.3198242l.2602539-.3798828c.0263672-.0400391.0664062-.0966797.1201172-.1708984.0527344-.0722656.0996094-.1298828.1396484-.1699219s.0869141-.0595703.1401367-.0595703c.0800781,0,.246582.0830078.5.25s.4868164.3466797.7001953.5400391c.2128906.1933594.3198242.3369141.3198242.4296875-.1333008.1738281-.4067383.3134766-.8198242.4199219v8.0400391c0,.3730469-.0371094.6738281-.1103516.9003906s-.2299805.4160156-.4697266.5703125c-.2402344.1523438-.6000977.2558594-1.0800781.3095703-.0268555-.2265625-.0634766-.4169922-.1098633-.5703125-.046875-.1533203-.1171875-.2695312-.2099609-.3496094-.1738281-.2138672-.546875-.3603516-1.1201172-.4404297v-.3398438c.8398438.0800781,1.3598633.1201172,1.5600586.1201172.1328125,0,.2265625-.0302734.2797852-.0898438.0532227-.0605469.0800781-.15625.0800781-.2900391v-2.3398438h-2.7597656v1.2197266l.0200195.7597656c.0126953.546875.0395508,1.0732422.0795898,1.5800781-.0668945.1201172-.1933594.2333984-.3798828.3398438-.1870117.1064453-.4135742.1601562-.6796875.1601562-.0800781,0-.1469727-.0400391-.2001953-.1201172-.0537109-.0800781-.0800781-.1728516-.0800781-.2792969.0532227-.6142578.0932617-1.3808594.1201172-2.3007812v-1.359375h-2.7202148v1.2998047Zm2.7202148-4.7998047v-2.2802734h-2.7202148v2.2802734h2.7202148Zm-2.7202148.5595703v2.3603516h2.7202148v-2.3603516h-2.7202148Zm3.840332-.5595703h2.7597656v-2.2802734h-2.7597656v2.2802734Zm0,.5595703v2.3603516h2.7597656v-2.3603516h-2.7597656Z"/>
      </g>
      <g>
        <path class="cls-2" d="m43.1284947,109.7862983c.0800781-.0996094.1601562-.2099609.2402344-.3300781.0795898-.1201172.1650391-.2294922.2548828-.3300781.0898438-.0996094.1748047-.1494141.2548828-.1494141.1801758,0,.5649414.2744141,1.1552734.8242188.5893555.5507812.8847656.9355469.8847656,1.1552734-.0200195.2998047-.2602539.4501953-.7197266.4501953h-5.9399414c.7392578.4404297,1.284668.9150391,1.6347656,1.4248047.3496094.5097656.5249023.9951172.5249023,1.4550781,0,.3603516-.0898438.6601562-.2700195.9003906-.1796875.2392578-.4101562.359375-.6899414.359375-.2602539,0-.5200195-.1201172-.7797852-.359375.0195312-.6201172-.1103516-1.2705078-.3901367-1.9501953-.2802734-.6796875-.6298828-1.2900391-1.0498047-1.8300781h-.9902344c-1.4804688,2.3798828-3.1000977,4.2294922-4.8598633,5.5498047l-.3901367-.3603516c.8598633-.9794922,1.699707-2.1689453,2.5200195-3.5693359.4995117-.9003906.9697266-1.9501953,1.4101562-3.1503906.4394531-1.2001953.7197266-2.2099609.8398438-3.0302734,1.7998047.7402344,2.7001953,1.2304688,2.7001953,1.4707031,0,.0595703-.090332.1298828-.2700195.2099609l-.5102539.1494141c-.2602539.5605469-.5800781,1.1904297-.9599609,1.890625h4.8598633l.5400391-.7802734Zm10.590332,5.6699219c.0395508-.0595703.1049805-.1542969.1948242-.2851562.0898438-.1298828.1699219-.2246094.2402344-.2851562.0698242-.0595703.1445312-.0898438.2246094-.0898438.1201172,0,.3549805.1308594.7050781.390625.3496094.2597656.6699219.5449219.9599609.8544922.2900391.3105469.4350586.5351562.4350586.6748047-.2397461.2802734-.6000977.4609375-1.0800781.5400391v1.7402344l.0302734,1.0498047c.0195312.8007812.0600586,1.5507812.1201172,2.25-.1005859.1806641-.3354492.3603516-.7050781.5400391-.3706055.1806641-.7050781.2705078-1.0053711.2705078-.1401367,0-.2451172-.0605469-.3149414-.1806641-.0703125-.1201172-.1049805-.2597656-.1049805-.4199219.0200195-.0195312.0600586-.1894531.1201172-.5097656v-.5703125h-7.0498047v3.4804688h8.2197266l.4799805-.5703125c.0600586-.0791016.1601562-.1943359.300293-.3447266.1396484-.1503906.2700195-.2246094.3896484-.2246094.199707,0,.5849609.25,1.1552734.75.5698242.5.8549805.859375.8549805,1.0791016-.1801758.2402344-.5600586.3710938-1.1401367.390625-.2998047,3.7402344-1.0200195,6.0498047-2.1601562,6.9296875-.7001953.5195312-1.5898438.7802734-2.6699219.7802734,0-.6201172-.1401367-1.0703125-.4199219-1.3505859-.3598633-.2792969-1.1098633-.5097656-2.25-.6894531l.0302734-.5400391c1.699707.1601562,2.7895508.2402344,3.2700195.2402344.2397461,0,.4243164-.015625.5546875-.0449219.1298828-.0302734.2651367-.0947266.4052734-.1953125.2998047-.2197266.574707-.7949219.824707-1.7246094.25-.9306641.4448242-2.125.5849609-3.5859375h-8.4296875v2.7607422c.0600586,2.3203125.1298828,4.0898438.2099609,5.3095703-.1201172.1796875-.340332.3496094-.6601562.5097656-.3203125.1601562-.7001953.2402344-1.1401367.2402344-.1401367,0-.2597656-.0595703-.3598633-.1796875s-.1499023-.2607422-.1499023-.4199219c.0795898-1.1005859.1499023-2.5800781.2099609-4.4404297v-2.5195312c-1.4599609,1.5800781-3.215332,3-5.2651367,4.2597656-2.050293,1.2597656-4.3046875,2.3193359-6.7651367,3.1796875l-.2397461-.4794922c2.1396484-1.0009766,4.1401367-2.2207031,6-3.6601562,1.8598633-1.4404297,3.409668-2.9599609,4.6499023-4.5605469h-6.1499023l-.2700195,1.0507812-.2700195.9599609c-.2802734.1396484-.550293.2099609-.8100586.2099609-.2397461,0-.6201172-.0800781-1.1401367-.2402344l.6904297-2.4599609c.2797852-1.0205078.5195312-2.0800781.7197266-3.1796875.199707-1.0996094.3198242-2.0498047.3598633-2.8505859l2.4301758,1.2597656h6.0600586v-3.5996094h-4.7998047c-1.4204102.0205078-2.9204102.1601562-4.5.4199219l-.7802734-1.5302734c1.0996094.1201172,2.4301758.2001953,3.9902344.2402344h14.7597656l.4501953-.6298828Zm-15.840332,5.9697266l-.3295898,1.4404297-.4804688,2.0400391h7.5302734v-3.4804688h-6.7202148Zm13.0200195-10.0195312c.7202148.4003906,1.25.8447266,1.590332,1.3349609.3398438.4902344.5097656.9550781.5097656,1.3945312,0,.3203125-.0898438.5957031-.2700195.8251953-.1796875.2304688-.4101562.3447266-.6899414.3447266-.2602539,0-.5-.0996094-.7202148-.2998047-.0400391-.5791016-.2246094-1.2001953-.5546875-1.859375-.3300781-.6601562-.7250977-1.2402344-1.1850586-1.7402344h-1.5600586c-1.1000977,1.6796875-2.2900391,3.0400391-3.5698242,4.0800781l-.3901367-.2998047c.5200195-.6796875.9902344-1.4296875,1.4101562-2.25.4995117-.8603516.9599609-1.8847656,1.3798828-3.0751953.4199219-1.1894531.6796875-2.2050781.7797852-3.0449219,1.0200195.4003906,1.7348633.7148438,2.1450195.9443359.409668.2304688.6152344.4052734.6152344.5253906,0,.0800781-.1005859.1503906-.300293.2099609l-.5395508.1503906c-.2001953.4394531-.5400391,1.0800781-1.0200195,1.9199219h6.5395508l.5703125-.8398438c.0795898-.1005859.1650391-.2207031.2548828-.3603516s.1845703-.2597656.2851562-.3603516c.0996094-.0996094.1899414-.1494141.2700195-.1494141.1196289,0,.3696289.1445312.75.4345703.3793945.2900391.7348633.6054688,1.0649414.9453125s.4951172.5800781.4951172.7197266c-.0600586.2998047-.300293.4501953-.7202148.4501953h-7.1401367Zm2.6401367,5.5498047h-7.0498047v3.5996094h7.0498047v-3.5996094Z"/>
        <path class="cls-2" d="m107.9961705,117.796064c-1.0800781,1.7402344-2.2905273,3.2998047-3.6298828,4.6806641l-.3901367-.3007812c1.659668-2.3994141,3.159668-5.359375,4.5-8.8798828.3793945-.9599609.7299805-2.0644531,1.0498047-3.3144531s.5102539-2.2753906.5703125-3.0751953c2.0195312.640625,3.0297852,1.0996094,3.0297852,1.3798828,0,.0800781-.0898438.1503906-.2700195.2099609l-.5400391.1796875c-.7402344,2.1201172-1.6499023,4.2509766-2.7299805,6.390625.6401367.5.9599609.8701172.9599609,1.109375,0,.1005859-.0898438.2001953-.2700195.3007812l-.4199219.2099609v10.0498047c.0400391,2.4794922.1201172,4.8300781.2402344,7.0498047-.1401367.1796875-.3803711.3603516-.7202148.5400391-.340332.1796875-.6801758.2695312-1.0200195.2695312-.1801758,0-.340332-.0595703-.4799805-.1796875-.1401367-.1201172-.2099609-.2597656-.2099609-.4199219.0795898-1.1806641.1499023-2.3251953.2099609-3.4345703.0600586-1.1103516.1000977-2.5654297.1201172-4.3652344v-8.4003906Zm19.3798828,13.6503906c.1000977-.1201172.199707-.25.2998047-.390625.1000977-.1396484.199707-.2646484.300293-.375.0996094-.109375.1899414-.1640625.2700195-.1640625.1201172,0,.3847656.1601562.7949219.4794922.409668.3203125.7949219.6601562,1.1547852,1.0205078.3603516.359375.5400391.609375.5400391.75-.0600586.3193359-.2998047.4794922-.7197266.4794922h-13.7402344c-1.4204102.0195312-2.9204102.1601562-4.5.4199219l-.7197266-1.5302734c1.0996094.1201172,2.4296875.2001953,3.9897461.2402344h6.3300781c.8999023-3.2402344,1.6899414-6.6494141,2.3701172-10.2294922.4394531-2.4199219.6494141-4.4101562.6298828-5.9707031,1.2197266.2802734,2.074707.5058594,2.5649414.6757812.4897461.1699219.7348633.3144531.7348633.4345703,0,.0800781-.0898438.1699219-.2695312.2695312l-.5102539.2705078c-.5400391,2.2001953-1.2553711,4.6298828-2.1450195,7.2900391-.8901367,2.6601562-1.8149414,5.0800781-2.7749023,7.2597656h4.7700195l.6298828-.9296875Zm-.5400391-18.6005859c.0600586-.0791016.1499023-.2041016.2700195-.375.1201172-.1689453.2250977-.2998047.3149414-.3896484.090332-.0898438.1748047-.1347656.2548828-.1347656.1201172,0,.3798828.1552734.7802734.4648438.3999023.3105469.7749023.6445312,1.125,1.0048828.3496094.3603516.5249023.6103516.5249023.75-.0800781.3203125-.3300781.4804688-.75.4804688h-12.2700195c-1.4204102.0195312-2.9204102.1601562-4.5.4199219l-.7797852-1.5605469c1.0996094.1201172,2.4296875.2001953,3.9897461.2402344h3.75v-.4794922c0-2.5205078-.1303711-4.5703125-.3896484-6.1503906,2.0595703.5605469,3.0898438.9804688,3.0898438,1.2597656,0,.1005859-.0898438.2001953-.2700195.2998047l-.5400391.3300781v4.7402344h4.7700195l.6298828-.9003906Zm-11.9697266,3.8105469c1.3393555,1.9404297,2.3144531,3.7949219,2.9248047,5.5644531.6098633,1.7705078.9150391,3.3457031.9150391,4.7255859,0,.9404297-.125,1.6953125-.375,2.2646484-.2504883.5703125-.5454102.8554688-.8852539.8554688-.2597656,0-.5097656-.1806641-.75-.5400391-.0400391-2.0595703-.2299805-4.25-.5698242-6.5703125-.340332-2.3193359-.9101562-4.3496094-1.7099609-6.0898438l.4501953-.2099609Z"/>
        <path class="cls-2" d="m65.7188268,138.3995796c-.4199219,0-.840332-.3603516-.840332-.8398438,0-.4804688.6000977-1.0205078,1.0800781-1.4404297,11.9995117-10.6787109,20.9394531-18.9589844,20.9394531-30.4785156,0-8.5791016-5.5200195-11.0996094-9.5400391-11.0996094-2.8798828,0-4.6796875.6601562-6.4194336,2.2802734-1.4399414,1.3798828-2.1601562,3.4794922-2.1601562,5.8193359,0,.5400391-.1796875.9003906-.4799805.9003906-.2397461,0-.4199219-.2402344-.4799805-.7802734s-.3598633-5.5195312-.3598633-7.3798828c0-.359375.0600586-.5400391.6000977-.8994141,2.2197266-1.0205078,5.699707-2.1005859,10.5595703-2.1005859,9.0595703,0,13.5595703,5.7597656,13.5595703,12.1201172,0,12.4189453-13.4394531,23.5185547-20.8793945,29.8789062-.2998047.2392578-.1796875.4199219.1201172.4199219h4.3798828c1.0200195,0,8.0996094-.0605469,10.2592773-.2998047,4.3798828-.4208984,6.2998047-2.2207031,7.0800781-5.7597656.1196289-.6601562.2998047-.9003906.659668-.9003906.300293,0,.3603516.3603516.3603516.7197266,0,1.140625-1.2001953,6-1.800293,8.0400391-.4799805,1.6201172-1.3798828,1.859375-3.8999023,1.859375-12.4194336.0605469-20.3388672-.0595703-22.7387695-.0595703Z"/>
      </g>
    </g>
  </g>
</svg>